{
.appVersion = "1342";
copyright = "Copyright 2012 Google Inc. All Rights Reserved.";
customParameters = (
{
name = vendorID;
value = MONO;
},
{
name = panose;
value = (
2,
2,
6,
0,
6,
5,
0,
2,
2,
0
);
},
{
name = unicodeRanges;
value = (
0,
1,
2,
3,
4,
5,
6,
7,
9,
29,
30,
31,
32,
33,
34,
35,
36,
37,
38,
39,
43,
44,
45,
46,
60,
62,
64,
67,
69
);
},
{
name = glyphOrder;
value = (
.notdef,
CR,
space,
uni0000,
exclam,
quotedbl,
numbersign,
dollar,
percent,
ampersand,
quotesingle,
parenleft,
parenright,
asterisk,
plus,
comma,
hyphen,
period,
slash,
zero,
one,
two,
three,
four,
five,
six,
seven,
eight,
nine,
colon,
semicolon,
less,
equal,
greater,
question,
at,
A,
B,
C,
D,
E,
F,
G,
H,
I,
J,
K,
L,
M,
N,
O,
P,
Q,
R,
S,
T,
U,
V,
W,
X,
Y,
Z,
bracketleft,
backslash,
bracketright,
asciicircum,
underscore,
grave,
a,
b,
c,
d,
e,
f,
g,
h,
i,
j,
k,
l,
m,
n,
o,
p,
q,
r,
s,
t,
u,
v,
w,
x,
y,
z,
braceleft,
bar,
braceright,
asciitilde,
guillemotleft,
guillemotright,
uni1780,
uni1781,
uni1782,
uni1783,
uni1784,
uni1785,
uni1786,
uni1787,
uni1788,
uni1789,
uni178A,
uni178B,
uni178C,
uni178D,
uni178E,
uni178F,
uni1790,
uni1791,
uni1792,
uni1793,
uni1794,
uni1795,
uni1796,
uni1797,
uni1798,
uni1799,
uni179A,
uni179B,
uni179C,
uni179D,
uni179E,
uni179F,
uni17A0,
uni17A1,
uni17A2,
uni17A3,
uni17A4,
uni17A5,
uni17A6,
uni17A7,
uni17A8,
uni17A9,
uni17AA,
uni17AB,
uni17AC,
uni17AD,
uni17AE,
uni17AF,
uni17B0,
uni17B1,
uni17B2,
uni17B3,
uni17B4,
uni17B5,
uni17B6,
uni17B7,
uni17B8,
uni17B9,
uni17BA,
uni17BB,
uni17BC,
uni17BD,
uni17BE,
uni17BF,
uni17C0,
uni17C1,
uni17C2,
uni17C3,
uni17C4,
uni17C5,
uni17C6,
uni17C7,
uni17C8,
uni17C9,
uni17CA,
uni17CB,
uni17CC,
uni17CD,
uni17CE,
uni17CF,
uni17D0,
uni17D1,
uni17D2,
uni17D3,
uni17D4,
uni17D5,
uni17D6,
uni17D7,
uni17D8,
uni17D9,
uni17DA,
uni17DB,
uni17DC,
uni17DD,
uni17E0,
uni17E1,
uni17E2,
uni17E3,
uni17E4,
uni17E5,
uni17E6,
uni17E7,
uni17E8,
uni17E9,
ta.half,
cho.half,
ru.half,
ruu.half,
uni17D2_1780,
uni17D2_1781,
uni17D2_1782,
uni17D21783,

glyphs = (
{
glyphname = .notdef;
layers = (
{
layerId = "27714DAC-5FBA-4222-9599-87EDA629626A";
paths = (
{
closed = 1;
nodes = (
"102 0 LINE",
"922 0 LINE",
"922 1462 LINE",
"102 1462 LINE"
);
},
{
closed = 1;
nodes = (
"201 98 LINE",
"201 1364 LINE",
"823 1364 LINE",
"823 98 LINE"
);
}
);
userData = {
assembly = "NPUSHB[ ]	/* 39 values pushed */\0124 1 1 0 2 3 1 2 103 0 3 0 0 3 87 0 3 3 0 95 0 0 3 0 79 0 0 7 6 5 4 0 3 0 3 17 5 6 23 \012CALL[ ]	/* CallFunction */";
};
width = 1024;
}
);
note = .notdef;
},
{
glyphname = exclam;
layers = (
{
layerId = "27714DAC-5FBA-4222-9599-87EDA629626A";
paths = (
{
closed = 1;
nodes = (
"180 285 OFFCURVE",
"225 266 QCURVE",
"432 383 LINE",
"432 428 LINE",
"348 444 OFFCURVE",
"348 569 QCURVE SMOOTH",
"348 1434 LINE SMOOTH",
"348 1470 OFFCURVE",
"270 1554 OFFCURVE",
"225 1573 QCURVE",
"18 1456 LINE",
"18 1411 LINE",
"102 1395 OFFCURVE",
"102 1270 QCURVE SMOOTH",
"102 406 LINE SMOOTH",
"102 369 OFFCURVE"
);
},
{
closed = 1;
nodes = (
"331 162 OFFCURVE",
"294 162 OFFCURVE",
"131 98 OFFCURVE",
"131 92 QCURVE SMOOTH",
"131 -57 LINE SMOOTH",
"131 -94 OFFCURVE",
"182 -164 OFFCURVE",
"208 -164 OFFCURVE",
"378 -100 OFFCURVE",
"378 -94 QCURVE SMOOTH",
"378 31 LINE SMOOTH",
"378 90 OFFCURVE"
);
}
);
width = 450;
}
);
note = exclam;
unicode = 0021;
},
{
glyphname = quotedbl;
layers = (
{
layerId = "27714DAC-5FBA-4222-9599-87EDA629626A";
paths = (
{
closed = 1;
nodes = (
"71 1298 LINE SMOOTH",
"78 1237 OFFCURVE",
"119 1167 OFFCURVE",
"155 1167 OFFCURVE",
"237 1229 OFFCURVE",
"237 1237 QCURVE SMOOTH",
"258 1470 LINE",
"258 1507 OFFCURVE",
"207 1577 OFFCURVE",
"182 1577 OFFCURVE",
"51 1513 OFFCURVE",
"51 1507 QCURVE SMOOTH"
);
},
{
closed = 1;
nodes = (
"391 1298 LINE SMOOTH",
"397 1237 OFFCURVE",
"438 1167 OFFCURVE",
"475 1167 OFFCURVE",
"557 1229 OFFCURVE",
"557 1237 QCURVE SMOOTH",
"577 1470 LINE",
"577 1507 OFFCURVE",
"526 1577 OFFCURVE",
"502 1577 OFFCURVE",
"370 1513 OFFCURVE",
"370 1507 QCURVE SMOOTH"
);
}
);
width = 628;
}
);
note = quotedbl;
unicode = 0022;
},
{
glyphname = numbersign;
layers = (
{
layerId = "27714DAC-5FBA-4222-9599-87EDA629626A";
paths = (
{
closed = 1;
nodes = (
"199 553 LINE",
"-16 553 LINE",
"-139 436 LINE",
"-139 391 LINE",
"144 391 LINE",
"11 0 LINE",
"56 0 LINE",
"209 78 LINE",
"316 391 LINE",
"652 391 LINE",
"520 0 LINE",
"566 0 LINE",
"719 78 LINE",
"826 391 LINE",
"1014 391 LINE",
"1137 504 LINE",
"1137 553 LINE",
"881 553 LINE",
"987 870 LINE",
"1192 870 LINE",
"1315 983 LINE",
"1315 1032 LINE",
"1043 1032 LINE",
"1182 1442 LINE",
"1131 1442 LINE",
"981 1362 LINE",
"869 1032 LINE",
"535 1032 LINE",
"676 1442 LINE",
"625 1442 LINE",
"475 1362 LINE",
"363 1032 LINE",
"162 1032 LINE",
"39 915 LINE",
"39 870 LINE",
"307 870 LINE"
);
},
{
closed = 1;
nodes = (
"707 553 LINE",
"371 553 LINE",
"479 870 LINE",
"813 870 LINE"
);
}
);
width = 1169;
}
);
note = numbersign;
unicode = 0023;
},
{
glyphname = dollar;
layers = (
{
layerId = "27714DAC-5FBA-4222-9599-87EDA629626A";
paths = (
{
closed = 1;
nodes = (
"466 752 OFFCURVE",
"483 752 QCURVE SMOOTH",
"534 752 OFFCURVE",
"534 659 QCURVE SMOOTH",
"534 199 LINE SMOOTH",
"534 170 OFFCURVE",
"497 137 OFFCURVE",
"476 137 QCURVE SMOOTH",
"448 137 OFFCURVE",
"335 420 OFFCURVE",
"304 420 QCURVE SMOOTH",
"294 420 OFFCURVE",
"163 348 QCURVE SMOOTH",
"110 319 OFFCURVE",
"77 305 QCURVE",
"77 264 LINE",
"118 264 OFFCURVE",
"165 178 OFFCURVE",
"224 49 OFFCURVE",
"261 -20 OFFCURVE",
"290 -20 OFFCURVE",
"419 25 QCURVE",
"419 -176 LINE",
"468 -176 LINE",
"583 -115 LINE",
"583 90 LINE",
"779 174 OFFCURVE",
"779 209 QCURVE SMOOTH",
"779 645 LINE SMOOTH",
"779 768 OFFCURVE",
"704 926 OFFCURVE",
"655 926 QCURVE SMOOTH",
"630 926 OFFCURVE",
"392 819 OFFCURVE",
"384 819 QCURVE SMOOTH",
"347 819 OFFCURVE",
"347 901 QCURVE SMOOTH",
"347 1358 LINE SMOOTH",
"347 1419 OFFCURVE",
"384 1419 QCURVE SMOOTH",
"413 1419 OFFCURVE",
"505 1178 OFFCURVE",
"536 1178 QCURVE SMOOTH",
"546 1178 OFFCURVE",
"675 1249 QCURVE SMOOTH",
"730 1278 OFFCURVE",
"763 1292 QCURVE",
"763 1333 LINE",
"722 1333 OFFCURVE",
"695 1382 QCURVE SMOOTH",
"683 1405 OFFCURVE",
"644 1475 OFFCURVE",
"622 1516 OFFCURVE",
"595 1556 OFFCURVE",
"573 1577 OFFCURVE",
"550 1577 OFFCURVE",
"448 1536 QCURVE",
"448 1726 LINE",
"399 1726 LINE",
"284 1665 LINE",
"284 1466 LINE",
"102 1382 OFFCURVE",
"102 1348 QCURVE SMOOTH",
"102 922 LINE SMOOTH",
"102 809 OFFCURVE",
"175 653 OFFCURVE",
"227 653 QCURVE SMOOTH",
"241 653 OFFCURVE"
);
}
);
width = 870;
}
);
note = dollar;
unicode = 0024;
},
{
glyphname = percent;
layers = (
{
layerId = "27714DAC-5FBA-4222-9599-87EDA629626A";
paths = (
{
closed = 1;
nodes = (
"1097 1454 LINE",
"942 1389 LINE",
"276 -51 LINE",
"321 -57 LINE",
"481 6 LINE",
"1149 1448 LINE"
);
},
{
closed = 1;
nodes = (
"184 770 OFFCURVE",
"252 770 OFFCURVE",
"544 883 OFFCURVE",
"544 893 QCURVE SMOOTH",
"544 1282 LINE SMOOTH",
"544 1325 OFFCURVE",
"452 1436 OFFCURVE",
"403 1436 OFFCURVE",
"102 1321 OFFCURVE",
"102 1311 QCURVE SMOOTH",
"102 965 LINE SMOOTH",
"102 885 OFFCURVE"
);
},
{
closed = 1;
nodes = (
"264 991 QCURVE SMOOTH",
"264 1288 LINE",
"286 1311 OFFCURVE",
"315 1311 QCURVE SMOOTH",
"381 1311 OFFCURVE",
"381 1212 QCURVE SMOOTH",
"381 918 LINE",
"356 893 OFFCURVE",
"329 893 QCURVE SMOOTH",
"264 893 OFFCURVE"
);
},
{
closed = 1;
nodes = (
"972 2 OFFCURVE",
"1040 2 OFFCURVE",
"1333 115 OFFCURVE",
"1333 125 QCURVE SMOOTH",
"1333 514 LINE SMOOTH",
"1333 557 OFFCURVE",
"1241 668 OFFCURVE",
"1192 668 OFFCURVE",
"890 553 OFFCURVE",
"890 543 QCURVE SMOOTH",
"890 197 LINE SMOOTH",
"890 117 OFFCURVE"
);
},
{
closed = 1;
nodes = (
"1052 223 QCURVE SMOOTH",
"1052 520 LINE",
"1071 543 OFFCURVE",
"1103 543 QCURVE SMOOTH",
"1169 543 OFFCURVE",
"1169 444 QCURVE SMOOTH",
"1169 150 LINE",
"1144 125 OFFCURVE",
"1118 125 QCURVE SMOOTH",
"1052 125 OFFCURVE"
);
}
);
width = 1435;
}
);
note = percent;
unicode = 0025;
},
{
glyphname = ampersand;
layers = (
{
layerId = "27714DAC-5FBA-4222-9599-87EDA629626A";
paths = (
{
closed = 1;
nodes = (
"508 1085 OFFCURVE",
"538 1085 QCURVE SMOOTH",
"546 1085 OFFCURVE",
"761 1190 OFFCURVE",
"807 1210 QCURVE",
"807 1251 LINE",
"741 1251 OFFCURVE",
"696 1327 OFFCURVE",
"585 1577 OFFCURVE",
"565 1577 QCURVE SMOOTH",
"530 1577 OFFCURVE",
"102 1403 OFFCURVE",
"102 1389 QCURVE SMOOTH",
"102 299 LINE SMOOTH",
"102 180 OFFCURVE",
"233 0 OFFCURVE",
"340 0 OFFCURVE",
"548 84 QCURVE",
"583 33 OFFCURVE",
"655 0 QCURVE",
"862 117 LINE",
"862 162 LINE",
"778 178 OFFCURVE",
"778 303 QCURVE SMOOTH",
"778 717 LINE",
"862 717 LINE",
"882 817 LINE",
"778 817 LINE",
"778 1016 LINE",
"706 1016 LINE",
"682 928 OFFCURVE",
"544 823 OFFCURVE",
"479 817 QCURVE",
"348 817 LINE",
"348 1358 LINE",
"364 1378 OFFCURVE",
"385 1378 QCURVE SMOOTH",
"413 1378 OFFCURVE"
);
},
{
closed = 1;
nodes = (
"368 242 OFFCURVE",
"348 291 OFFCURVE",
"348 389 QCURVE SMOOTH",
"348 717 LINE",
"532 717 LINE",
"532 215 LINE",
"479 188 OFFCURVE",
"426 188 OFFCURVE",
"391 203 OFFCURVE"
);
}
);
width = 880;
}
);
note = ampersand;
unicode = 0026;
},
{
glyphname = quotesingle;
layers = (
{
layerId = "27714DAC-5FBA-4222-9599-87EDA629626A";
paths = (
{
closed = 1;
nodes = (
"71 1298 LINE SMOOTH",
"78 1237 OFFCURVE",
"119 1167 OFFCURVE",
"155 1167 OFFCURVE",
"237 1229 OFFCURVE",
"237 1237 QCURVE SMOOTH",
"258 1470 LINE",
"258 1507 OFFCURVE",
"207 1577 OFFCURVE",
"182 1577 OFFCURVE",
"51 1513 OFFCURVE",
"51 1507 QCURVE SMOOTH"
);
}
);
width = 309;
}
);
note = quotesingle;
unicode = 0027;
},
{
glyphname = parenleft;
layers = (
{
layerId = "27714DAC-5FBA-4222-9599-87EDA629626A";
paths = (
{
closed = 1;
nodes = (
"335 168 OFFCURVE",
"270 516 OFFCURVE",
"270 944 OFFCURVE",
"337 1307 OFFCURVE",
"491 1423 OFFCURVE",
"608 1423 QCURVE",
"608 1487 LINE",
"565 1509 LINE SMOOTH",
"524 1532 OFFCURVE",
"411 1575 OFFCURVE",
"385 1575 QCURVE SMOOTH",
"315 1575 OFFCURVE",
"129 1405 OFFCURVE",
"100 1227 QCURVE SMOOTH",
"61 985 OFFCURVE",
"61 475 OFFCURVE",
"100 236 QCURVE SMOOTH",
"127 61 OFFCURVE",
"315 -113 OFFCURVE",
"385 -113 QCURVE SMOOTH",
"428 -113 OFFCURVE",
"610 -20 QCURVE",
"610 39 LINE",
"467 39 OFFCURVE"
);
}
);
width = 651;
}
);
note = parenleft;
unicode = 0028;
},
{
glyphname = parenright;
layers = (
{
layerId = "27714DAC-5FBA-4222-9599-87EDA629626A";
paths = (
{
closed = 1;
nodes = (
"61 -20 LINE",
"108 -45 LINE SMOOTH",
"245 -113 OFFCURVE",
"286 -113 QCURVE SMOOTH",
"356 -113 OFFCURVE",
"544 61 OFFCURVE",
"571 236 QCURVE SMOOTH",
"610 475 OFFCURVE",
"610 985 OFFCURVE",
"571 1227 QCURVE SMOOTH",
"542 1405 OFFCURVE",
"356 1575 OFFCURVE",
"225 1575 OFFCURVE",
"63 1487 QCURVE",
"63 1423 LINE",
"180 1423 OFFCURVE",
"333 1307 OFFCURVE",
"401 944 OFFCURVE",
"401 516 OFFCURVE",
"335 168 OFFCURVE",
"204 39 OFFCURVE",
"61 39 QCURVE"
);
}
);
width = 651;
}
);
note = parenright;
unicode = 0029;
},
{
glyphname = asterisk;
layers = (
{
layerId = "27714DAC-5FBA-4222-9599-87EDA629626A";
paths = (
{
closed = 1;
nodes = (
"294 1468 LINE",
"294 1370 LINE",
"226 1399 LINE",
"104 1403 LINE",
"83 1380 LINE",
"228 1264 LINE",
"81 1145 LINE",
"106 1120 LINE",
"224 1126 LINE",
"294 1155 LINE",
"294 985 LINE",
"329 985 LINE",
"411 1073 LINE",
"411 1157 LINE",
"482 1128 LINE",
"599 1122 LINE",
"624 1147 LINE",
"478 1264 LINE",
"624 1380 LINE",
"601 1401 LINE",
"480 1397 LINE",
"411 1370 LINE",
"411 1556 LINE",
"378 1556 LINE"
);
}
);
width = 706;
}
);
note = asterisk;
unicode = 002A;
},
{
glyphname = plus;
layers = (
{
layerId = "27714DAC-5FBA-4222-9599-87EDA629626A";
paths = (
{
closed = 1;
nodes = (
"350 860 LINE",
"350 696 LINE",
"184 696 LINE",
"61 580 LINE",
"61 535 LINE",
"350 535 LINE",
"350 244 LINE",
"399 244 LINE",
"512 367 LINE",
"512 535 LINE",
"677 535 LINE",
"800 647 LINE",
"800 696 LINE",
"512 696 LINE",
"512 983 LINE",
"467 983 LINE"
);
}
);
width = 862;
}
);
note = plus;
unicode = 002B;
},
{
glyphname = comma;
layers = (
{
layerId = "27714DAC-5FBA-4222-9599-87EDA629626A";
paths = (
{
closed = 1;
nodes = (
"149 0 OFFCURVE",
"149 -8 QCURVE SMOOTH",
"149 -61 OFFCURVE",
"116 -186 OFFCURVE",
"79 -201 QCURVE",
"171 -287 LINE",
"253 -240 OFFCURVE",
"351 8 OFFCURVE",
"351 70 QCURVE SMOOTH",
"351 178 LINE SMOOTH",
"351 215 OFFCURVE",
"300 285 OFFCURVE",
"274 285 OFFCURVE",
"104 221 OFFCURVE",
"104 215 QCURVE SMOOTH",
"104 131 LINE SMOOTH",
"104 78 OFFCURVE"
);
}
);
width = 454;
}
);
note = comma;
unicode = 002C;
},
{
glyphname = hyphen;
layers = (
{
layerId = "27714DAC-5FBA-4222-9599-87EDA629626A";
paths = (
{
closed = 1;
nodes = (
"61 580 LINE",
"61 535 LINE",
"596 535 LINE",
"718 647 LINE",
"718 696 LINE",
"184 696 LINE"
);
}
);
width = 780;
}
);
note = hyphen;
unicode = 002D;
},
{
glyphname = period;
layers = (
{
layerId = "27714DAC-5FBA-4222-9599-87EDA629626A";
paths = (
{
closed = 1;
nodes = (
"149 0 OFFCURVE",
"186 0 OFFCURVE",
"350 63 OFFCURVE",
"350 70 QCURVE SMOOTH",
"350 219 LINE SMOOTH",
"350 256 OFFCURVE",
"299 326 OFFCURVE",
"272 326 OFFCURVE",
"102 262 OFFCURVE",
"102 256 QCURVE SMOOTH",
"102 131 LINE SMOOTH",
"102 72 OFFCURVE"
);
}
);
width = 452;
}
);
note = period;
unicode = 002E;
},
{
glyphname = slash;
layers = (
{
layerId = "27714DAC-5FBA-4222-9599-87EDA629626A";
paths = (
{
closed = 1;
nodes = (
"524 1493 LINE",
"375 1413 LINE",
"-135 -78 LINE",
"-90 -78 LINE",
"64 0 LINE",
"576 1493 LINE"
);
}
);
width = 368;
}
);
note = slash;
unicode = 002F;
},
{
glyphname = zero;
layers = (
{
layerId = "27714DAC-5FBA-4222-9599-87EDA629626A";
paths = (
{
closed = 1;
nodes = (
"231 0 OFFCURVE",
"331 0 OFFCURVE",
"780 174 OFFCURVE",
"780 190 QCURVE SMOOTH",
"780 1341 LINE SMOOTH",
"780 1409 OFFCURVE",
"639 1577 OFFCURVE",
"569 1577 OFFCURVE",
"102 1403 OFFCURVE",
"102 1389 QCURVE SMOOTH",
"102 299 LINE SMOOTH",
"102 176 OFFCURVE"
);
},
{
closed = 1;
nodes = (
"348 340 QCURVE SMOOTH",
"348 1356 LINE",
"387 1386 OFFCURVE",
"428 1386 QCURVE SMOOTH",
"532 1386 OFFCURVE",
"532 1235 QCURVE SMOOTH",
"532 221 LINE",
"491 188 OFFCURVE",
"452 188 QCURVE SMOOTH",
"348 188 OFFCURVE"
);
},
{
closed = 1;
nodes = (
"411 627 OFFCURVE",
"426 627 OFFCURVE",
"485 649 OFFCURVE",
"485 651 QCURVE SMOOTH",
"485 827 LINE SMOOTH",
"485 842 OFFCURVE",
"467 866 OFFCURVE",
"456 866 OFFCURVE",
"395 842 OFFCURVE",
"395 840 QCURVE SMOOTH",
"395 674 LINE SMOOTH",
"395 651 OFFCURVE"
);
}
);
width = 882;
}
);
note = zero;
unicode = 0030;
},
{
glyphname = one;
layers = (
{
layerId = "27714DAC-5FBA-4222-9599-87EDA629626A";
paths = (
{
closed = 1;
nodes = (
"291 1559 OFFCURVE",
"246 1577 QCURVE",
"-22 1440 LINE",
"-22 1395 LINE",
"17 1386 OFFCURVE",
"66 1372 OFFCURVE",
"123 1317 OFFCURVE",
"123 1274 QCURVE SMOOTH",
"123 262 LINE SMOOTH",
"123 162 OFFCURVE",
"80 113 QCURVE SMOOTH",
"64 94 OFFCURVE",
"17 66 OFFCURVE",
"1 66 QCURVE",
"33 0 LINE",
"35 0 OFFCURVE",
"451 182 QCURVE",
"451 240 LINE",
"406 240 OFFCURVE",
"369 287 OFFCURVE",
"369 342 QCURVE SMOOTH",
"369 1438 LINE SMOOTH",
"369 1475 OFFCURVE"
);
}
);
width = 491;
}
);
note = one;
unicode = 0031;
},
{
glyphname = two;
layers = (
{
layerId = "27714DAC-5FBA-4222-9599-87EDA629626A";
paths = (
{
closed = 1;
nodes = (
"465 983 LINE SMOOTH",
"465 918 OFFCURVE",
"241 551 OFFCURVE",
"20 217 OFFCURVE",
"20 190 QCURVE SMOOTH",
"20 111 OFFCURVE",
"63 0 QCURVE",
"639 0 LINE SMOOTH",
"686 0 OFFCURVE",
"766 55 OFFCURVE",
"788 90 OFFCURVE",
"794 100 QCURVE",
"680 266 LINE",
"667 266 LINE SMOOTH",
"657 266 OFFCURVE",
"634 268 QCURVE",
"610 201 OFFCURVE",
"497 201 QCURVE SMOOTH",
"460 201 OFFCURVE",
"233 197 QCURVE",
"352 360 LINE SMOOTH",
"471 522 OFFCURVE",
"710 956 OFFCURVE",
"710 1065 QCURVE SMOOTH",
"710 1346 LINE SMOOTH",
"710 1395 OFFCURVE",
"579 1577 OFFCURVE",
"503 1577 OFFCURVE",
"71 1401 OFFCURVE",
"71 1389 QCURVE SMOOTH",
"71 1155 LINE SMOOTH",
"71 1085 OFFCURVE",
"16 1024 QCURVE",
"45 995 LINE",
"258 1077 LINE SMOOTH",
"286 1087 OFFCURVE",
"313 1120 OFFCURVE",
"317 1147 OFFCURVE",
"317 1174 QCURVE SMOOTH",
"317 1362 LINE",
"350 1403 OFFCURVE",
"430 1403 OFFCURVE",
"465 1331 OFFCURVE",
"465 1241 QCURVE SMOOTH"
);
}
);
width = 792;
}
);
note = two;
unicode = 0032;
},
{
glyphname = three;
layers = (
{
layerId = "27714DAC-5FBA-4222-9599-87EDA629626A";
paths = (
{
closed = 1;
nodes = (
"493 125 OFFCURVE",
"412 125 QCURVE SMOOTH",
"368 125 OFFCURVE",
"315 225 OFFCURVE",
"315 360 OFFCURVE",
"311 403 OFFCURVE",
"301 403 QCURVE SMOOTH",
"250 403 OFFCURVE",
"6 283 QCURVE",
"6 244 LINE",
"74 236 OFFCURVE",
"92 205 QCURVE SMOOTH",
"102 188 OFFCURVE",
"125 68 OFFCURVE",
"151 -18 OFFCURVE",
"176 -18 QCURVE SMOOTH",
"246 -18 OFFCURVE",
"737 143 OFFCURVE",
"737 188 QCURVE SMOOTH",
"737 598 LINE SMOOTH",
"737 733 OFFCURVE",
"631 856 QCURVE",
"739 911 OFFCURVE",
"739 942 QCURVE SMOOTH",
"739 1339 LINE SMOOTH",
"739 1407 OFFCURVE",
"598 1575 OFFCURVE",
"528 1575 OFFCURVE",
"59 1389 OFFCURVE",
"59 1374 QCURVE SMOOTH",
"59 1219 LINE SMOOTH",
"59 1139 OFFCURVE",
"6 1083 QCURVE",
"35 1055 LINE",
"221 1126 LINE SMOOTH",
"282 1149 OFFCURVE",
"317 1184 OFFCURVE",
"317 1210 QCURVE SMOOTH",
"317 1323 LINE SMOOTH",
"317 1364 OFFCURVE",
"368 1421 OFFCURVE",
"403 1421 QCURVE SMOOTH",
"491 1421 OFFCURVE",
"491 1253 QCURVE SMOOTH",
"491 909 LINE",
"385 862 OFFCURVE",
"219 774 QCURVE",
"239 700 LINE",
"262 711 LINE SMOOTH",
"334 741 OFFCURVE",
"403 741 QCURVE SMOOTH",
"444 741 OFFCURVE",
"469 707 QCURVE SMOOTH",
"491 676 OFFCURVE",
"491 524 QCURVE SMOOTH",
"491 438 LINE",
"493 295 LINE",
"493 252 LINE SMOOTH"
);
}
);
width = 839;
}
);
note = three;
unicode = 0033;
},
{
glyphname = four;
layers = (
{
layerId = "27714DAC-5FBA-4222-9599-87EDA629626A";
paths = (
{
closed = 1;
nodes = (
"430 113 QCURVE SMOOTH",
"414 94 OFFCURVE",
"364 66 OFFCURVE",
"350 66 QCURVE",
"383 0 LINE",
"385 0 OFFCURVE",
"801 182 QCURVE",
"801 240 LINE",
"756 240 OFFCURVE",
"719 287 OFFCURVE",
"719 342 QCURVE SMOOTH",
"719 569 LINE",
"801 621 LINE",
"801 690 LINE",
"719 690 LINE",
"719 1438 LINE SMOOTH",
"719 1460 OFFCURVE",
"696 1483 QCURVE SMOOTH",
"637 1542 OFFCURVE",
"500 1577 QCURVE",
"463 1577 OFFCURVE",
"215 1135 OFFCURVE",
"2 686 OFFCURVE",
"2 643 OFFCURVE",
"41 569 OFFCURVE",
"49 569 QCURVE SMOOTH",
"471 569 LINE",
"471 262 LINE SMOOTH",
"471 164 OFFCURVE"
);
},
{
closed = 1;
nodes = (
"197 686 QCURVE",
"473 1239 LINE",
"473 690 LINE",
"471 688 OFFCURVE"
);
}
);
width = 821;
}
);
note = four;
unicode = 0034;
},
{
glyphname = five;
layers = (
{
layerId = "27714DAC-5FBA-4222-9599-87EDA629626A";
paths = (
{
closed = 1;
nodes = (
"677 1356 OFFCURVE",
"763 1417 OFFCURVE",
"777 1456 QCURVE",
"665 1624 LINE",
"618 1622 LINE",
"597 1556 OFFCURVE",
"468 1556 QCURVE SMOOTH",
"157 1556 LINE SMOOTH",
"102 1556 OFFCURVE",
"102 1518 QCURVE SMOOTH",
"102 938 LINE SMOOTH",
"102 825 OFFCURVE",
"175 670 OFFCURVE",
"227 670 QCURVE SMOOTH",
"241 670 OFFCURVE",
"466 768 OFFCURVE",
"483 768 QCURVE SMOOTH",
"534 768 OFFCURVE",
"534 676 QCURVE SMOOTH",
"534 240 LINE SMOOTH",
"534 211 OFFCURVE",
"497 178 OFFCURVE",
"476 178 QCURVE SMOOTH",
"448 178 OFFCURVE",
"335 420 OFFCURVE",
"304 420 QCURVE SMOOTH",
"294 420 OFFCURVE",
"163 348 QCURVE SMOOTH",
"110 319 OFFCURVE",
"77 305 QCURVE",
"77 264 LINE",
"118 264 OFFCURVE",
"165 178 OFFCURVE",
"224 49 OFFCURVE",
"261 -20 OFFCURVE",
"276 -20 QCURVE SMOOTH",
"310 -20 OFFCURVE",
"779 170 OFFCURVE",
"779 209 QCURVE SMOOTH",
"779 702 LINE SMOOTH",
"779 827 OFFCURVE",
"704 1004 OFFCURVE",
"655 1004 QCURVE SMOOTH",
"630 1004 OFFCURVE",
"392 897 OFFCURVE",
"384 897 QCURVE SMOOTH",
"347 897 OFFCURVE",
"347 979 QCURVE SMOOTH",
"347 1356 LINE",
"632 1356 LINE SMOOTH"
);
}
);
width = 882;
}
);
note = five;
unicode = 0035;
},
{
glyphname = six;
layers = (
{
layerId = "27714DAC-5FBA-4222-9599-87EDA629626A";
paths = (
{
closed = 1;
nodes = (
"231 0 OFFCURVE",
"331 0 OFFCURVE",
"780 174 OFFCURVE",
"780 190 QCURVE SMOOTH",
"780 829 LINE SMOOTH",
"780 897 OFFCURVE",
"639 1085 OFFCURVE",
"575 1085 OFFCURVE",
"350 985 QCURVE",
"370 1149 OFFCURVE",
"577 1413 OFFCURVE",
"682 1413 QCURVE SMOOTH",
"741 1413 LINE",
"741 1475 LINE",
"686 1499 LINE SMOOTH",
"630 1526 OFFCURVE",
"469 1577 OFFCURVE",
"417 1577 QCURVE SMOOTH",
"393 1577 OFFCURVE",
"245 1380 OFFCURVE",
"102 1067 OFFCURVE",
"102 940 QCURVE SMOOTH",
"102 299 LINE SMOOTH",
"102 176 OFFCURVE"
);
},
{
closed = 1;
nodes = (
"348 340 QCURVE SMOOTH",
"348 889 LINE",
"456 889 OFFCURVE",
"532 803 OFFCURVE",
"532 737 QCURVE SMOOTH",
"532 221 LINE",
"491 188 OFFCURVE",
"452 188 QCURVE SMOOTH",
"348 188 OFFCURVE"
);
}
);
width = 882;
}
);
note = six;
unicode = 0036;
},
{
glyphname = seven;
layers = (
{
layerId = "27714DAC-5FBA-4222-9599-87EDA629626A";
paths = (
{
closed = 1;
nodes = (
"92 174 LINE",
"92 104 OFFCURVE",
"194 0 QCURVE",
"292 0 LINE",
"737 1358 LINE",
"737 1378 OFFCURVE",
"649 1585 OFFCURVE",
"620 1624 QCURVE",
"575 1624 LINE",
"559 1556 OFFCURVE",
"434 1556 QCURVE SMOOTH",
"159 1556 LINE SMOOTH",
"122 1556 OFFCURVE",
"45 1495 OFFCURVE",
"20 1456 QCURVE",
"137 1288 LINE",
"182 1288 LINE",
"198 1356 OFFCURVE",
"323 1356 QCURVE SMOOTH",
"542 1356 LINE"
);
}
);
width = 757;
}
);
note = seven;
unicode = 0037;
},
{
glyphname = eight;
layers = (
{
layerId = "27714DAC-5FBA-4222-9599-87EDA629626A";
paths = (
{
closed = 1;
nodes = (
"221 721 QCURVE",
"102 674 OFFCURVE",
"102 637 QCURVE SMOOTH",
"102 299 LINE SMOOTH",
"102 176 OFFCURVE",
"231 0 OFFCURVE",
"331 0 OFFCURVE",
"780 174 OFFCURVE",
"780 190 QCURVE SMOOTH",
"780 717 LINE SMOOTH",
"780 756 OFFCURVE",
"704 860 OFFCURVE",
"657 881 QCURVE",
"780 918 OFFCURVE",
"780 956 QCURVE SMOOTH",
"780 1339 LINE SMOOTH",
"780 1407 OFFCURVE",
"639 1575 OFFCURVE",
"569 1575 OFFCURVE",
"102 1401 OFFCURVE",
"102 1386 QCURVE SMOOTH",
"102 952 LINE SMOOTH",
"102 768 OFFCURVE"
);
},
{
closed = 1;
nodes = (
"348 340 QCURVE SMOOTH",
"348 711 LINE",
"391 741 OFFCURVE",
"428 741 QCURVE SMOOTH",
"532 741 OFFCURVE",
"532 590 QCURVE SMOOTH",
"532 221 LINE",
"491 188 OFFCURVE",
"452 188 QCURVE SMOOTH",
"348 188 OFFCURVE"
);
},
{
closed = 1;
nodes = (
"348 1055 QCURVE SMOOTH",
"348 1354 LINE",
"391 1384 OFFCURVE",
"428 1384 QCURVE SMOOTH",
"532 1384 OFFCURVE",
"532 1233 QCURVE SMOOTH",
"532 936 LINE",
"491 903 OFFCURVE",
"452 903 QCURVE SMOOTH",
"348 903 OFFCURVE"
);
}
);
width = 882;
}
);
note = eight;
unicode = 0038;
},
{
glyphname = nine;
layers = (
{
layerId = "27714DAC-5FBA-4222-9599-87EDA629626A";
paths = (
{
closed = 1;
nodes = (
"651 1577 OFFCURVE",
"551 1577 OFFCURVE",
"102 1403 OFFCURVE",
"102 1386 QCURVE SMOOTH",
"102 809 LINE SMOOTH",
"102 741 OFFCURVE",
"243 553 OFFCURVE",
"307 553 OFFCURVE",
"532 653 QCURVE",
"532 492 OFFCURVE",
"305 164 OFFCURVE",
"200 164 QCURVE SMOOTH",
"141 164 LINE",
"141 102 LINE",
"196 78 LINE SMOOTH",
"252 51 OFFCURVE",
"413 0 OFFCURVE",
"464 0 QCURVE SMOOTH",
"489 0 OFFCURVE",
"637 197 OFFCURVE",
"780 543 OFFCURVE",
"780 698 QCURVE SMOOTH",
"780 1278 LINE SMOOTH",
"780 1401 OFFCURVE"
);
},
{
closed = 1;
nodes = (
"534 1237 QCURVE SMOOTH",
"534 750 LINE",
"426 750 OFFCURVE",
"350 836 OFFCURVE",
"350 901 QCURVE SMOOTH",
"350 1356 LINE",
"391 1389 OFFCURVE",
"430 1389 QCURVE SMOOTH",
"534 1389 OFFCURVE"
);
}
);
width = 882;
}
);
note = nine;
unicode = 0039;
},
{
glyphname = colon;
layers = (
{
layerId = "27714DAC-5FBA-4222-9599-87EDA629626A";
paths = (
{
closed = 1;
nodes = (
"149 0 OFFCURVE",
"186 0 OFFCURVE",
"350 63 OFFCURVE",
"350 70 QCURVE SMOOTH",
"350 219 LINE SMOOTH",
"350 256 OFFCURVE",
"299 326 OFFCURVE",
"272 326 OFFCURVE",
"102 262 OFFCURVE",
"102 256 QCURVE SMOOTH",
"102 131 LINE SMOOTH",
"102 72 OFFCURVE"
);
},
{
closed = 1;
nodes = (
"149 569 OFFCURVE",
"186 569 OFFCURVE",
"350 633 OFFCURVE",
"350 639 QCURVE SMOOTH",
"350 788 LINE SMOOTH",
"350 825 OFFCURVE",
"299 895 OFFCURVE",
"272 895 OFFCURVE",
"102 831 OFFCURVE",
"102 825 QCURVE SMOOTH",
"102 700 LINE SMOOTH",
"102 641 OFFCURVE"
);
}
);
width = 452;
}
);
note = colon;
unicode = 003A;
},
{
glyphname = semicolon;
layers = (
{
layerId = "27714DAC-5FBA-4222-9599-87EDA629626A";
paths = (
{
closed = 1;
nodes = (
"147 569 OFFCURVE",
"183 569 OFFCURVE",
"347 633 OFFCURVE",
"347 639 QCURVE SMOOTH",
"347 788 LINE SMOOTH",
"347 825 OFFCURVE",
"296 895 OFFCURVE",
"269 895 OFFCURVE",
"99 831 OFFCURVE",
"99 825 QCURVE SMOOTH",
"99 700 LINE SMOOTH",
"99 641 OFFCURVE"
);
},
{
closed = 1;
nodes = (
"149 0 OFFCURVE",
"149 -8 QCURVE SMOOTH",
"149 -61 OFFCURVE",
"116 -186 OFFCURVE",
"79 -201 QCURVE",
"171 -287 LINE",
"253 -240 OFFCURVE",
"351 8 OFFCURVE",
"351 70 QCURVE SMOOTH",
"351 178 LINE SMOOTH",
"351 215 OFFCURVE",
"300 285 OFFCURVE",
"274 285 OFFCURVE",
"104 221 OFFCURVE",
"104 215 QCURVE SMOOTH",
"104 131 LINE SMOOTH",
"104 78 OFFCURVE"
);
}
);
width = 450;
}
);
note = semicolon;
unicode = 003B;
},
{
glyphname = less;
layers = (
{
layerId = "27714DAC-5FBA-4222-9599-87EDA629626A";
paths = (
{
closed = 1;
nodes = (
"669 344 LINE",
"204 567 LINE",
"669 797 LINE",
"697 936 LINE",
"673 979 LINE",
"40 629 LINE",
"56 567 LINE",
"40 506 LINE",
"673 156 LINE",
"697 199 LINE"
);
}
);
width = 739;
}
);
note = less;
unicode = 003C;
},
{
glyphname = equal;
layers = (
{
layerId = "27714DAC-5FBA-4222-9599-87EDA629626A";
paths = (
{
closed = 1;
nodes = (
"61 739 LINE",
"61 694 LINE",
"596 694 LINE",
"718 807 LINE",
"718 856 LINE",
"184 856 LINE"
);
},
{
closed = 1;
nodes = (
"61 420 LINE",
"61 375 LINE",
"596 375 LINE",
"718 487 LINE",
"718 537 LINE",
"184 537 LINE"
);
}
);
width = 780;
}
);
note = equal;
unicode = 003D;
},
{
glyphname = greater;
layers = (
{
layerId = "27714DAC-5FBA-4222-9599-87EDA629626A";
paths = (
{
closed = 1;
nodes = (
"697 629 LINE",
"65 979 LINE",
"40 936 LINE",
"69 797 LINE",
"534 567 LINE",
"69 344 LINE",
"40 199 LINE",
"65 156 LINE",
"697 506 LINE",
"681 567 LINE"
);
}
);
width = 739;
}
);
note = greater;
unicode = 003E;
},
{
glyphname = question;
layers = (
{
layerId = "27714DAC-5FBA-4222-9599-87EDA629626A";
paths = (
{
closed = 1;
nodes = (
"494 1004 LINE SMOOTH",
"494 967 OFFCURVE",
"371 862 OFFCURVE",
"102 700 OFFCURVE",
"102 678 QCURVE SMOOTH",
"102 401 LINE SMOOTH",
"102 358 OFFCURVE",
"203 268 OFFCURVE",
"231 268 OFFCURVE",
"430 385 QCURVE",
"430 430 LINE",
"410 434 LINE SMOOTH",
"387 438 OFFCURVE",
"344 510 OFFCURVE",
"344 573 QCURVE SMOOTH",
"344 631 LINE",
"442 694 LINE SMOOTH",
"541 758 OFFCURVE",
"739 938 OFFCURVE",
"739 991 QCURVE SMOOTH",
"739 1346 LINE SMOOTH",
"739 1395 OFFCURVE",
"608 1577 OFFCURVE",
"532 1577 OFFCURVE",
"100 1401 OFFCURVE",
"100 1389 QCURVE SMOOTH",
"100 1155 LINE SMOOTH",
"100 1085 OFFCURVE",
"45 1024 QCURVE",
"74 995 LINE",
"287 1098 LINE SMOOTH",
"313 1110 OFFCURVE",
"346 1147 OFFCURVE",
"346 1194 QCURVE SMOOTH",
"346 1362 LINE",
"379 1403 OFFCURVE",
"459 1403 OFFCURVE",
"494 1331 OFFCURVE",
"494 1241 QCURVE SMOOTH"
);
},
{
closed = 1;
nodes = (
"147 -164 OFFCURVE",
"184 -164 OFFCURVE",
"348 -100 OFFCURVE",
"348 -94 QCURVE SMOOTH",
"348 55 LINE SMOOTH",
"348 92 OFFCURVE",
"297 162 OFFCURVE",
"270 162 OFFCURVE",
"100 98 OFFCURVE",
"100 92 QCURVE SMOOTH",
"100 -33 LINE SMOOTH",
"100 -92 OFFCURVE"
);
}
);
width = 841;
}
);
note = question;
unicode = 003F;
},
{
glyphname = at;
layers = (
{
layerId = "27714DAC-5FBA-4222-9599-87EDA629626A";
paths = (
{
closed = 1;
nodes = (
"215 80 OFFCURVE",
"215 238 QCURVE SMOOTH",
"215 991 LINE",
"305 1028 LINE SMOOTH",
"395 1067 OFFCURVE",
"661 1143 OFFCURVE",
"835 1143 OFFCURVE",
"886 1051 OFFCURVE",
"886 885 QCURVE SMOOTH",
"886 291 LINE",
"841 291 LINE",
"772 301 OFFCURVE",
"772 387 QCURVE SMOOTH",
"772 788 LINE SMOOTH",
"772 834 OFFCURVE",
"682 944 OFFCURVE",
"637 944 OFFCURVE",
"329 829 OFFCURVE",
"329 821 QCURVE SMOOTH",
"329 373 LINE SMOOTH",
"329 291 OFFCURVE",
"413 176 OFFCURVE",
"481 176 OFFCURVE",
"614 264 QCURVE",
"616 215 OFFCURVE",
"694 176 QCURVE",
"1003 238 LINE",
"1003 1001 LINE SMOOTH",
"1003 1077 OFFCURVE",
"845 1264 OFFCURVE",
"804 1264 QCURVE SMOOTH",
"745 1264 OFFCURVE",
"102 1071 OFFCURVE",
"102 1055 QCURVE SMOOTH",
"102 193 LINE SMOOTH",
"102 55 OFFCURVE",
"243 -139 OFFCURVE",
"307 -139 QCURVE",
"354 -66 OFFCURVE",
"383 -6 QCURVE",
"284 -6 OFFCURVE"
);
},
{
closed = 1;
nodes = (
"491 401 QCURVE SMOOTH",
"491 801 LINE",
"516 817 OFFCURVE",
"542 817 QCURVE SMOOTH",
"614 817 OFFCURVE",
"614 721 QCURVE SMOOTH",
"614 326 LINE",
"587 303 OFFCURVE",
"559 303 QCURVE SMOOTH",
"491 303 OFFCURVE"
);
}
);
width = 1105;
}
);
note = at;
unicode = 0040;
},
{
glyphname = A;
layers = (
{
layerId = "27714DAC-5FBA-4222-9599-87EDA629626A";
paths = (
{
closed = 1;
nodes = (
"66 53 QCURVE SMOOTH",
"25 0 OFFCURVE",
"-20 0 QCURVE",
"13 -66 LINE",
"433 111 LINE",
"433 174 LINE",
"381 174 OFFCURVE",
"349 240 OFFCURVE",
"349 315 QCURVE SMOOTH",
"349 700 LINE",
"533 700 LINE",
"533 139 LINE SMOOTH",
"533 102 OFFCURVE",
"611 18 OFFCURVE",
"656 0 QCURVE",
"879 125 LINE",
"879 170 LINE",
"781 190 OFFCURVE",
"781 303 QCURVE SMOOTH",
"781 700 LINE",
"881 752 LINE",
"881 801 LINE",
"781 801 LINE",
"781 1337 LINE SMOOTH",
"781 1405 OFFCURVE",
"639 1573 OFFCURVE",
"570 1573 OFFCURVE",
"103 1399 OFFCURVE",
"103 1384 QCURVE SMOOTH",
"103 209 LINE SMOOTH",
"103 104 OFFCURVE"
);
},
{
closed = 1;
nodes = (
"533 1231 QCURVE SMOOTH",
"533 801 LINE",
"469 801 LINE",
"349 748 LINE",
"349 1352 LINE",
"388 1382 OFFCURVE",
"429 1382 QCURVE SMOOTH",
"533 1382 OFFCURVE"
);
}
);
width = 882;
}
);
note = A;
unicode = 0041;
},
{
glyphname = B;
layers = (
{
layerId = "27714DAC-5FBA-4222-9599-87EDA629626A";
paths = (
{
closed = 1;
nodes = (
"270 1554 OFFCURVE",
"225 1573 QCURVE",
"18 1456 LINE",
"18 1411 LINE",
"102 1393 OFFCURVE",
"102 1282 QCURVE SMOOTH",
"102 299 LINE SMOOTH",
"102 176 OFFCURVE",
"231 0 OFFCURVE",
"331 0 OFFCURVE",
"780 174 OFFCURVE",
"780 190 QCURVE SMOOTH",
"780 645 LINE SMOOTH",
"780 709 OFFCURVE",
"653 866 OFFCURVE",
"610 879 QCURVE",
"778 950 OFFCURVE",
"778 997 QCURVE SMOOTH",
"778 1341 LINE SMOOTH",
"778 1395 OFFCURVE",
"696 1507 OFFCURVE",
"614 1571 OFFCURVE",
"579 1571 OFFCURVE",
"348 1434 QCURVE",
"348 1470 OFFCURVE"
);
},
{
closed = 1;
nodes = (
"348 340 QCURVE SMOOTH",
"348 659 LINE",
"387 690 OFFCURVE",
"428 690 QCURVE SMOOTH",
"532 690 OFFCURVE",
"532 539 QCURVE SMOOTH",
"532 221 LINE",
"491 188 OFFCURVE",
"452 188 QCURVE SMOOTH",
"348 188 OFFCURVE"
);
},
{
closed = 1;
nodes = (
"532 1100 LINE SMOOTH",
"532 930 OFFCURVE",
"348 879 QCURVE",
"348 1303 LINE",
"397 1364 OFFCURVE",
"485 1364 OFFCURVE",
"532 1284 OFFCURVE",
"532 1229 QCURVE SMOOTH"
);
}
);
width = 862;
}
);
note = B;
unicode = 0042;
},
{
glyphname = C;
layers = (
{
layerId = "27714DAC-5FBA-4222-9599-87EDA629626A";
paths = (
{
closed = 1;
nodes = (
"508 1044 OFFCURVE",
"538 1044 QCURVE SMOOTH",
"546 1044 OFFCURVE",
"761 1149 OFFCURVE",
"807 1169 QCURVE",
"807 1210 LINE",
"741 1210 OFFCURVE",
"694 1290 OFFCURVE",
"651 1458 OFFCURVE",
"618 1577 OFFCURVE",
"606 1577 QCURVE SMOOTH",
"571 1577 OFFCURVE",
"102 1403 OFFCURVE",
"102 1389 QCURVE SMOOTH",
"102 367 LINE SMOOTH",
"102 236 OFFCURVE",
"286 0 OFFCURVE",
"389 0 QCURVE SMOOTH",
"419 0 OFFCURVE",
"702 113 OFFCURVE",
"712 113 QCURVE",
"712 172 LINE",
"471 172 OFFCURVE",
"403 270 QCURVE SMOOTH",
"368 322 OFFCURVE",
"348 426 OFFCURVE",
"348 512 QCURVE SMOOTH",
"348 1358 LINE",
"364 1378 OFFCURVE",
"385 1378 QCURVE SMOOTH",
"413 1378 OFFCURVE"
);
}
);
width = 827;
}
);
note = C;
unicode = 0043;
},
{
glyphname = D;
layers = (
{
layerId = "27714DAC-5FBA-4222-9599-87EDA629626A";
paths = (
{
closed = 1;
nodes = (
"639 1577 OFFCURVE",
"602 1577 QCURVE",
"348 1434 LINE",
"348 1470 OFFCURVE",
"270 1554 OFFCURVE",
"225 1573 QCURVE",
"18 1456 LINE",
"18 1411 LINE",
"102 1393 OFFCURVE",
"102 1282 QCURVE SMOOTH",
"102 299 LINE SMOOTH",
"102 176 OFFCURVE",
"231 0 OFFCURVE",
"331 0 OFFCURVE",
"780 174 OFFCURVE",
"780 190 QCURVE SMOOTH",
"780 1341 LINE SMOOTH",
"780 1409 OFFCURVE"
);
},
{
closed = 1;
nodes = (
"348 340 QCURVE SMOOTH",
"348 1303 LINE",
"387 1333 OFFCURVE",
"428 1333 QCURVE SMOOTH",
"532 1333 OFFCURVE",
"532 1188 QCURVE SMOOTH",
"532 221 LINE",
"491 188 OFFCURVE",
"452 188 QCURVE SMOOTH",
"348 188 OFFCURVE"
);
}
);
width = 882;
}
);
note = D;
unicode = 0044;
},
{
glyphname = E;
layers = (
{
layerId = "27714DAC-5FBA-4222-9599-87EDA629626A";
paths = (
{
closed = 1;
nodes = (
"508 1044 OFFCURVE",
"538 1044 QCURVE SMOOTH",
"546 1044 OFFCURVE",
"761 1149 OFFCURVE",
"807 1169 QCURVE",
"807 1210 LINE",
"741 1210 OFFCURVE",
"694 1290 OFFCURVE",
"651 1458 OFFCURVE",
"618 1577 OFFCURVE",
"606 1577 QCURVE SMOOTH",
"571 1577 OFFCURVE",
"102 1403 OFFCURVE",
"102 1389 QCURVE SMOOTH",
"102 311 LINE SMOOTH",
"102 197 OFFCURVE",
"325 0 OFFCURVE",
"389 0 QCURVE SMOOTH",
"419 0 OFFCURVE",
"702 113 OFFCURVE",
"712 113 QCURVE",
"712 172 LINE",
"620 172 OFFCURVE",
"460 188 OFFCURVE",
"393 246 QCURVE SMOOTH",
"348 285 OFFCURVE",
"348 512 QCURVE SMOOTH",
"348 717 LINE",
"534 717 LINE",
"637 768 LINE",
"637 817 LINE",
"348 817 LINE",
"348 1358 LINE",
"364 1378 OFFCURVE",
"385 1378 QCURVE SMOOTH",
"413 1378 OFFCURVE"
);
}
);
width = 827;
}
);
note = E;
unicode = 0045;
},
{
glyphname = F;
layers = (
{
layerId = "27714DAC-5FBA-4222-9599-87EDA629626A";
paths = (
{
closed = 1;
nodes = (
"508 1044 OFFCURVE",
"539 1044 QCURVE SMOOTH",
"547 1044 OFFCURVE",
"762 1149 OFFCURVE",
"807 1169 QCURVE",
"807 1210 LINE",
"742 1210 OFFCURVE",
"695 1290 OFFCURVE",
"652 1458 OFFCURVE",
"619 1577 OFFCURVE",
"607 1577 QCURVE SMOOTH",
"572 1577 OFFCURVE",
"103 1403 OFFCURVE",
"103 1389 QCURVE SMOOTH",
"103 209 LINE SMOOTH",
"103 104 OFFCURVE",
"66 53 QCURVE SMOOTH",
"25 0 OFFCURVE",
"-20 0 QCURVE",
"13 -66 LINE",
"433 111 LINE",
"433 174 LINE",
"381 174 OFFCURVE",
"349 240 OFFCURVE",
"349 315 QCURVE SMOOTH",
"349 700 LINE",
"515 700 LINE",
"617 752 LINE",
"617 801 LINE",
"349 801 LINE",
"349 1358 LINE",
"365 1378 OFFCURVE",
"386 1378 QCURVE SMOOTH",
"414 1378 OFFCURVE"
);
}
);
width = 718;
}
);
note = F;
unicode = 0046;
},
{
glyphname = G;
layers = (
{
layerId = "27714DAC-5FBA-4222-9599-87EDA629626A";
paths = (
{
closed = 1;
nodes = (
"348 340 QCURVE SMOOTH",
"348 1358 LINE",
"364 1378 OFFCURVE",
"385 1378 QCURVE SMOOTH",
"413 1378 OFFCURVE",
"508 1044 OFFCURVE",
"538 1044 QCURVE SMOOTH",
"546 1044 OFFCURVE",
"761 1149 OFFCURVE",
"807 1169 QCURVE",
"807 1210 LINE",
"741 1210 OFFCURVE",
"694 1290 OFFCURVE",
"651 1458 OFFCURVE",
"618 1577 OFFCURVE",
"606 1577 QCURVE SMOOTH",
"571 1577 OFFCURVE",
"102 1403 OFFCURVE",
"102 1389 QCURVE SMOOTH",
"102 299 LINE SMOOTH",
"102 176 OFFCURVE",
"231 0 OFFCURVE",
"331 0 OFFCURVE",
"780 174 OFFCURVE",
"780 190 QCURVE SMOOTH",
"780 649 LINE SMOOTH",
"780 686 OFFCURVE",
"698 770 OFFCURVE",
"655 788 QCURVE",
"448 672 LINE",
"448 627 LINE",
"532 610 OFFCURVE",
"532 485 QCURVE SMOOTH",
"532 221 LINE",
"491 188 OFFCURVE",
"452 188 QCURVE SMOOTH",
"348 188 OFFCURVE"
);
}
);
width = 862;
}
);
note = G;
unicode = 0047;
},
{
glyphname = H;
layers = (
{
layerId = "27714DAC-5FBA-4222-9599-87EDA629626A";
paths = (
{
closed = 1;
nodes = (
"349 782 LINE",
"349 1438 LINE SMOOTH",
"349 1475 OFFCURVE",
"271 1559 OFFCURVE",
"226 1577 QCURVE",
"19 1460 LINE",
"19 1415 LINE",
"103 1399 OFFCURVE",
"103 1274 QCURVE SMOOTH",
"103 209 LINE SMOOTH",
"103 104 OFFCURVE",
"66 53 QCURVE SMOOTH",
"25 0 OFFCURVE",
"-20 0 QCURVE",
"13 -66 LINE",
"433 111 LINE",
"433 174 LINE",
"381 174 OFFCURVE",
"349 240 OFFCURVE",
"349 315 QCURVE SMOOTH",
"349 737 LINE",
"533 737 LINE",
"533 139 LINE SMOOTH",
"533 102 OFFCURVE",
"611 18 OFFCURVE",
"656 0 QCURVE",
"863 117 LINE",
"863 162 LINE",
"779 178 OFFCURVE",
"779 303 QCURVE SMOOTH",
"779 737 LINE",
"881 788 LINE",
"881 838 LINE",
"779 838 LINE",
"779 1305 LINE SMOOTH",
"779 1409 OFFCURVE",
"816 1460 QCURVE SMOOTH",
"857 1513 OFFCURVE",
"902 1513 QCURVE",
"869 1579 LINE",
"449 1403 LINE",
"449 1339 LINE",
"500 1339 OFFCURVE",
"533 1274 OFFCURVE",
"533 1198 QCURVE SMOOTH",
"533 838 LINE",
"451 838 LINE"
);
}
);
width = 880;
}
);
note = H;
unicode = 0048;
},
{
glyphname = I;
layers = (
{
layerId = "27714DAC-5FBA-4222-9599-87EDA629626A";
paths = (
{
closed = 1;
nodes = (
"60 113 QCURVE SMOOTH",
"43 94 OFFCURVE",
"-4 66 OFFCURVE",
"-20 66 QCURVE",
"13 0 LINE",
"15 0 OFFCURVE",
"431 182 QCURVE",
"431 240 LINE",
"386 240 OFFCURVE",
"349 287 OFFCURVE",
"349 342 QCURVE SMOOTH",
"349 1305 LINE SMOOTH",
"349 1409 OFFCURVE",
"386 1460 QCURVE SMOOTH",
"426 1513 OFFCURVE",
"472 1513 QCURVE",
"439 1579 LINE",
"19 1403 LINE",
"19 1339 LINE",
"70 1339 OFFCURVE",
"103 1274 OFFCURVE",
"103 1198 QCURVE SMOOTH",
"103 262 LINE SMOOTH",
"103 162 OFFCURVE"
);
}
);
width = 450;
}
);
note = I;
unicode = 0049;
},
{
glyphname = J;
layers = (
{
layerId = "27714DAC-5FBA-4222-9599-87EDA629626A";
paths = (
{
closed = 1;
nodes = (
"47 -184 OFFCURVE",
"-24 -184 QCURVE SMOOTH",
"-94 -184 LINE",
"-94 -246 LINE",
"-39 -276 LINE SMOOTH",
"17 -307 OFFCURVE",
"178 -369 OFFCURVE",
"230 -369 QCURVE SMOOTH",
"258 -369 OFFCURVE",
"312 -219 OFFCURVE",
"348 57 OFFCURVE",
"348 217 QCURVE SMOOTH",
"348 1290 LINE SMOOTH",
"348 1372 OFFCURVE",
"393 1485 OFFCURVE",
"422 1507 OFFCURVE",
"430 1511 QCURVE",
"398 1577 LINE",
"189 1454 OFFCURVE",
"-78 1315 QCURVE",
"-78 1257 LINE",
"103 1257 OFFCURVE",
"103 1176 QCURVE SMOOTH",
"103 231 LINE SMOOTH",
"103 4 OFFCURVE"
);
}
);
width = 450;
}
);
note = J;
unicode = 004A;
},
{
glyphname = K;
layers = (
{
layerId = "27714DAC-5FBA-4222-9599-87EDA629626A";
paths = (
{
closed = 1;
nodes = (
"779 1409 OFFCURVE",
"816 1460 QCURVE SMOOTH",
"857 1513 OFFCURVE",
"902 1513 QCURVE",
"869 1579 LINE",
"449 1403 LINE",
"449 1339 LINE",
"500 1339 OFFCURVE",
"533 1274 OFFCURVE",
"533 1198 QCURVE SMOOTH",
"533 932 LINE SMOOTH",
"533 895 OFFCURVE",
"402 827 OFFCURVE",
"349 827 QCURVE",
"349 1436 LINE SMOOTH",
"349 1470 OFFCURVE",
"271 1554 OFFCURVE",
"226 1573 QCURVE",
"19 1456 LINE",
"19 1411 LINE",
"103 1395 OFFCURVE",
"103 1270 QCURVE SMOOTH",
"103 209 LINE SMOOTH",
"103 104 OFFCURVE",
"66 53 QCURVE SMOOTH",
"25 0 OFFCURVE",
"-20 0 QCURVE",
"13 -66 LINE",
"433 111 LINE",
"433 174 LINE",
"381 174 OFFCURVE",
"349 240 OFFCURVE",
"349 315 QCURVE SMOOTH",
"349 731 LINE",
"359 735 LINE",
"359 627 OFFCURVE",
"603 0 OFFCURVE",
"674 0 QCURVE SMOOTH",
"725 0 OFFCURVE",
"916 121 QCURVE",
"916 182 LINE",
"846 182 OFFCURVE",
"707 346 OFFCURVE",
"615 563 OFFCURVE",
"558 762 OFFCURVE",
"558 805 QCURVE",
"783 895 OFFCURVE",
"779 909 QCURVE",
"779 1305 LINE SMOOTH"
);
}
);
width = 872;
}
);
note = K;
unicode = 004B;
},
{
glyphname = L;
layers = (
{
layerId = "27714DAC-5FBA-4222-9599-87EDA629626A";
paths = (
{
closed = 1;
nodes = (
"233 68 OFFCURVE",
"364 0 OFFCURVE",
"440 0 OFFCURVE",
"712 115 QCURVE",
"712 172 LINE",
"581 172 OFFCURVE",
"473 197 QCURVE SMOOTH",
"426 209 OFFCURVE",
"376 270 QCURVE SMOOTH",
"348 303 OFFCURVE",
"348 467 QCURVE SMOOTH",
"348 1305 LINE SMOOTH",
"348 1409 OFFCURVE",
"385 1460 QCURVE SMOOTH",
"426 1513 OFFCURVE",
"471 1513 QCURVE",
"438 1579 LINE",
"18 1403 LINE",
"18 1339 LINE",
"69 1339 OFFCURVE",
"102 1274 OFFCURVE",
"102 1198 QCURVE SMOOTH",
"102 309 LINE SMOOTH",
"102 219 OFFCURVE"
);
}
);
width = 753;
}
);
note = L;
unicode = 004C;
},
{
glyphname = M;
layers = (
{
layerId = "27714DAC-5FBA-4222-9599-87EDA629626A";
paths = (
{
closed = 1;
nodes = (
"66 53 QCURVE SMOOTH",
"25 0 OFFCURVE",
"-20 0 QCURVE",
"13 -66 LINE",
"433 111 LINE",
"433 174 LINE",
"381 174 OFFCURVE",
"349 240 OFFCURVE",
"349 315 QCURVE SMOOTH",
"349 1366 LINE",
"457 1366 OFFCURVE",
"533 1272 OFFCURVE",
"533 1143 QCURVE SMOOTH",
"533 139 LINE SMOOTH",
"533 102 OFFCURVE",
"611 18 OFFCURVE",
"656 0 QCURVE",
"879 125 LINE",
"879 170 LINE",
"779 190 OFFCURVE",
"779 303 QCURVE SMOOTH",
"779 1366 LINE",
"883 1362 OFFCURVE",
"963 1266 OFFCURVE",
"963 1143 QCURVE SMOOTH",
"963 139 LINE SMOOTH",
"963 102 OFFCURVE",
"1041 18 OFFCURVE",
"1086 0 QCURVE",
"1309 125 LINE",
"1309 170 LINE",
"1209 190 OFFCURVE",
"1209 303 QCURVE SMOOTH",
"1209 1333 LINE SMOOTH",
"1209 1405 OFFCURVE",
"1094 1577 OFFCURVE",
"1029 1577 QCURVE SMOOTH",
"996 1577 OFFCURVE",
"836 1495 QCURVE SMOOTH",
"756 1454 OFFCURVE",
"752 1452 QCURVE",
"730 1503 OFFCURVE",
"642 1577 OFFCURVE",
"570 1577 OFFCURVE",
"418 1491 QCURVE SMOOTH",
"361 1458 OFFCURVE",
"349 1452 QCURVE",
"349 1495 OFFCURVE",
"281 1561 OFFCURVE",
"240 1575 OFFCURVE",
"226 1579 QCURVE",
"17 1456 OFFCURVE",
"3 1454 QCURVE",
"3 1409 LINE",
"46 1409 OFFCURVE",
"103 1311 OFFCURVE",
"103 1243 QCURVE SMOOTH",
"103 209 LINE SMOOTH",
"103 104 OFFCURVE"
);
}
);
width = 1310;
}
);
note = M;
unicode = 004D;
},
{
glyphname = N;
layers = (
{
layerId = "27714DAC-5FBA-4222-9599-87EDA629626A";
paths = (
{
closed = 1;
nodes = (
"60 49 QCURVE SMOOTH",
"21 0 OFFCURVE",
"-20 0 QCURVE",
"13 -66 LINE",
"433 111 LINE",
"433 174 LINE",
"390 174 OFFCURVE",
"349 233 OFFCURVE",
"349 315 QCURVE SMOOTH",
"349 1366 LINE",
"457 1366 OFFCURVE",
"533 1272 OFFCURVE",
"533 1143 QCURVE SMOOTH",
"533 139 LINE SMOOTH",
"533 102 OFFCURVE",
"611 18 OFFCURVE",
"656 0 QCURVE",
"879 125 LINE",
"879 170 LINE",
"779 190 OFFCURVE",
"779 303 QCURVE SMOOTH",
"779 1333 LINE SMOOTH",
"779 1405 OFFCURVE",
"664 1577 OFFCURVE",
"598 1577 QCURVE SMOOTH",
"570 1577 OFFCURVE",
"418 1491 QCURVE SMOOTH",
"361 1458 OFFCURVE",
"349 1452 QCURVE",
"349 1495 OFFCURVE",
"281 1561 OFFCURVE",
"240 1575 OFFCURVE",
"226 1579 QCURVE",
"17 1456 OFFCURVE",
"3 1454 QCURVE",
"3 1409 LINE",
"46 1409 OFFCURVE",
"103 1311 OFFCURVE",
"103 1243 QCURVE SMOOTH",
"103 233 LINE SMOOTH",
"103 106 OFFCURVE"
);
}
);
width = 880;
}
);
note = N;
unicode = 004E;
},
{
glyphname = O;
layers = (
{
layerId = "27714DAC-5FBA-4222-9599-87EDA629626A";
paths = (
{
closed = 1;
nodes = (
"231 0 OFFCURVE",
"331 0 OFFCURVE",
"780 174 OFFCURVE",
"780 190 QCURVE SMOOTH",
"780 1341 LINE SMOOTH",
"780 1409 OFFCURVE",
"639 1577 OFFCURVE",
"569 1577 OFFCURVE",
"102 1403 OFFCURVE",
"102 1389 QCURVE SMOOTH",
"102 299 LINE SMOOTH",
"102 176 OFFCURVE"
);
},
{
closed = 1;
nodes = (
"348 340 QCURVE SMOOTH",
"348 1356 LINE",
"387 1386 OFFCURVE",
"428 1386 QCURVE SMOOTH",
"532 1386 OFFCURVE",
"532 1235 QCURVE SMOOTH",
"532 221 LINE",
"491 188 OFFCURVE",
"452 188 QCURVE SMOOTH",
"348 188 OFFCURVE"
);
}
);
width = 882;
}
);
note = O;
unicode = 004F;
},
{
glyphname = P;
layers = (
{
layerId = "27714DAC-5FBA-4222-9599-87EDA629626A";
paths = (
{
closed = 1;
nodes = (
"267 1556 OFFCURVE",
"226 1573 QCURVE",
"19 1456 LINE",
"19 1411 LINE",
"103 1395 OFFCURVE",
"103 1270 QCURVE SMOOTH",
"103 209 LINE SMOOTH",
"103 104 OFFCURVE",
"66 53 QCURVE SMOOTH",
"25 0 OFFCURVE",
"-20 0 QCURVE",
"13 -66 LINE",
"433 111 LINE",
"433 174 LINE",
"381 174 OFFCURVE",
"349 240 OFFCURVE",
"349 315 QCURVE SMOOTH",
"349 522 LINE",
"455 555 OFFCURVE",
"781 686 OFFCURVE",
"781 700 QCURVE SMOOTH",
"781 1337 LINE SMOOTH",
"781 1405 OFFCURVE",
"639 1573 OFFCURVE",
"574 1573 OFFCURVE",
"349 1436 QCURVE",
"349 1470 OFFCURVE"
);
},
{
closed = 1;
nodes = (
"533 1225 QCURVE SMOOTH",
"533 723 LINE SMOOTH",
"533 686 OFFCURVE",
"402 618 OFFCURVE",
"349 618 QCURVE",
"349 1346 LINE",
"392 1376 OFFCURVE",
"429 1376 QCURVE SMOOTH",
"533 1376 OFFCURVE"
);
}
);
width = 862;
}
);
note = P;
unicode = 0050;
},
{
glyphname = Q;
layers = (
{
layerId = "27714DAC-5FBA-4222-9599-87EDA629626A";
paths = (
{
closed = 1;
nodes = (
"231 0 OFFCURVE",
"286 0 QCURVE SMOOTH",
"315 0 OFFCURVE",
"407 33 QCURVE",
"571 -348 OFFCURVE",
"653 -348 QCURVE SMOOTH",
"712 -348 OFFCURVE",
"895 -225 QCURVE",
"895 -166 LINE",
"743 -166 OFFCURVE",
"614 109 QCURVE",
"780 174 OFFCURVE",
"780 190 QCURVE SMOOTH",
"780 1341 LINE SMOOTH",
"780 1409 OFFCURVE",
"639 1577 OFFCURVE",
"569 1577 OFFCURVE",
"102 1403 OFFCURVE",
"102 1389 QCURVE SMOOTH",
"102 299 LINE SMOOTH",
"102 176 OFFCURVE"
);
},
{
closed = 1;
nodes = (
"348 340 QCURVE SMOOTH",
"348 1356 LINE",
"387 1386 OFFCURVE",
"428 1386 QCURVE SMOOTH",
"532 1386 OFFCURVE",
"532 1235 QCURVE SMOOTH",
"532 221 LINE",
"491 188 OFFCURVE",
"452 188 QCURVE SMOOTH",
"348 188 OFFCURVE"
);
}
);
width = 882;
}
);
note = Q;
unicode = 0051;
},
{
glyphname = R;
layers = (
{
layerId = "27714DAC-5FBA-4222-9599-87EDA629626A";
paths = (
{
closed = 1;
nodes = (
"533 1225 QCURVE SMOOTH",
"533 784 LINE SMOOTH",
"533 748 OFFCURVE",
"402 680 OFFCURVE",
"349 680 QCURVE",
"349 1346 LINE",
"392 1376 OFFCURVE",
"429 1376 QCURVE SMOOTH",
"533 1376 OFFCURVE"
);
},
{
closed = 1;
nodes = (
"66 53 QCURVE SMOOTH",
"25 0 OFFCURVE",
"-20 0 QCURVE",
"13 -66 LINE",
"433 111 LINE",
"433 174 LINE",
"381 174 OFFCURVE",
"349 240 OFFCURVE",
"349 315 QCURVE SMOOTH",
"349 584 LINE",
"371 590 LINE",
"379 508 OFFCURVE",
"586 0 OFFCURVE",
"654 0 QCURVE SMOOTH",
"705 0 OFFCURVE",
"895 121 QCURVE",
"895 182 LINE",
"836 182 OFFCURVE",
"779 229 QCURVE SMOOTH",
"652 340 OFFCURVE",
"558 657 QCURVE",
"781 745 OFFCURVE",
"781 762 QCURVE SMOOTH",
"781 1337 LINE SMOOTH",
"781 1405 OFFCURVE",
"639 1573 OFFCURVE",
"574 1573 OFFCURVE",
"349 1436 QCURVE",
"349 1470 OFFCURVE",
"267 1556 OFFCURVE",
"226 1573 QCURVE",
"19 1456 LINE",
"19 1411 LINE",
"103 1395 OFFCURVE",
"103 1270 QCURVE SMOOTH",
"103 209 LINE SMOOTH",
"103 104 OFFCURVE"
);
}
);
width = 884;
}
);
note = R;
unicode = 0052;
},
{
glyphname = S;
layers = (
{
layerId = "27714DAC-5FBA-4222-9599-87EDA629626A";
paths = (
{
closed = 1;
nodes = (
"466 752 OFFCURVE",
"483 752 QCURVE SMOOTH",
"534 752 OFFCURVE",
"534 659 QCURVE SMOOTH",
"534 199 LINE SMOOTH",
"534 170 OFFCURVE",
"497 137 OFFCURVE",
"476 137 QCURVE SMOOTH",
"448 137 OFFCURVE",
"335 420 OFFCURVE",
"304 420 QCURVE SMOOTH",
"294 420 OFFCURVE",
"163 348 QCURVE SMOOTH",
"110 319 OFFCURVE",
"77 305 QCURVE",
"77 264 LINE",
"118 264 OFFCURVE",
"165 178 OFFCURVE",
"224 49 OFFCURVE",
"261 -20 OFFCURVE",
"276 -20 QCURVE SMOOTH",
"310 -20 OFFCURVE",
"779 170 OFFCURVE",
"779 209 QCURVE SMOOTH",
"779 645 LINE SMOOTH",
"779 768 OFFCURVE",
"704 926 OFFCURVE",
"655 926 QCURVE SMOOTH",
"630 926 OFFCURVE",
"392 819 OFFCURVE",
"384 819 QCURVE SMOOTH",
"347 819 OFFCURVE",
"347 901 QCURVE SMOOTH",
"347 1358 LINE SMOOTH",
"347 1419 OFFCURVE",
"384 1419 QCURVE SMOOTH",
"413 1419 OFFCURVE",
"505 1178 OFFCURVE",
"536 1178 QCURVE SMOOTH",
"546 1178 OFFCURVE",
"675 1249 QCURVE SMOOTH",
"730 1278 OFFCURVE",
"763 1292 QCURVE",
"763 1333 LINE",
"722 1333 OFFCURVE",
"695 1382 QCURVE SMOOTH",
"683 1405 OFFCURVE",
"644 1475 OFFCURVE",
"634 1495 QCURVE SMOOTH",
"589 1577 OFFCURVE",
"564 1577 QCURVE SMOOTH",
"532 1577 OFFCURVE",
"102 1386 OFFCURVE",
"102 1348 QCURVE SMOOTH",
"102 922 LINE SMOOTH",
"102 809 OFFCURVE",
"175 653 OFFCURVE",
"227 653 QCURVE SMOOTH",
"241 653 OFFCURVE"
);
}
);
width = 870;
}
);
note = S;
unicode = 0053;
},
{
glyphname = T;
layers = (
{
layerId = "27714DAC-5FBA-4222-9599-87EDA629626A";
paths = (
{
closed = 1;
nodes = (
"214 53 QCURVE SMOOTH",
"173 0 OFFCURVE",
"128 0 QCURVE",
"161 -66 LINE",
"580 111 LINE",
"580 174 LINE",
"529 174 OFFCURVE",
"496 240 OFFCURVE",
"496 315 QCURVE SMOOTH",
"496 1356 LINE",
"726 1356 LINE SMOOTH",
"763 1356 OFFCURVE",
"840 1417 OFFCURVE",
"865 1456 QCURVE",
"748 1624 LINE",
"703 1624 LINE",
"687 1556 OFFCURVE",
"562 1556 QCURVE SMOOTH",
"21 1556 LINE SMOOTH",
"-16 1556 OFFCURVE",
"-93 1495 OFFCURVE",
"-118 1456 QCURVE",
"-1 1288 LINE",
"44 1288 LINE",
"60 1356 OFFCURVE",
"185 1356 QCURVE SMOOTH",
"314 1356 LINE",
"251 1294 LINE",
"251 209 LINE SMOOTH",
"251 104 OFFCURVE"
);
}
);
width = 747;
}
);
note = T;
unicode = 0054;
},
{
glyphname = U;
layers = (
{
layerId = "27714DAC-5FBA-4222-9599-87EDA629626A";
paths = (
{
closed = 1;
nodes = (
"348 307 OFFCURVE",
"348 436 QCURVE SMOOTH",
"348 1440 LINE SMOOTH",
"348 1477 OFFCURVE",
"270 1561 OFFCURVE",
"225 1579 QCURVE",
"2 1454 LINE",
"2 1409 LINE",
"102 1389 OFFCURVE",
"102 1276 QCURVE SMOOTH",
"102 246 LINE SMOOTH",
"102 172 OFFCURVE",
"217 2 OFFCURVE",
"283 2 QCURVE SMOOTH",
"311 2 OFFCURVE",
"463 88 QCURVE SMOOTH",
"520 121 OFFCURVE",
"532 127 QCURVE",
"532 84 OFFCURVE",
"600 18 OFFCURVE",
"641 4 OFFCURVE",
"655 0 QCURVE",
"864 123 OFFCURVE",
"879 125 QCURVE",
"879 170 LINE",
"836 170 OFFCURVE",
"778 268 OFFCURVE",
"778 336 QCURVE SMOOTH",
"778 1305 LINE SMOOTH",
"778 1409 OFFCURVE",
"815 1460 QCURVE SMOOTH",
"856 1513 OFFCURVE",
"901 1513 QCURVE",
"868 1579 LINE",
"448 1403 LINE",
"448 1339 LINE",
"500 1339 OFFCURVE",
"532 1274 OFFCURVE",
"532 1198 QCURVE SMOOTH",
"532 213 LINE",
"424 213 OFFCURVE"
);
}
);
width = 880;
}
);
note = U;
unicode = 0055;
},
{
glyphname = V;
layers = (
{
layerId = "27714DAC-5FBA-4222-9599-87EDA629626A";
paths = (
{
closed = 1;
nodes = (
"348 1440 LINE SMOOTH",
"348 1477 OFFCURVE",
"270 1561 OFFCURVE",
"225 1579 QCURVE",
"2 1454 LINE",
"2 1409 LINE",
"102 1389 OFFCURVE",
"102 1276 QCURVE SMOOTH",
"102 266 LINE SMOOTH",
"102 193 OFFCURVE",
"215 0 OFFCURVE",
"342 0 OFFCURVE",
"780 172 OFFCURVE",
"780 190 QCURVE SMOOTH",
"780 1305 LINE SMOOTH",
"780 1409 OFFCURVE",
"819 1460 QCURVE SMOOTH",
"858 1513 OFFCURVE",
"903 1513 QCURVE",
"870 1579 LINE",
"451 1403 LINE",
"451 1339 LINE",
"502 1339 OFFCURVE",
"532 1274 OFFCURVE",
"532 1198 QCURVE SMOOTH",
"532 184 LINE",
"471 154 OFFCURVE",
"405 154 OFFCURVE",
"348 223 OFFCURVE",
"348 274 QCURVE SMOOTH"
);
}
);
width = 882;
}
);
note = V;
unicode = 0056;
},
{
glyphname = W;
layers = (
{
layerId = "27714DAC-5FBA-4222-9599-87EDA629626A";
paths = (
{
closed = 1;
nodes = (
"500 205 OFFCURVE",
"469 205 QCURVE SMOOTH",
"348 205 OFFCURVE",
"348 399 QCURVE SMOOTH",
"348 1442 LINE SMOOTH",
"348 1477 OFFCURVE",
"270 1561 OFFCURVE",
"225 1579 QCURVE",
"2 1454 LINE",
"2 1409 LINE",
"102 1389 OFFCURVE",
"102 1276 QCURVE SMOOTH",
"102 248 LINE SMOOTH",
"102 174 OFFCURVE",
"215 0 OFFCURVE",
"334 0 OFFCURVE",
"559 127 QCURVE",
"623 0 OFFCURVE",
"719 0 QCURVE SMOOTH",
"772 0 OFFCURVE",
"1210 172 OFFCURVE",
"1210 190 QCURVE SMOOTH",
"1210 1276 LINE SMOOTH",
"1210 1434 OFFCURVE",
"1116 1528 QCURVE SMOOTH",
"1067 1577 OFFCURVE",
"1026 1577 QCURVE SMOOTH",
"1024 1577 OFFCURVE",
"782 1456 OFFCURVE",
"778 1452 QCURVE",
"768 1497 OFFCURVE",
"674 1577 OFFCURVE",
"655 1577 QCURVE SMOOTH",
"653 1577 OFFCURVE",
"432 1454 QCURVE",
"432 1409 LINE",
"532 1389 OFFCURVE",
"532 1276 QCURVE SMOOTH",
"532 217 LINE"
);
},
{
closed = 1;
nodes = (
"780 1382 LINE",
"876 1380 OFFCURVE",
"963 1309 OFFCURVE",
"963 1202 QCURVE SMOOTH",
"963 219 LINE",
"922 201 OFFCURVE",
"831 201 OFFCURVE",
"780 313 OFFCURVE",
"780 379 QCURVE SMOOTH"
);
}
);
width = 1312;
}
);
note = W;
unicode = 0057;
},
{
glyphname = X;
layers = (
{
layerId = "27714DAC-5FBA-4222-9599-87EDA629626A";
paths = (
{
closed = 1;
nodes = (
"111 1405 OFFCURVE",
"151 1374 OFFCURVE",
"162 1343 QCURVE SMOOTH",
"338 813 LINE",
"260 784 OFFCURVE",
"92 705 OFFCURVE",
"92 688 QCURVE SMOOTH",
"92 133 LINE SMOOTH",
"92 92 OFFCURVE",
"199 0 OFFCURVE",
"215 0 QCURVE",
"412 117 LINE",
"412 162 LINE",
"389 168 LINE SMOOTH",
"369 172 OFFCURVE",
"328 240 OFFCURVE",
"328 299 QCURVE SMOOTH",
"328 696 LINE",
"371 717 LINE",
"608 0 LINE",
"698 0 LINE",
"922 125 LINE",
"922 170 LINE",
"862 170 OFFCURVE",
"803 184 OFFCURVE",
"793 213 QCURVE SMOOTH",
"592 817 LINE",
"842 907 OFFCURVE",
"842 942 QCURVE SMOOTH",
"842 1446 LINE SMOOTH",
"842 1487 OFFCURVE",
"735 1579 OFFCURVE",
"719 1579 QCURVE",
"522 1462 LINE",
"522 1417 LINE",
"545 1413 LINE",
"565 1407 OFFCURVE",
"606 1339 OFFCURVE",
"606 1280 QCURVE SMOOTH",
"606 934 LINE",
"561 913 LINE",
"338 1577 LINE",
"258 1577 LINE",
"45 1452 LINE",
"45 1409 LINE",
"78 1409 OFFCURVE"
);
}
);
width = 933;
}
);
note = X;
unicode = 0058;
},
{
glyphname = Y;
layers = (
{
layerId = "27714DAC-5FBA-4222-9599-87EDA629626A";
paths = (
{
closed = 1;
nodes = (
"-11 1405 OFFCURVE",
"29 1374 OFFCURVE",
"40 1343 QCURVE SMOOTH",
"245 729 LINE",
"245 297 LINE SMOOTH",
"245 219 OFFCURVE",
"230 164 QCURVE SMOOTH",
"210 86 OFFCURVE",
"122 66 QCURVE",
"154 0 LINE",
"572 182 LINE",
"572 240 LINE",
"521 240 OFFCURVE",
"490 291 OFFCURVE",
"490 358 QCURVE SMOOTH",
"490 743 LINE",
"720 825 OFFCURVE",
"720 860 QCURVE SMOOTH",
"720 1446 LINE SMOOTH",
"720 1487 OFFCURVE",
"613 1579 OFFCURVE",
"597 1579 QCURVE",
"400 1462 LINE",
"400 1417 LINE",
"423 1413 LINE",
"443 1407 OFFCURVE",
"484 1339 OFFCURVE",
"484 1280 QCURVE SMOOTH",
"484 852 LINE",
"451 838 LINE",
"216 1577 LINE",
"136 1577 LINE",
"-77 1452 LINE",
"-77 1409 LINE",
"-44 1409 OFFCURVE"
);
}
);
width = 811;
}
);
note = Y;
unicode = 0059;
},
{
glyphname = Z;
layers = (
{
layerId = "27714DAC-5FBA-4222-9599-87EDA629626A";
paths = (
{
closed = 1;
nodes = (
"737 1358 LINE",
"737 1378 OFFCURVE",
"649 1585 OFFCURVE",
"620 1624 QCURVE",
"575 1624 LINE",
"559 1556 OFFCURVE",
"434 1556 QCURVE SMOOTH",
"159 1556 LINE SMOOTH",
"122 1556 OFFCURVE",
"45 1495 OFFCURVE",
"20 1456 QCURVE",
"137 1288 LINE",
"182 1288 LINE",
"198 1356 OFFCURVE",
"323 1356 QCURVE SMOOTH",
"512 1356 LINE",
"20 195 LINE",
"20 125 OFFCURVE",
"61 0 QCURVE",
"598 0 LINE SMOOTH",
"634 0 OFFCURVE",
"712 61 OFFCURVE",
"737 100 QCURVE",
"620 268 LINE",
"575 268 LINE",
"559 201 OFFCURVE",
"434 201 QCURVE SMOOTH",
"272 201 LINE"
);
}
);
width = 757;
}
);
note = Z;
unicode = 005A;
},
{
glyphname = bracketleft;
layers = (
{
layerId = "27714DAC-5FBA-4222-9599-87EDA629626A";
paths = (
{
closed = 1;
nodes = (
"180 -78 OFFCURVE",
"225 -96 QCURVE",
"452 0 LINE",
"452 45 LINE",
"405 55 OFFCURVE",
"307 145 OFFCURVE",
"307 207 QCURVE SMOOTH",
"307 1274 LINE SMOOTH",
"307 1335 OFFCURVE",
"405 1425 OFFCURVE",
"452 1436 QCURVE",
"452 1481 LINE",
"225 1577 LINE",
"194 1561 LINE SMOOTH",
"163 1544 OFFCURVE",
"102 1475 OFFCURVE",
"102 1438 QCURVE SMOOTH",
"102 43 LINE SMOOTH",
"102 6 OFFCURVE"
);
}
);
width = 452;
}
);
note = bracketleft;
unicode = 005B;
},
{
glyphname = backslash;
layers = (
{
layerId = "27714DAC-5FBA-4222-9599-87EDA629626A";
paths = (
{
closed = 1;
nodes = (
"-3 1413 LINE",
"-153 1493 LINE",
"-204 1493 LINE",
"308 0 LINE",
"462 -78 LINE",
"507 -78 LINE"
);
}
);
width = 368;
}
);
note = backslash;
unicode = 005C;
},
{
glyphname = bracketright;
layers = (
{
layerId = "27714DAC-5FBA-4222-9599-87EDA629626A";
paths = (
{
closed = 1;
nodes = (
"274 1559 OFFCURVE",
"229 1577 QCURVE",
"2 1481 LINE",
"2 1436 LINE",
"49 1425 OFFCURVE",
"147 1335 OFFCURVE",
"147 1274 QCURVE SMOOTH",
"147 207 LINE SMOOTH",
"147 145 OFFCURVE",
"49 55 OFFCURVE",
"2 45 QCURVE",
"2 0 LINE",
"229 -96 LINE",
"260 -80 LINE SMOOTH",
"291 -63 OFFCURVE",
"352 6 OFFCURVE",
"352 43 QCURVE SMOOTH",
"352 1438 LINE SMOOTH",
"352 1475 OFFCURVE"
);
}
);
width = 452;
}
);
note = bracketright;
unicode = 005D;
},
{
glyphname = asciicircum;
layers = (
{
layerId = "27714DAC-5FBA-4222-9599-87EDA629626A";
paths = (
{
closed = 1;
nodes = (
"456 1651 OFFCURVE",
"302 1651 OFFCURVE",
"247 1595 OFFCURVE",
"161 1516 QCURVE SMOOTH",
"132 1489 OFFCURVE",
"75 1430 OFFCURVE",
"40 1389 OFFCURVE",
"40 1358 OFFCURVE",
"58 1292 OFFCURVE",
"73 1292 QCURVE SMOOTH",
"97 1292 OFFCURVE",
"288 1417 OFFCURVE",
"384 1495 QCURVE",
"480 1417 OFFCURVE",
"671 1292 OFFCURVE",
"695 1292 QCURVE SMOOTH",
"710 1292 OFFCURVE",
"722 1335 QCURVE SMOOTH",
"728 1358 OFFCURVE",
"728 1401 OFFCURVE",
"560 1567 OFFCURVE",
"497 1620 QCURVE SMOOTH"
);
}
);
width = 770;
}
);
note = asciicircum;
unicode = 005E;
},
{
glyphname = underscore;
layers = (
{
layerId = "27714DAC-5FBA-4222-9599-87EDA629626A";
paths = (
{
closed = 1;
nodes = (
"61 -115 LINE",
"61 -160 LINE",
"614 -160 LINE",
"737 -47 LINE",
"737 2 LINE",
"184 2 LINE"
);
}
);
width = 798;
}
);
note = underscore;
unicode = 005F;
},
{
glyphname = grave;
layers = (
{
layerId = "27714DAC-5FBA-4222-9599-87EDA629626A";
paths = (
{
closed = 1;
nodes = (
"216 1651 OFFCURVE",
"40 1651 OFFCURVE",
"40 1612 QCURVE SMOOTH",
"40 1554 OFFCURVE",
"224 1317 QCURVE SMOOTH",
"245 1292 OFFCURVE",
"296 1292 QCURVE SMOOTH",
"310 1292 OFFCURVE",
"323 1335 QCURVE SMOOTH",
"329 1358 OFFCURVE",
"329 1419 OFFCURVE",
"263 1575 OFFCURVE",
"228 1630 QCURVE SMOOTH"
);
}
);
width = 370;
}
);
note = grave;
unicode = 0060;
},
{
glyphname = a;
layers = (
{
layerId = "27714DAC-5FBA-4222-9599-87EDA629626A";
paths = (
{
closed = 1;
nodes = (
"614 1167 OFFCURVE",
"546 1167 QCURVE SMOOTH",
"507 1167 OFFCURVE",
"190 1055 QCURVE",
"190 993 LINE",
"366 993 OFFCURVE",
"489 901 OFFCURVE",
"489 784 QCURVE",
"380 750 LINE SMOOTH",
"274 717 OFFCURVE",
"61 614 OFFCURVE",
"61 582 QCURVE SMOOTH",
"61 246 LINE SMOOTH",
"61 160 OFFCURVE",
"122 92 QCURVE SMOOTH",
"145 66 OFFCURVE",
"204 18 OFFCURVE",
"229 4 OFFCURVE",
"235 0 QCURVE",
"491 137 LINE",
"491 102 OFFCURVE",
"569 18 OFFCURVE",
"614 0 QCURVE",
"837 125 LINE",
"837 170 LINE",
"786 182 OFFCURVE",
"737 242 OFFCURVE",
"737 317 QCURVE SMOOTH",
"737 897 LINE SMOOTH",
"737 991 OFFCURVE"
);
},
{
closed = 1;
nodes = (
"307 453 LINE SMOOTH",
"307 573 OFFCURVE",
"360 623 QCURVE SMOOTH",
"389 649 OFFCURVE",
"440 674 OFFCURVE",
"491 692 QCURVE",
"491 229 LINE",
"448 199 OFFCURVE",
"370 199 OFFCURVE",
"307 266 OFFCURVE",
"307 319 QCURVE SMOOTH"
);
}
);
width = 839;
}
);
note = a;
unicode = 0061;
},
{
glyphname = b;
layers = (
{
layerId = "27714DAC-5FBA-4222-9599-87EDA629626A";
paths = (
{
closed = 1;
nodes = (
"423 973 OFFCURVE",
"458 961 QCURVE SMOOTH",
"532 934 OFFCURVE",
"532 733 QCURVE SMOOTH",
"532 221 LINE",
"491 188 OFFCURVE",
"442 188 QCURVE SMOOTH",
"348 188 OFFCURVE",
"348 369 QCURVE SMOOTH",
"348 973 LINE"
);
},
{
closed = 1;
nodes = (
"780 905 LINE SMOOTH",
"780 999 OFFCURVE",
"647 1167 OFFCURVE",
"593 1167 QCURVE SMOOTH",
"559 1167 OFFCURVE",
"348 1059 QCURVE",
"348 1233 LINE SMOOTH",
"348 1331 OFFCURVE",
"409 1409 QCURVE SMOOTH",
"434 1440 OFFCURVE",
"507 1499 OFFCURVE",
"528 1509 QCURVE",
"495 1575 LINE",
"286 1452 OFFCURVE",
"20 1313 QCURVE",
"20 1255 LINE",
"65 1255 OFFCURVE",
"102 1208 OFFCURVE",
"102 1153 QCURVE SMOOTH",
"102 299 LINE SMOOTH",
"102 186 OFFCURVE",
"225 0 OFFCURVE",
"327 0 OFFCURVE",
"780 170 OFFCURVE",
"780 190 QCURVE SMOOTH"
);
}
);
width = 880;
}
);
note = b;
unicode = 0062;
},
{
glyphname = c;
layers = (
{
layerId = "27714DAC-5FBA-4222-9599-87EDA629626A";
paths = (
{
closed = 1;
nodes = (
"508 635 OFFCURVE",
"538 635 QCURVE SMOOTH",
"546 635 OFFCURVE",
"761 739 OFFCURVE",
"807 760 QCURVE",
"807 801 LINE",
"741 801 OFFCURVE",
"694 881 OFFCURVE",
"651 1049 OFFCURVE",
"618 1167 OFFCURVE",
"606 1167 QCURVE SMOOTH",
"571 1167 OFFCURVE",
"102 993 OFFCURVE",
"102 979 QCURVE SMOOTH",
"102 291 LINE SMOOTH",
"102 174 OFFCURVE",
"229 0 OFFCURVE",
"290 0 QCURVE SMOOTH",
"313 0 OFFCURVE",
"649 113 QCURVE",
"649 172 LINE",
"553 172 OFFCURVE",
"483 188 QCURVE SMOOTH",
"348 225 OFFCURVE",
"348 383 QCURVE SMOOTH",
"348 948 LINE",
"364 969 OFFCURVE",
"385 969 QCURVE SMOOTH",
"413 969 OFFCURVE"
);
}
);
width = 827;
}
);
note = c;
unicode = 0063;
},
{
glyphname = d;
layers = (
{
layerId = "27714DAC-5FBA-4222-9599-87EDA629626A";
paths = (
{
closed = 1;
nodes = (
"174 1475 QCURVE",
"174 1413 LINE",
"241 1413 LINE SMOOTH",
"284 1413 OFFCURVE",
"374 1282 OFFCURVE",
"448 1120 QCURVE",
"102 999 OFFCURVE",
"102 979 QCURVE SMOOTH",
"102 248 LINE SMOOTH",
"102 184 OFFCURVE",
"182 63 OFFCURVE",
"262 0 OFFCURVE",
"276 0 QCURVE SMOOTH",
"313 0 OFFCURVE",
"532 135 QCURVE",
"532 100 OFFCURVE",
"608 20 OFFCURVE",
"655 0 QCURVE",
"864 123 OFFCURVE",
"878 125 QCURVE",
"878 170 LINE",
"831 176 OFFCURVE",
"780 266 OFFCURVE",
"780 313 QCURVE SMOOTH",
"780 938 LINE SMOOTH",
"780 1040 OFFCURVE",
"542 1577 OFFCURVE",
"487 1577 QCURVE SMOOTH",
"401 1577 OFFCURVE"
);
},
{
closed = 1;
nodes = (
"348 340 QCURVE SMOOTH",
"348 977 LINE",
"368 989 LINE SMOOTH",
"430 1026 OFFCURVE",
"489 1026 QCURVE SMOOTH",
"497 1026 OFFCURVE",
"532 946 OFFCURVE",
"532 934 QCURVE SMOOTH",
"532 221 LINE",
"491 188 OFFCURVE",
"452 188 QCURVE SMOOTH",
"348 188 OFFCURVE"
);
}
);
width = 880;
}
);
note = d;
unicode = 0064;
},
{
glyphname = e;
layers = (
{
layerId = "27714DAC-5FBA-4222-9599-87EDA629626A";
paths = (
{
closed = 1;
nodes = (
"102 993 OFFCURVE",
"102 979 QCURVE SMOOTH",
"102 291 LINE SMOOTH",
"102 174 OFFCURVE",
"229 0 OFFCURVE",
"290 0 QCURVE SMOOTH",
"313 0 OFFCURVE",
"649 113 QCURVE",
"649 172 LINE",
"555 172 OFFCURVE",
"487 188 QCURVE SMOOTH",
"350 225 OFFCURVE",
"350 383 QCURVE",
"358 383 OFFCURVE",
"561 451 OFFCURVE",
"778 557 OFFCURVE",
"778 594 QCURVE SMOOTH",
"778 938 LINE SMOOTH",
"778 991 OFFCURVE",
"696 1104 OFFCURVE",
"614 1167 OFFCURVE",
"604 1167 QCURVE SMOOTH",
"569 1167 OFFCURVE"
);
},
{
closed = 1;
nodes = (
"532 696 LINE SMOOTH",
"532 526 OFFCURVE",
"348 475 QCURVE",
"348 948 LINE",
"397 979 OFFCURVE",
"479 979 OFFCURVE",
"532 899 OFFCURVE",
"532 842 QCURVE SMOOTH"
);
}
);
width = 870;
}
);
note = e;
unicode = 0065;
},
{
glyphname = f;
layers = (
{
layerId = "27714DAC-5FBA-4222-9599-87EDA629626A";
paths = (
{
closed = 1;
nodes = (
"-22 999 LINE",
"-22 954 LINE",
"103 954 LINE",
"103 139 LINE SMOOTH",
"103 102 OFFCURVE",
"181 18 OFFCURVE",
"226 0 QCURVE",
"433 117 LINE",
"433 162 LINE",
"349 178 OFFCURVE",
"349 303 QCURVE SMOOTH",
"349 954 LINE",
"455 954 LINE",
"558 1006 LINE",
"558 1055 LINE",
"349 1055 LINE",
"349 1356 LINE SMOOTH",
"349 1417 OFFCURVE",
"386 1417 QCURVE SMOOTH",
"414 1417 OFFCURVE",
"465 1237 OFFCURVE",
"496 1237 QCURVE SMOOTH",
"506 1237 OFFCURVE",
"635 1307 QCURVE SMOOTH",
"691 1337 OFFCURVE",
"723 1352 QCURVE",
"723 1393 LINE",
"683 1393 OFFCURVE",
"656 1442 QCURVE SMOOTH",
"642 1466 OFFCURVE",
"627 1493 QCURVE SMOOTH",
"609 1532 LINE SMOOTH",
"603 1544 OFFCURVE",
"582 1575 OFFCURVE",
"566 1575 QCURVE SMOOTH",
"521 1575 OFFCURVE",
"103 1384 OFFCURVE",
"103 1346 QCURVE SMOOTH",
"103 1055 LINE"
);
}
);
width = 655;
}
);
note = f;
unicode = 0066;
},
{
glyphname = g;
layers = (
{
layerId = "27714DAC-5FBA-4222-9599-87EDA629626A";
paths = (
{
closed = 1;
nodes = (
"102 303 LINE SMOOTH",
"102 203 OFFCURVE",
"204 41 OFFCURVE",
"268 41 QCURVE SMOOTH",
"303 41 OFFCURVE",
"534 150 QCURVE",
"467 -2 OFFCURVE",
"262 -184 OFFCURVE",
"182 -184 QCURVE SMOOTH",
"112 -184 LINE",
"112 -246 LINE",
"172 -276 LINE SMOOTH",
"233 -307 OFFCURVE",
"405 -369 OFFCURVE",
"456 -369 QCURVE SMOOTH",
"485 -369 OFFCURVE",
"641 -150 OFFCURVE",
"780 139 OFFCURVE",
"780 217 QCURVE SMOOTH",
"780 868 LINE SMOOTH",
"780 981 OFFCURVE",
"657 1167 OFFCURVE",
"555 1167 OFFCURVE",
"102 997 OFFCURVE",
"102 977 QCURVE SMOOTH"
);
},
{
closed = 1;
nodes = (
"440 236 OFFCURVE",
"350 332 OFFCURVE",
"350 475 QCURVE SMOOTH",
"350 946 LINE",
"391 979 OFFCURVE",
"440 979 QCURVE SMOOTH",
"534 979 OFFCURVE",
"534 799 QCURVE SMOOTH",
"534 236 LINE"
);
}
);
width = 882;
}
);
note = g;
unicode = 0067;
},
{
glyphname = h;
layers = (
{
layerId = "27714DAC-5FBA-4222-9599-87EDA629626A";
paths = (
{
closed = 1;
nodes = (
"180 18 OFFCURVE",
"225 0 QCURVE",
"432 117 LINE",
"432 162 LINE",
"348 178 OFFCURVE",
"348 303 QCURVE SMOOTH",
"348 973 LINE",
"423 973 OFFCURVE",
"458 961 QCURVE SMOOTH",
"532 934 OFFCURVE",
"532 733 QCURVE SMOOTH",
"532 139 LINE SMOOTH",
"532 102 OFFCURVE",
"610 18 OFFCURVE",
"655 0 QCURVE",
"878 125 LINE",
"878 170 LINE",
"778 190 OFFCURVE",
"778 303 QCURVE SMOOTH",
"778 905 LINE SMOOTH",
"778 1004 OFFCURVE",
"659 1167 OFFCURVE",
"593 1167 QCURVE SMOOTH",
"559 1167 OFFCURVE",
"348 1059 QCURVE",
"348 1233 LINE SMOOTH",
"348 1331 OFFCURVE",
"409 1409 QCURVE SMOOTH",
"434 1440 OFFCURVE",
"507 1499 OFFCURVE",
"528 1509 QCURVE",
"495 1575 LINE",
"286 1452 OFFCURVE",
"20 1313 QCURVE",
"20 1255 LINE",
"65 1255 OFFCURVE",
"102 1208 OFFCURVE",
"102 1153 QCURVE SMOOTH",
"102 139 LINE SMOOTH",
"102 102 OFFCURVE"
);
}
);
width = 880;
}
);
note = h;
unicode = 0068;
},
{
glyphname = i;
layers = (
{
layerId = "27714DAC-5FBA-4222-9599-87EDA629626A";
paths = (
{
closed = 1;
nodes = (
"270 1149 OFFCURVE",
"225 1167 QCURVE",
"18 1051 LINE",
"18 1006 LINE",
"102 989 OFFCURVE",
"102 864 QCURVE SMOOTH",
"102 139 LINE SMOOTH",
"102 102 OFFCURVE",
"180 18 OFFCURVE",
"225 0 QCURVE",
"432 117 LINE",
"432 162 LINE",
"348 178 OFFCURVE",
"348 303 QCURVE SMOOTH",
"348 1028 LINE SMOOTH",
"348 1065 OFFCURVE"
);
},
{
closed = 1;
nodes = (
"118 1292 OFFCURVE",
"155 1292 OFFCURVE",
"319 1356 OFFCURVE",
"319 1362 QCURVE SMOOTH",
"319 1511 LINE SMOOTH",
"319 1548 OFFCURVE",
"268 1618 OFFCURVE",
"241 1618 OFFCURVE",
"71 1554 OFFCURVE",
"71 1548 QCURVE SMOOTH",
"71 1423 LINE SMOOTH",
"71 1364 OFFCURVE"
);
}
);
width = 450;
}
);
note = i;
unicode = 0069;
},
{
glyphname = j;
layers = (
{
layerId = "27714DAC-5FBA-4222-9599-87EDA629626A";
paths = (
{
closed = 1;
nodes = (
"47 -184 OFFCURVE",
"-24 -184 QCURVE SMOOTH",
"-94 -184 LINE",
"-94 -246 LINE",
"-39 -276 LINE SMOOTH",
"17 -307 OFFCURVE",
"178 -369 OFFCURVE",
"230 -369 QCURVE SMOOTH",
"258 -369 OFFCURVE",
"312 -219 OFFCURVE",
"348 57 OFFCURVE",
"348 217 QCURVE SMOOTH",
"348 1028 LINE SMOOTH",
"348 1065 OFFCURVE",
"271 1149 OFFCURVE",
"225 1167 QCURVE",
"19 1051 LINE",
"19 1006 LINE",
"103 989 OFFCURVE",
"103 864 QCURVE SMOOTH",
"103 231 LINE SMOOTH",
"103 4 OFFCURVE"
);
},
{
closed = 1;
nodes = (
"119 1247 OFFCURVE",
"156 1247 OFFCURVE",
"320 1311 OFFCURVE",
"320 1317 QCURVE SMOOTH",
"320 1466 LINE SMOOTH",
"320 1503 OFFCURVE",
"268 1573 OFFCURVE",
"242 1573 OFFCURVE",
"72 1509 OFFCURVE",
"72 1503 QCURVE SMOOTH",
"72 1378 LINE SMOOTH",
"72 1319 OFFCURVE"
);
}
);
width = 450;
}
);
note = j;
unicode = 006A;
},
{
glyphname = k;
layers = (
{
layerId = "27714DAC-5FBA-4222-9599-87EDA629626A";
paths = (
{
closed = 1;
nodes = (
"387 399 OFFCURVE",
"589 0 OFFCURVE",
"655 0 QCURVE SMOOTH",
"704 0 OFFCURVE",
"894 123 QCURVE",
"894 182 LINE",
"847 186 OFFCURVE",
"808 205 QCURVE",
"686 256 OFFCURVE",
"557 598 QCURVE",
"770 680 OFFCURVE",
"770 702 QCURVE SMOOTH",
"770 926 LINE SMOOTH",
"770 1018 OFFCURVE",
"630 1167 OFFCURVE",
"573 1167 QCURVE SMOOTH",
"538 1167 OFFCURVE",
"348 1044 QCURVE",
"348 1233 LINE SMOOTH",
"348 1331 OFFCURVE",
"409 1409 QCURVE SMOOTH",
"434 1440 OFFCURVE",
"507 1499 OFFCURVE",
"528 1509 QCURVE",
"495 1575 LINE",
"286 1452 OFFCURVE",
"20 1313 QCURVE",
"20 1255 LINE",
"65 1255 OFFCURVE",
"102 1208 OFFCURVE",
"102 1153 QCURVE SMOOTH",
"102 139 LINE SMOOTH",
"102 102 OFFCURVE",
"180 18 OFFCURVE",
"225 0 QCURVE",
"432 117 LINE",
"432 162 LINE",
"348 178 OFFCURVE",
"348 303 QCURVE SMOOTH",
"348 532 LINE"
);
},
{
closed = 1;
nodes = (
"413 969 LINE",
"532 969 OFFCURVE",
"532 795 QCURVE SMOOTH",
"532 702 LINE",
"495 684 LINE SMOOTH",
"389 633 OFFCURVE",
"348 633 QCURVE",
"348 958 LINE"
);
}
);
width = 880;
}
);
note = k;
unicode = 006B;
},
{
glyphname = l;
layers = (
{
layerId = "27714DAC-5FBA-4222-9599-87EDA629626A";
paths = (
{
closed = 1;
nodes = (
"270 1556 OFFCURVE",
"225 1575 QCURVE",
"18 1458 LINE",
"18 1413 LINE",
"102 1397 OFFCURVE",
"102 1272 QCURVE SMOOTH",
"102 139 LINE SMOOTH",
"102 102 OFFCURVE",
"180 18 OFFCURVE",
"225 0 QCURVE",
"432 117 LINE",
"432 162 LINE",
"348 178 OFFCURVE",
"348 303 QCURVE SMOOTH",
"348 1436 LINE SMOOTH",
"348 1473 OFFCURVE"
);
}
);
width = 450;
}
);
note = l;
unicode = 006C;
},
{
glyphname = m;
layers = (
{
layerId = "27714DAC-5FBA-4222-9599-87EDA629626A";
paths = (
{
closed = 1;
nodes = (
"180 18 OFFCURVE",
"225 0 QCURVE",
"432 117 LINE",
"432 162 LINE",
"348 178 OFFCURVE",
"348 303 QCURVE SMOOTH",
"348 956 LINE",
"420 969 LINE",
"532 969 OFFCURVE",
"532 733 QCURVE SMOOTH",
"532 139 LINE SMOOTH",
"532 102 OFFCURVE",
"610 18 OFFCURVE",
"655 0 QCURVE",
"879 125 LINE",
"879 170 LINE",
"778 190 OFFCURVE",
"778 303 QCURVE SMOOTH",
"778 952 LINE",
"838 965 LINE",
"893 965 OFFCURVE",
"963 877 OFFCURVE",
"963 743 QCURVE SMOOTH",
"963 139 LINE SMOOTH",
"963 102 OFFCURVE",
"1040 18 OFFCURVE",
"1085 0 QCURVE",
"1309 125 LINE",
"1309 170 LINE",
"1208 190 OFFCURVE",
"1208 303 QCURVE SMOOTH",
"1208 924 LINE SMOOTH",
"1208 995 OFFCURVE",
"1094 1167 OFFCURVE",
"1028 1167 QCURVE SMOOTH",
"995 1167 OFFCURVE",
"836 1085 QCURVE SMOOTH",
"756 1044 OFFCURVE",
"752 1042 QCURVE",
"729 1094 OFFCURVE",
"641 1167 OFFCURVE",
"569 1167 OFFCURVE",
"418 1081 QCURVE SMOOTH",
"360 1049 OFFCURVE",
"348 1042 QCURVE",
"348 1085 OFFCURVE",
"281 1151 OFFCURVE",
"240 1165 OFFCURVE",
"225 1169 QCURVE",
"16 1047 OFFCURVE",
"2 1044 QCURVE",
"2 999 LINE",
"45 999 OFFCURVE",
"102 901 OFFCURVE",
"102 834 QCURVE SMOOTH",
"102 139 LINE SMOOTH",
"102 102 OFFCURVE"
);
}
);
width = 1310;
}
);
note = m;
unicode = 006D;
},
{
glyphname = n;
layers = (
{
layerId = "27714DAC-5FBA-4222-9599-87EDA629626A";
paths = (
{
closed = 1;
nodes = (
"180 18 OFFCURVE",
"225 0 QCURVE",
"432 117 LINE",
"432 162 LINE",
"348 178 OFFCURVE",
"348 303 QCURVE SMOOTH",
"348 956 LINE",
"416 969 LINE",
"481 969 OFFCURVE",
"532 848 OFFCURVE",
"532 733 QCURVE SMOOTH",
"532 139 LINE SMOOTH",
"532 102 OFFCURVE",
"610 18 OFFCURVE",
"655 0 QCURVE",
"879 125 LINE",
"879 170 LINE",
"778 190 OFFCURVE",
"778 303 QCURVE SMOOTH",
"778 924 LINE SMOOTH",
"778 995 OFFCURVE",
"664 1167 OFFCURVE",
"598 1167 QCURVE SMOOTH",
"569 1167 OFFCURVE",
"418 1081 QCURVE SMOOTH",
"360 1049 OFFCURVE",
"348 1042 QCURVE",
"348 1085 OFFCURVE",
"281 1151 OFFCURVE",
"240 1165 OFFCURVE",
"225 1169 QCURVE",
"16 1047 OFFCURVE",
"2 1044 QCURVE",
"2 999 LINE",
"45 999 OFFCURVE",
"102 901 OFFCURVE",
"102 834 QCURVE SMOOTH",
"102 139 LINE SMOOTH",
"102 102 OFFCURVE"
);
}
);
width = 880;
}
);
note = n;
unicode = 006E;
},
{
glyphname = o;
layers = (
{
layerId = "27714DAC-5FBA-4222-9599-87EDA629626A";
paths = (
{
closed = 1;
nodes = (
"231 0 OFFCURVE",
"331 0 OFFCURVE",
"780 174 OFFCURVE",
"780 190 QCURVE SMOOTH",
"780 932 LINE SMOOTH",
"780 999 OFFCURVE",
"639 1167 OFFCURVE",
"569 1167 OFFCURVE",
"102 993 OFFCURVE",
"102 979 QCURVE SMOOTH",
"102 299 LINE SMOOTH",
"102 176 OFFCURVE"
);
},
{
closed = 1;
nodes = (
"348 340 QCURVE SMOOTH",
"348 946 LINE",
"387 977 OFFCURVE",
"428 977 QCURVE SMOOTH",
"532 977 OFFCURVE",
"532 825 QCURVE SMOOTH",
"532 221 LINE",
"491 188 OFFCURVE",
"452 188 QCURVE SMOOTH",
"348 188 OFFCURVE"
);
}
);
width = 882;
}
);
note = o;
unicode = 006F;
},
{
glyphname = p;
layers = (
{
layerId = "27714DAC-5FBA-4222-9599-87EDA629626A";
paths = (
{
closed = 1;
nodes = (
"534 825 QCURVE SMOOTH",
"534 240 LINE SMOOTH",
"534 201 OFFCURVE",
"403 131 OFFCURVE",
"350 131 QCURVE",
"350 944 LINE",
"391 977 OFFCURVE",
"430 977 QCURVE SMOOTH",
"534 977 OFFCURVE"
);
},
{
closed = 1;
nodes = (
"180 -346 OFFCURVE",
"225 -365 QCURVE",
"432 -248 LINE",
"432 -203 LINE",
"348 -186 OFFCURVE",
"348 -61 QCURVE SMOOTH",
"348 14 LINE",
"418 33 OFFCURVE",
"780 174 OFFCURVE",
"780 188 QCURVE SMOOTH",
"780 918 LINE SMOOTH",
"780 981 OFFCURVE",
"700 1102 OFFCURVE",
"620 1165 OFFCURVE",
"606 1165 QCURVE SMOOTH",
"569 1165 OFFCURVE",
"350 1030 QCURVE",
"350 1065 OFFCURVE",
"274 1145 OFFCURVE",
"227 1165 QCURVE",
"18 1042 OFFCURVE",
"4 1040 QCURVE",
"4 995 LINE",
"51 989 OFFCURVE",
"102 899 OFFCURVE",
"102 852 QCURVE SMOOTH",
"102 -225 LINE SMOOTH",
"102 -262 OFFCURVE"
);
}
);
width = 880;
}
);
note = p;
unicode = 0070;
},
{
glyphname = q;
layers = (
{
layerId = "27714DAC-5FBA-4222-9599-87EDA629626A";
paths = (
{
closed = 1;
nodes = (
"440 236 OFFCURVE",
"350 332 OFFCURVE",
"350 475 QCURVE SMOOTH",
"350 946 LINE",
"391 979 OFFCURVE",
"440 979 QCURVE SMOOTH",
"534 979 OFFCURVE",
"534 799 QCURVE SMOOTH",
"534 236 LINE"
);
},
{
closed = 1;
nodes = (
"102 303 LINE SMOOTH",
"102 203 OFFCURVE",
"204 41 OFFCURVE",
"268 41 QCURVE SMOOTH",
"303 41 OFFCURVE",
"534 150 QCURVE",
"534 -106 LINE SMOOTH",
"534 -207 OFFCURVE",
"491 -256 QCURVE SMOOTH",
"475 -274 OFFCURVE",
"428 -303 OFFCURVE",
"411 -303 QCURVE",
"444 -369 LINE",
"446 -369 OFFCURVE",
"862 -186 QCURVE",
"862 -129 LINE",
"817 -129 OFFCURVE",
"780 -82 OFFCURVE",
"780 -27 QCURVE SMOOTH",
"780 868 LINE SMOOTH",
"780 981 OFFCURVE",
"657 1167 OFFCURVE",
"555 1167 OFFCURVE",
"102 997 OFFCURVE",
"102 977 QCURVE SMOOTH"
);
}
);
width = 882;
}
);
note = q;
unicode = 0071;
},
{
glyphname = r;
layers = (
{
layerId = "27714DAC-5FBA-4222-9599-87EDA629626A";
paths = (
{
closed = 1;
nodes = (
"39 999 OFFCURVE",
"102 909 OFFCURVE",
"102 819 QCURVE SMOOTH",
"102 139 LINE SMOOTH",
"102 102 OFFCURVE",
"180 18 OFFCURVE",
"225 0 QCURVE",
"432 117 LINE",
"432 162 LINE",
"348 178 OFFCURVE",
"348 303 QCURVE SMOOTH",
"348 956 LINE",
"422 956 OFFCURVE",
"459 930 QCURVE SMOOTH",
"491 905 OFFCURVE",
"491 733 QCURVE",
"526 705 LINE",
"737 823 LINE",
"737 924 LINE SMOOTH",
"737 995 OFFCURVE",
"623 1167 OFFCURVE",
"557 1167 QCURVE SMOOTH",
"532 1167 OFFCURVE",
"358 1047 OFFCURVE",
"348 1042 QCURVE",
"348 1083 OFFCURVE",
"281 1149 OFFCURVE",
"242 1163 OFFCURVE",
"227 1167 QCURVE",
"2 1044 LINE",
"2 999 LINE"
);
}
);
width = 778;
}
);
note = r;
unicode = 0072;
},
{
glyphname = s;
layers = (
{
layerId = "27714DAC-5FBA-4222-9599-87EDA629626A";
paths = (
{
closed = 1;
nodes = (
"436 547 OFFCURVE",
"452 547 QCURVE SMOOTH",
"503 547 OFFCURVE",
"503 455 QCURVE SMOOTH",
"503 199 LINE SMOOTH",
"503 170 OFFCURVE",
"466 137 OFFCURVE",
"446 137 QCURVE SMOOTH",
"417 137 OFFCURVE",
"325 379 OFFCURVE",
"294 379 QCURVE SMOOTH",
"284 379 OFFCURVE",
"155 307 QCURVE SMOOTH",
"100 279 OFFCURVE",
"67 264 QCURVE",
"67 223 LINE",
"108 223 OFFCURVE",
"135 174 QCURVE SMOOTH",
"157 137 OFFCURVE",
"204 31 OFFCURVE",
"231 -20 OFFCURVE",
"245 -20 QCURVE SMOOTH",
"280 -20 OFFCURVE",
"749 170 OFFCURVE",
"749 209 QCURVE SMOOTH",
"749 440 LINE SMOOTH",
"749 563 OFFCURVE",
"673 721 OFFCURVE",
"624 721 QCURVE SMOOTH",
"599 721 OFFCURVE",
"362 614 OFFCURVE",
"354 614 QCURVE SMOOTH",
"317 614 OFFCURVE",
"317 696 QCURVE SMOOTH",
"317 948 LINE SMOOTH",
"317 1010 OFFCURVE",
"354 1010 QCURVE SMOOTH",
"382 1010 OFFCURVE",
"454 809 OFFCURVE",
"485 809 QCURVE SMOOTH",
"495 809 OFFCURVE",
"626 881 QCURVE SMOOTH",
"679 909 OFFCURVE",
"712 924 QCURVE",
"712 965 LINE",
"671 965 OFFCURVE",
"645 1014 QCURVE",
"632 1034 OFFCURVE",
"597 1098 OFFCURVE",
"581 1124 OFFCURVE",
"552 1167 OFFCURVE",
"534 1167 QCURVE SMOOTH",
"501 1167 OFFCURVE",
"71 977 OFFCURVE",
"71 938 QCURVE SMOOTH",
"71 717 LINE SMOOTH",
"71 604 OFFCURVE",
"145 449 OFFCURVE",
"196 449 QCURVE SMOOTH",
"210 449 OFFCURVE"
);
}
);
width = 829;
}
);
note = s;
unicode = 0073;
},
{
glyphname = t;
layers = (
{
layerId = "27714DAC-5FBA-4222-9599-87EDA629626A";
paths = (
{
closed = 1;
nodes = (
"274 1286 OFFCURVE",
"100 1120 OFFCURVE",
"38 1120 QCURVE",
"18 1034 LINE",
"102 1034 LINE",
"102 139 LINE SMOOTH",
"102 102 OFFCURVE",
"180 18 OFFCURVE",
"225 0 QCURVE",
"432 117 LINE",
"432 162 LINE",
"348 178 OFFCURVE",
"348 303 QCURVE SMOOTH",
"348 1036 LINE",
"432 1036 LINE",
"452 1137 LINE",
"348 1137 LINE",
"348 1380 LINE",
"290 1380 LINE"
);
}
);
width = 450;
}
);
note = t;
unicode = 0074;
},
{
glyphname = u;
layers = (
{
layerId = "27714DAC-5FBA-4222-9599-87EDA629626A";
paths = (
{
closed = 1;
nodes = (
"348 1030 LINE SMOOTH",
"348 1067 OFFCURVE",
"270 1151 OFFCURVE",
"225 1169 QCURVE",
"2 1044 LINE",
"2 999 LINE",
"102 979 OFFCURVE",
"102 866 QCURVE SMOOTH",
"102 246 LINE SMOOTH",
"102 160 OFFCURVE",
"164 92 QCURVE SMOOTH",
"186 66 OFFCURVE",
"246 18 OFFCURVE",
"270 4 OFFCURVE",
"276 0 QCURVE",
"532 137 LINE",
"532 100 OFFCURVE",
"608 20 OFFCURVE",
"655 0 QCURVE",
"864 123 OFFCURVE",
"879 125 QCURVE",
"879 170 LINE",
"836 170 OFFCURVE",
"778 268 OFFCURVE",
"778 336 QCURVE SMOOTH",
"778 1030 LINE SMOOTH",
"778 1067 OFFCURVE",
"700 1151 OFFCURVE",
"655 1169 QCURVE",
"448 1053 LINE",
"448 1008 LINE",
"532 991 OFFCURVE",
"532 866 QCURVE SMOOTH",
"532 229 LINE",
"489 199 OFFCURVE",
"412 199 OFFCURVE",
"348 266 OFFCURVE",
"348 319 QCURVE SMOOTH"
);
}
);
width = 880;
}
);
note = u;
unicode = 0075;
},
{
glyphname = v;
layers = (
{
layerId = "27714DAC-5FBA-4222-9599-87EDA629626A";
paths = (
{
closed = 1;
nodes = (
"659 1167 OFFCURVE",
"598 1167 QCURVE",
"348 1042 LINE",
"342 1073 OFFCURVE",
"270 1151 OFFCURVE",
"225 1169 QCURVE",
"2 1044 LINE",
"2 999 LINE",
"102 979 OFFCURVE",
"102 866 QCURVE SMOOTH",
"102 266 LINE SMOOTH",
"102 193 OFFCURVE",
"215 0 OFFCURVE",
"342 0 OFFCURVE",
"780 172 OFFCURVE",
"780 190 QCURVE SMOOTH",
"780 887 LINE SMOOTH",
"780 991 OFFCURVE"
);
},
{
closed = 1;
nodes = (
"348 973 LINE",
"455 973 OFFCURVE",
"532 895 OFFCURVE",
"532 764 QCURVE SMOOTH",
"532 184 LINE",
"471 154 OFFCURVE",
"405 154 OFFCURVE",
"348 223 OFFCURVE",
"348 274 QCURVE SMOOTH"
);
}
);
width = 880;
}
);
note = v;
unicode = 0076;
},
{
glyphname = w;
layers = (
{
layerId = "27714DAC-5FBA-4222-9599-87EDA629626A";
paths = (
{
closed = 1;
nodes = (
"500 205 OFFCURVE",
"469 205 QCURVE SMOOTH",
"348 205 OFFCURVE",
"348 399 QCURVE SMOOTH",
"348 1032 LINE SMOOTH",
"348 1067 OFFCURVE",
"270 1151 OFFCURVE",
"225 1169 QCURVE",
"2 1044 LINE",
"2 999 LINE",
"102 979 OFFCURVE",
"102 866 QCURVE SMOOTH",
"102 248 LINE SMOOTH",
"102 174 OFFCURVE",
"215 0 OFFCURVE",
"334 0 OFFCURVE",
"559 127 QCURVE",
"623 0 OFFCURVE",
"719 0 QCURVE SMOOTH",
"772 0 OFFCURVE",
"1210 172 OFFCURVE",
"1210 190 QCURVE SMOOTH",
"1210 866 LINE SMOOTH",
"1210 1024 OFFCURVE",
"1116 1118 QCURVE SMOOTH",
"1067 1167 OFFCURVE",
"1026 1167 QCURVE SMOOTH",
"1024 1167 OFFCURVE",
"782 1047 OFFCURVE",
"778 1042 QCURVE",
"768 1087 OFFCURVE",
"674 1167 OFFCURVE",
"655 1167 QCURVE SMOOTH",
"653 1167 OFFCURVE",
"432 1044 QCURVE",
"432 999 LINE",
"532 979 OFFCURVE",
"532 866 QCURVE SMOOTH",
"532 217 LINE"
);
},
{
closed = 1;
nodes = (
"780 973 LINE",
"876 971 OFFCURVE",
"963 899 OFFCURVE",
"963 793 QCURVE SMOOTH",
"963 219 LINE",
"922 201 OFFCURVE",
"831 201 OFFCURVE",
"780 313 OFFCURVE",
"780 379 QCURVE SMOOTH"
);
}
);
width = 1312;
}
);
note = w;
unicode = 0077;
},
{
glyphname = x;
layers = (
{
layerId = "27714DAC-5FBA-4222-9599-87EDA629626A";
paths = (
{
closed = 1;
nodes = (
"94 995 OFFCURVE",
"141 963 OFFCURVE",
"155 932 QCURVE SMOOTH",
"315 606 LINE",
"71 516 OFFCURVE",
"71 483 QCURVE SMOOTH",
"71 133 LINE SMOOTH",
"71 92 OFFCURVE",
"178 0 OFFCURVE",
"194 0 QCURVE",
"391 117 LINE",
"391 162 LINE",
"368 168 LINE SMOOTH",
"348 172 OFFCURVE",
"307 240 OFFCURVE",
"307 299 QCURVE SMOOTH",
"307 492 LINE",
"362 518 LINE",
"620 0 LINE",
"677 0 LINE",
"901 125 LINE",
"901 170 LINE",
"817 170 OFFCURVE",
"790 213 QCURVE",
"583 598 LINE",
"821 684 OFFCURVE",
"821 717 QCURVE SMOOTH",
"821 1036 LINE SMOOTH",
"821 1077 OFFCURVE",
"714 1169 OFFCURVE",
"698 1169 QCURVE",
"501 1053 LINE",
"501 1008 LINE",
"524 1004 LINE",
"544 997 OFFCURVE",
"585 930 OFFCURVE",
"585 870 QCURVE SMOOTH",
"585 709 LINE",
"534 684 LINE",
"294 1167 LINE",
"237 1167 LINE",
"24 1042 LINE",
"24 999 LINE",
"57 999 OFFCURVE"
);
}
);
width = 892;
}
);
note = x;
unicode = 0078;
},
{
glyphname = y;
layers = (
{
layerId = "27714DAC-5FBA-4222-9599-87EDA629626A";
paths = (
{
closed = 1;
nodes = (
"702 1151 OFFCURVE",
"657 1169 QCURVE",
"450 1053 LINE",
"450 1008 LINE",
"534 991 OFFCURVE",
"534 866 QCURVE SMOOTH",
"534 236 LINE",
"440 236 OFFCURVE",
"350 332 OFFCURVE",
"350 475 QCURVE SMOOTH",
"350 1030 LINE SMOOTH",
"350 1067 OFFCURVE",
"272 1151 OFFCURVE",
"227 1169 QCURVE",
"4 1044 LINE",
"4 999 LINE",
"104 979 OFFCURVE",
"104 866 QCURVE SMOOTH",
"104 303 LINE SMOOTH",
"104 203 OFFCURVE",
"205 41 OFFCURVE",
"268 41 QCURVE SMOOTH",
"303 41 OFFCURVE",
"534 150 QCURVE",
"467 -2 OFFCURVE",
"262 -184 OFFCURVE",
"182 -184 QCURVE SMOOTH",
"113 -184 LINE",
"113 -246 LINE",
"172 -276 LINE SMOOTH",
"233 -307 OFFCURVE",
"405 -369 OFFCURVE",
"457 -369 QCURVE SMOOTH",
"485 -369 OFFCURVE",
"641 -150 OFFCURVE",
"780 139 OFFCURVE",
"780 217 QCURVE SMOOTH",
"780 1030 LINE SMOOTH",
"780 1067 OFFCURVE"
);
}
);
width = 882;
}
);
note = y;
unicode = 0079;
},
{
glyphname = z;
layers = (
{
layerId = "27714DAC-5FBA-4222-9599-87EDA629626A";
paths = (
{
closed = 1;
nodes = (
"737 950 LINE",
"737 971 OFFCURVE",
"649 1178 OFFCURVE",
"620 1217 QCURVE",
"575 1217 LINE",
"559 1149 OFFCURVE",
"434 1149 QCURVE SMOOTH",
"159 1149 LINE SMOOTH",
"122 1149 OFFCURVE",
"45 1087 OFFCURVE",
"20 1049 QCURVE",
"137 881 LINE",
"182 881 LINE",
"198 948 OFFCURVE",
"323 948 QCURVE SMOOTH",
"501 948 LINE",
"20 195 LINE",
"20 125 OFFCURVE",
"61 0 QCURVE",
"598 0 LINE SMOOTH",
"634 0 OFFCURVE",
"712 61 OFFCURVE",
"737 100 QCURVE",
"620 268 LINE",
"575 268 LINE",
"559 201 OFFCURVE",
"434 201 QCURVE SMOOTH",
"272 201 LINE"
);
}
);
width = 757;
}
);
note = z;
unicode = 007A;
},
{
glyphname = braceleft;
layers = (
{
layerId = "27714DAC-5FBA-4222-9599-87EDA629626A";
paths = (
{
closed = 1;
nodes = (
"225 729 QCURVE",
"307 786 OFFCURVE",
"307 846 QCURVE SMOOTH",
"307 1274 LINE SMOOTH",
"307 1335 OFFCURVE",
"406 1425 OFFCURVE",
"453 1436 QCURVE",
"453 1481 LINE",
"225 1577 LINE",
"195 1561 LINE SMOOTH",
"164 1544 OFFCURVE",
"102 1475 OFFCURVE",
"102 1438 QCURVE SMOOTH",
"102 913 LINE SMOOTH",
"102 852 OFFCURVE",
"4 762 OFFCURVE",
"-43 752 QCURVE",
"-43 707 LINE",
"4 696 OFFCURVE",
"102 606 OFFCURVE",
"102 545 QCURVE SMOOTH",
"102 47 LINE SMOOTH",
"102 10 OFFCURVE",
"180 -74 OFFCURVE",
"225 -92 QCURVE",
"453 4 LINE",
"453 49 LINE",
"406 59 OFFCURVE",
"307 150 OFFCURVE",
"307 211 QCURVE SMOOTH",
"307 614 LINE SMOOTH",
"307 672 OFFCURVE"
);
}
);
width = 452;
}
);
note = braceleft;
unicode = 007B;
},
{
glyphname = bar;
layers = (
{
layerId = "27714DAC-5FBA-4222-9599-87EDA629626A";
paths = (
{
closed = 1;
nodes = (
"266 -223 LINE",
"266 1554 LINE",
"217 1554 LINE",
"102 1432 LINE",
"102 -346 LINE",
"147 -346 LINE"
);
}
);
width = 368;
}
);
note = bar;
unicode = 007C;
},
{
glyphname = braceright;
layers = (
{
layerId = "27714DAC-5FBA-4222-9599-87EDA629626A";
paths = (
{
closed = 1;
nodes = (
"45 59 OFFCURVE",
"-2 49 QCURVE",
"-2 4 LINE",
"225 -92 LINE",
"256 -76 LINE SMOOTH",
"287 -59 OFFCURVE",
"348 10 OFFCURVE",
"348 47 QCURVE SMOOTH",
"348 545 LINE SMOOTH",
"348 606 OFFCURVE",
"447 696 OFFCURVE",
"494 707 QCURVE",
"494 752 LINE",
"447 762 OFFCURVE",
"348 852 OFFCURVE",
"348 913 QCURVE SMOOTH",
"348 1438 LINE SMOOTH",
"348 1475 OFFCURVE",
"270 1559 OFFCURVE",
"225 1577 QCURVE",
"-2 1481 LINE",
"-2 1436 LINE",
"45 1425 OFFCURVE",
"143 1335 OFFCURVE",
"143 1274 QCURVE SMOOTH",
"143 846 LINE SMOOTH",
"143 786 OFFCURVE",
"225 729 QCURVE",
"143 672 OFFCURVE",
"143 614 QCURVE SMOOTH",
"143 211 LINE SMOOTH",
"143 150 OFFCURVE"
);
}
);
width = 452;
}
);
note = braceright;
unicode = 007D;
},
{
glyphname = asciitilde;
layers = (
{
layerId = "27714DAC-5FBA-4222-9599-87EDA629626A";
paths = (
{
closed = 1;
nodes = (
"716 1372 QCURVE",
"636 1522 LINE",
"595 1522 LINE",
"575 1470 OFFCURVE",
"472 1470 QCURVE SMOOTH",
"439 1470 OFFCURVE",
"235 1526 OFFCURVE",
"103 1526 OFFCURVE",
"40 1444 QCURVE",
"118 1294 LINE",
"161 1294 LINE",
"171 1317 OFFCURVE",
"241 1350 OFFCURVE",
"339 1350 OFFCURVE",
"525 1290 OFFCURVE",
"577 1290 QCURVE SMOOTH",
"652 1290 OFFCURVE"
);
}
);
width = 757;
}
);
note = asciitilde;
unicode = 007E;
},
{
glyphname = guillemotleft;
layers = (
{
layerId = "27714DAC-5FBA-4222-9599-87EDA629626A";
paths = (
{
closed = 1;
nodes = (
"546 385 LINE",
"204 567 LINE",
"546 756 LINE",
"575 895 LINE",
"550 938 LINE",
"40 629 LINE",
"56 567 LINE",
"40 506 LINE",
"550 197 LINE",
"575 240 LINE"
);
},
{
closed = 1;
nodes = (
"1119 385 LINE",
"777 567 LINE",
"1119 756 LINE",
"1148 895 LINE",
"1123 938 LINE",
"613 629 LINE",
"630 567 LINE",
"613 506 LINE",
"1123 197 LINE",
"1148 240 LINE"
);
}
);
width = 1230;
}
);
note = guillemotleft;
unicode = 00AB;
},
{
glyphname = guillemotright;
layers = (
{
layerId = "27714DAC-5FBA-4222-9599-87EDA629626A";
paths = (
{
closed = 1;
nodes = (
"1189 629 LINE",
"679 938 LINE",
"654 895 LINE",
"683 756 LINE",
"1025 567 LINE",
"683 385 LINE",
"654 240 LINE",
"679 197 LINE",
"1189 506 LINE",
"1173 567 LINE"
);
},
{
closed = 1;
nodes = (
"616 629 LINE",
"106 938 LINE",
"81 895 LINE",
"110 756 LINE",
"452 567 LINE",
"110 385 LINE",
"81 240 LINE",
"106 197 LINE",
"616 506 LINE",
"599 567 LINE"
);
}
);
width = 1230;
}
);
note = guillemotright;
unicode = 00BB;
},
{
glyphname = uni1780;
layers = (
{
layerId = "27714DAC-5FBA-4222-9599-87EDA629626A";
paths = (
{
closed = 1;
nodes = (
"400 800 LINE SMOOTH",
"400 914 OFFCURVE",
"425 928 QCURVE SMOOTH",
"449 943 OFFCURVE",
"486 943 QCURVE SMOOTH",
"523 943 OFFCURVE",
"662 864 QCURVE SMOOTH",
"800 784 OFFCURVE",
"800 750 QCURVE SMOOTH",
"800 -50 LINE",
"1000 150 LINE",
"1000 800 LINE SMOOTH",
"1000 900 OFFCURVE",
"759 1037 QCURVE SMOOTH",
"650 1100 OFFCURVE",
"600 1100 QCURVE SMOOTH",
"550 1100 OFFCURVE",
"375 1000 QCURVE SMOOTH",
"200 900 OFFCURVE",
"200 800 QCURVE SMOOTH",
"200 -50 LINE",
"400 150 LINE"
);
},
{
closed = 1;
nodes = (
"402 1071 QCURVE SMOOTH",
"423 1097 OFFCURVE",
"423 1121 QCURVE SMOOTH",
"423 1150 OFFCURVE",
"394 1175 QCURVE SMOOTH",
"340 1223 OFFCURVE",
"274 1250 QCURVE",
"298 1300 LINE",
"560 1300 LINE SMOOTH",
"600 1300 OFFCURVE",
"600 1247 QCURVE SMOOTH",
"600 1220 OFFCURVE",
"590 1180 QCURVE",
"661 1300 OFFCURVE",
"720 1300 QCURVE SMOOTH",
"902 1300 LINE SMOOTH",
"940 1300 OFFCURVE",
"940 1271 QCURVE SMOOTH",
"940 1266 LINE",
"935 1231 OFFCURVE",
"914 1151 QCURVE",
"997 1207 OFFCURVE",
"1024 1293 QCURVE SMOOTH",
"1050 1378 OFFCURVE",
"1050 1500 QCURVE",
"760 1500 LINE SMOOTH",
"715 1500 OFFCURVE",
"650 1400 QCURVE",
"650 1500 OFFCURVE",
"610 1500 QCURVE SMOOTH",
"300 1500 LINE",
"100 1100 LINE",
"114 1100 LINE SMOOTH",
"172 1100 OFFCURVE",
"215 1078 QCURVE SMOOTH",
"264 1053 OFFCURVE",
"294 1000 QCURVE",
"356 1015 OFFCURVE"
);
}
);
width = 1200;
}
);
note = uni1780;
unicode = 1780;
},
{
glyphname = uni1781;
layers = (
{
layerId = "27714DAC-5FBA-4222-9599-87EDA629626A";
paths = (
{
closed = 1;
nodes = (
"434 1090 LINE SMOOTH",
"468 1090 OFFCURVE",
"468 1062 QCURVE SMOOTH",
"468 1043 OFFCURVE",
"400 1005 QCURVE",
"400 1090 LINE"
);
},
{
closed = 1;
nodes = (
"800 186 OFFCURVE",
"775 172 QCURVE SMOOTH",
"751 157 OFFCURVE",
"714 157 QCURVE SMOOTH",
"677 157 OFFCURVE",
"538 236 QCURVE SMOOTH",
"400 316 OFFCURVE",
"400 350 QCURVE SMOOTH",
"400 510 LINE",
"700 710 LINE SMOOTH",
"1000 910 OFFCURVE",
"1000 1000 QCURVE SMOOTH",
"1000 1200 LINE SMOOTH",
"1000 1300 OFFCURVE",
"759 1437 QCURVE SMOOTH",
"650 1500 OFFCURVE",
"600 1500 QCURVE SMOOTH",
"550 1500 OFFCURVE",
"375 1400 QCURVE SMOOTH",
"200 1300 OFFCURVE",
"200 1200 QCURVE SMOOTH",
"200 880 LINE SMOOTH",
"200 800 OFFCURVE",
"245 800 QCURVE SMOOTH",
"300 800 OFFCURVE",
"450 895 QCURVE SMOOTH",
"600 990 OFFCURVE",
"600 1095 QCURVE SMOOTH",
"600 1200 OFFCURVE",
"440 1200 QCURVE SMOOTH",
"400 1200 LINE",
"400 1314 OFFCURVE",
"425 1328 QCURVE SMOOTH",
"449 1343 OFFCURVE",
"486 1343 QCURVE SMOOTH",
"523 1343 OFFCURVE",
"662 1264 QCURVE SMOOTH",
"800 1184 OFFCURVE",
"800 1150 QCURVE SMOOTH",
"800 1000 LINE SMOOTH",
"800 910 OFFCURVE",
"600 770 QCURVE SMOOTH",
"400 630 OFFCURVE",
"200 630 QCURVE",
"200 300 LINE SMOOTH",
"200 200 OFFCURVE",
"441 63 QCURVE SMOOTH",
"550 0 OFFCURVE",
"600 0 QCURVE SMOOTH",
"650 0 OFFCURVE",
"825 100 QCURVE SMOOTH",
"1000 200 OFFCURVE",
"1000 300 QCURVE SMOOTH",
"1000 750 LINE",
"800 550 LINE",
"800 300 LINE SMOOTH"
);
}
);
width = 1200;
}
);
note = uni1781;
unicode = 1781;
},
{
glyphname = uni1782;
layers = (
{
layerId = "27714DAC-5FBA-4222-9599-87EDA629626A";
paths = (
{
closed = 1;
nodes = (
"402 1071 QCURVE SMOOTH",
"423 1097 OFFCURVE",
"423 1121 QCURVE SMOOTH",
"423 1150 OFFCURVE",
"394 1175 QCURVE SMOOTH",
"340 1223 OFFCURVE",
"274 1250 QCURVE",
"298 1300 LINE",
"560 1300 LINE SMOOTH",
"600 1300 OFFCURVE",
"600 1247 QCURVE SMOOTH",
"600 1220 OFFCURVE",
"590 1180 QCURVE",
"661 1300 OFFCURVE",
"720 1300 QCURVE SMOOTH",
"902 1300 LINE SMOOTH",
"940 1300 OFFCURVE",
"940 1271 QCURVE SMOOTH",
"940 1266 LINE",
"935 1231 OFFCURVE",
"914 1151 QCURVE",
"997 1207 OFFCURVE",
"1024 1293 QCURVE SMOOTH",
"1050 1378 OFFCURVE",
"1050 1500 QCURVE",
"760 1500 LINE SMOOTH",
"715 1500 OFFCURVE",
"650 1400 QCURVE",
"650 1500 OFFCURVE",
"610 1500 QCURVE SMOOTH",
"300 1500 LINE",
"100 1100 LINE",
"114 1100 LINE SMOOTH",
"172 1100 OFFCURVE",
"215 1078 QCURVE SMOOTH",
"264 1053 OFFCURVE",
"294 1000 QCURVE",
"356 1015 OFFCURVE"
);
},
{
closed = 1;
nodes = (
"466 263 LINE SMOOTH",
"497 300 OFFCURVE",
"525 300 QCURVE SMOOTH",
"582 300 OFFCURVE",
"600 255 QCURVE",
"700 300 OFFCURVE",
"700 365 QCURVE SMOOTH",
"700 429 OFFCURVE",
"653 465 QCURVE SMOOTH",
"605 500 OFFCURVE",
"562 500 QCURVE SMOOTH",
"465 500 OFFCURVE",
"400 349 QCURVE",
"400 800 LINE SMOOTH",
"400 914 OFFCURVE",
"425 928 QCURVE SMOOTH",
"449 943 OFFCURVE",
"486 943 QCURVE SMOOTH",
"523 943 OFFCURVE",
"662 864 QCURVE SMOOTH",
"800 784 OFFCURVE",
"800 750 QCURVE SMOOTH",
"800 -50 LINE",
"1000 150 LINE",
"1000 800 LINE SMOOTH",
"1000 900 OFFCURVE",
"759 1037 QCURVE SMOOTH",
"650 1100 OFFCURVE",
"600 1100 QCURVE SMOOTH",
"550 1100 OFFCURVE",
"375 1000 QCURVE SMOOTH",
"200 900 OFFCURVE",
"200 800 QCURVE SMOOTH",
"200 40 LINE SMOOTH",
"200 0 OFFCURVE",
"225 0 QCURVE SMOOTH",
"250 0 OFFCURVE",
"281 38 QCURVE SMOOTH"
);
}
);
width = 1200;
}
);
note = uni1782;
unicode = 1782;
},
{
glyphname = uni1783;
layers = (
{
layerId = "27714DAC-5FBA-4222-9599-87EDA629626A";
paths = (
{
closed = 1;
nodes = (
"470 970 OFFCURVE",
"510 1060 QCURVE SMOOTH",
"550 1150 OFFCURVE",
"550 1260 QCURVE SMOOTH",
"550 1360 OFFCURVE",
"485 1430 QCURVE SMOOTH",
"420 1500 OFFCURVE",
"300 1500 QCURVE SMOOTH",
"220 1500 OFFCURVE",
"160 1450 QCURVE SMOOTH",
"100 1400 OFFCURVE",
"100 1300 QCURVE SMOOTH",
"100 1170 OFFCURVE",
"231 1167 QCURVE SMOOTH",
"240 1167 LINE SMOOTH",
"360 1167 OFFCURVE",
"360 1245 QCURVE SMOOTH",
"360 1246 LINE",
"300 1250 OFFCURVE",
"300 1295 QCURVE SMOOTH",
"300 1340 OFFCURVE",
"350 1340 QCURVE SMOOTH",
"385 1340 OFFCURVE",
"440 1297 OFFCURVE",
"440 1254 QCURVE SMOOTH",
"440 1197 OFFCURVE",
"393 1141 QCURVE SMOOTH",
"346 1084 OFFCURVE",
"200 1070 QCURVE",
"200 430 LINE SMOOTH",
"200 400 OFFCURVE",
"180 359 OFFCURVE",
"148 345 QCURVE",
"180 250 OFFCURVE",
"242 191 QCURVE SMOOTH",
"304 132 OFFCURVE",
"427 63 QCURVE SMOOTH",
"539 0 OFFCURVE",
"590 0 QCURVE SMOOTH",
"641 0 OFFCURVE",
"821 100 QCURVE SMOOTH",
"863 123 OFFCURVE",
"895 147 QCURVE",
"949 107 OFFCURVE",
"1027 63 QCURVE SMOOTH",
"1139 0 OFFCURVE",
"1190 0 QCURVE SMOOTH",
"1241 0 OFFCURVE",
"1421 100 QCURVE SMOOTH",
"1600 200 OFFCURVE",
"1600 300 QCURVE SMOOTH",
"1600 924 LINE SMOOTH",
"1600 1003 OFFCURVE",
"1537 1053 QCURVE SMOOTH",
"1474 1104 OFFCURVE",
"1348 1127 QCURVE",
"1417 1300 LINE",
"1550 1300 LINE SMOOTH",
"1600 1300 OFFCURVE",
"1600 1266 QCURVE SMOOTH",
"1600 1231 OFFCURVE",
"1584 1170 QCURVE",
"1647 1207 OFFCURVE",
"1674 1293 QCURVE SMOOTH",
"1700 1378 OFFCURVE",
"1700 1500 QCURVE",
"1400 1500 LINE",
"1235 1086 LINE SMOOTH",
"1210 1026 OFFCURVE",
"1210 986 QCURVE SMOOTH",
"1210 946 OFFCURVE",
"1258 940 QCURVE SMOOTH",
"1400 920 OFFCURVE",
"1400 860 QCURVE SMOOTH",
"1400 300 LINE SMOOTH",
"1400 186 OFFCURVE",
"1374 172 QCURVE SMOOTH",
"1350 157 OFFCURVE",
"1312 157 QCURVE SMOOTH",
"1274 157 OFFCURVE",
"1124 237 QCURVE SMOOTH",
"1034 286 OFFCURVE",
"1000 318 QCURVE",
"1000 924 LINE SMOOTH",
"1000 1003 OFFCURVE",
"937 1053 QCURVE SMOOTH",
"874 1104 OFFCURVE",
"748 1127 QCURVE",
"817 1300 LINE",
"950 1300 LINE SMOOTH",
"1000 1300 OFFCURVE",
"1000 1266 QCURVE SMOOTH",
"1000 1231 OFFCURVE",
"984 1170 QCURVE",
"1047 1207 OFFCURVE",
"1074 1293 QCURVE SMOOTH",
"1100 1378 OFFCURVE",
"1100 1500 QCURVE",
"800 1500 LINE",
"635 1086 LINE SMOOTH",
"610 1026 OFFCURVE",
"610 986 QCURVE SMOOTH",
"610 946 OFFCURVE",
"658 940 QCURVE SMOOTH",
"800 920 OFFCURVE",
"800 860 QCURVE SMOOTH",
"800 300 LINE SMOOTH",
"800 186 OFFCURVE",
"774 172 QCURVE SMOOTH",
"750 157 OFFCURVE",
"712 157 QCURVE SMOOTH",
"674 157 OFFCURVE",
"524 237 QCURVE SMOOTH",
"380 316 OFFCURVE",
"380 349 QCURVE",
"400 370 OFFCURVE",
"400 410 QCURVE SMOOTH",
"400 900 LINE"
);
}
);
width = 1800;
}
);
note = uni1783;
unicode = 1783;
},
{
glyphname = uni1784;
layers = (
{
layerId = "27714DAC-5FBA-4222-9599-87EDA629626A";
paths = (
{
closed = 1;
nodes = (
"689 1364 QCURVE SMOOTH",
"689 1373 OFFCURVE",
"695 1380 QCURVE",
"709 1405 OFFCURVE",
"729 1405 QCURVE SMOOTH",
"757 1405 OFFCURVE",
"796 1354 QCURVE SMOOTH",
"809 1336 OFFCURVE",
"809 1325 QCURVE SMOOTH",
"809 1318 OFFCURVE",
"804 1313 QCURVE SMOOTH",
"792 1302 OFFCURVE",
"729 1300 QCURVE",
"689 1340 OFFCURVE"
);
},
{
closed = 1;
nodes = (
"200 711 LINE",
"200 638 LINE",
"160 669 LINE"
);
},
{
closed = 1;
nodes = (
"913 1213 QCURVE SMOOTH",
"999 1274 OFFCURVE",
"999 1337 QCURVE SMOOTH",
"999 1338 LINE SMOOTH",
"999 1400 OFFCURVE",
"950 1460 QCURVE SMOOTH",
"900 1520 OFFCURVE",
"800 1520 QCURVE SMOOTH",
"700 1520 OFFCURVE",
"650 1470 QCURVE SMOOTH",
"600 1420 OFFCURVE",
"600 1349 QCURVE SMOOTH",
"600 1328 OFFCURVE",
"616 1300 QCURVE",
"400 1300 LINE",
"400 1670 LINE SMOOTH",
"400 1900 OFFCURVE",
"280 1900 QCURVE SMOOTH",
"200 1900 OFFCURVE",
"100 1680 QCURVE",
"152 1710 OFFCURVE",
"176 1710 QCURVE SMOOTH",
"200 1710 OFFCURVE",
"200 1670 QCURVE SMOOTH",
"200 1200 LINE SMOOTH",
"200 1130 OFFCURVE",
"300 1100 QCURVE",
"340 1150 OFFCURVE",
"500 1150 QCURVE SMOOTH",
"700 1150 LINE SMOOTH",
"721 1150 OFFCURVE",
"741 1152 QCURVE",
"800 1075 OFFCURVE",
"800 1000 QCURVE SMOOTH",
"800 309 LINE",
"600 548 LINE",
"400 309 LINE",
"400 940 LINE",
"339 1000 OFFCURVE",
"280 1000 QCURVE SMOOTH",
"220 1000 OFFCURVE",
"173 948 QCURVE SMOOTH",
"78 843 LINE SMOOTH",
"30 790 OFFCURVE",
"30 690 QCURVE SMOOTH",
"30 640 OFFCURVE",
"73 608 QCURVE SMOOTH",
"200 510 LINE",
"200 40 LINE SMOOTH",
"200 0 OFFCURVE",
"225 0 QCURVE SMOOTH",
"250 0 OFFCURVE",
"285 41 QCURVE SMOOTH",
"526 327 LINE",
"732 82 LINE SMOOTH",
"800 0 OFFCURVE",
"825 0 QCURVE SMOOTH",
"850 0 OFFCURVE",
"925 75 QCURVE SMOOTH",
"1000 150 LINE",
"1000 1000 LINE SMOOTH",
"1000 1085 OFFCURVE",
"872 1188 QCURVE",
"893 1199 OFFCURVE"
);
}
);
width = 1200;
}
);
note = uni1784;
unicode = 1784;
},
{
glyphname = uni1785;
layers = (
{
layerId = "27714DAC-5FBA-4222-9599-87EDA629626A";
paths = (
{
closed = 1;
nodes = (
"770 751 LINE SMOOTH",
"730 751 OFFCURVE",
"730 787 QCURVE SMOOTH",
"730 823 OFFCURVE",
"800 892 QCURVE",
"800 751 LINE"
);
},
{
closed = 1;
nodes = (
"559 1300 OFFCURVE",
"559 1247 QCURVE SMOOTH",
"559 1220 OFFCURVE",
"549 1180 QCURVE",
"620 1300 OFFCURVE",
"679 1300 QCURVE SMOOTH",
"891 1300 LINE SMOOTH",
"929 1300 OFFCURVE",
"929 1271 QCURVE SMOOTH",
"929 1266 LINE",
"924 1231 OFFCURVE",
"903 1151 QCURVE",
"986 1207 OFFCURVE",
"1013 1293 QCURVE SMOOTH",
"1039 1378 OFFCURVE",
"1039 1500 QCURVE",
"719 1500 LINE SMOOTH",
"674 1500 OFFCURVE",
"609 1400 QCURVE",
"609 1500 OFFCURVE",
"569 1500 QCURVE SMOOTH",
"200 1500 LINE",
"55 1126 LINE SMOOTH",
"30 1066 OFFCURVE",
"30 1026 QCURVE SMOOTH",
"30 986 OFFCURVE",
"78 980 QCURVE SMOOTH",
"200 960 OFFCURVE",
"200 900 QCURVE SMOOTH",
"200 430 LINE SMOOTH",
"200 400 OFFCURVE",
"180 359 OFFCURVE",
"148 345 QCURVE",
"180 250 OFFCURVE",
"242 191 QCURVE SMOOTH",
"304 132 OFFCURVE",
"427 63 QCURVE SMOOTH",
"539 0 OFFCURVE",
"590 0 QCURVE SMOOTH",
"641 0 OFFCURVE",
"821 100 QCURVE SMOOTH",
"1000 200 OFFCURVE",
"1000 300 QCURVE SMOOTH",
"1000 1000 LINE SMOOTH",
"1000 1100 OFFCURVE",
"895 1100 QCURVE SMOOTH",
"849 1100 OFFCURVE",
"731 982 QCURVE SMOOTH",
"600 851 OFFCURVE",
"600 750 QCURVE SMOOTH",
"600 679 OFFCURVE",
"675 600 OFFCURVE",
"770 600 QCURVE SMOOTH",
"800 600 LINE",
"800 300 LINE SMOOTH",
"800 186 OFFCURVE",
"774 172 QCURVE SMOOTH",
"750 157 OFFCURVE",
"712 157 QCURVE SMOOTH",
"674 157 OFFCURVE",
"524 237 QCURVE SMOOTH",
"380 316 OFFCURVE",
"380 349 QCURVE",
"400 370 OFFCURVE",
"400 410 QCURVE SMOOTH",
"400 964 LINE SMOOTH",
"400 1043 OFFCURVE",
"337 1094 QCURVE SMOOTH",
"274 1144 OFFCURVE",
"168 1167 QCURVE",
"217 1300 LINE",
"519 1300 LINE SMOOTH"
);
}
);
width = 1200;
}
);
note = uni1785;
unicode = 1785;
},
{
glyphname = uni1786;
layers = (
{
layerId = "27714DAC-5FBA-4222-9599-87EDA629626A";
paths = (
{
closed = 1;
nodes = (
"770 751 LINE SMOOTH",
"730 751 OFFCURVE",
"730 787 QCURVE SMOOTH",
"730 823 OFFCURVE",
"800 892 QCURVE",
"800 751 LINE"
);
},
{
closed = 1;
nodes = (
"150 441 LINE",
"203 484 LINE",
"203 379 LINE"
);
},
{
closed = 1;
nodes = (
"60 483 LINE SMOOTH",
"10 450 OFFCURVE",
"10 400 QCURVE SMOOTH",
"10 300 OFFCURVE",
"105 209 QCURVE SMOOTH",
"200 117 OFFCURVE",
"200 35 QCURVE SMOOTH",
"200 0 OFFCURVE",
"225 0 QCURVE SMOOTH",
"250 0 OFFCURVE",
"288 38 QCURVE SMOOTH",
"400 150 LINE",
"400 500 LINE",
"465 500 OFFCURVE",
"498 463 QCURVE SMOOTH",
"530 425 OFFCURVE",
"530 350 QCURVE SMOOTH",
"530 175 OFFCURVE",
"584 88 QCURVE SMOOTH",
"638 0 OFFCURVE",
"745 0 QCURVE SMOOTH",
"873 0 OFFCURVE",
"936 75 QCURVE SMOOTH",
"1000 150 OFFCURVE",
"1000 300 QCURVE SMOOTH",
"1000 1000 LINE SMOOTH",
"1000 1100 OFFCURVE",
"895 1100 QCURVE SMOOTH",
"849 1100 OFFCURVE",
"731 982 QCURVE SMOOTH",
"600 851 OFFCURVE",
"600 750 QCURVE SMOOTH",
"600 679 OFFCURVE",
"638 640 QCURVE SMOOTH",
"656 620 OFFCURVE",
"689 610 QCURVE SMOOTH",
"723 600 OFFCURVE",
"770 600 QCURVE SMOOTH",
"800 600 LINE",
"800 300 LINE SMOOTH",
"800 200 OFFCURVE",
"745 200 QCURVE SMOOTH",
"675 200 OFFCURVE",
"675 350 QCURVE SMOOTH",
"675 475 OFFCURVE",
"606 538 QCURVE SMOOTH",
"538 600 OFFCURVE",
"400 600 QCURVE",
"400 964 LINE SMOOTH",
"400 1043 OFFCURVE",
"337 1094 QCURVE SMOOTH",
"274 1144 OFFCURVE",
"168 1167 QCURVE",
"217 1300 LINE",
"519 1300 LINE SMOOTH",
"559 1300 OFFCURVE",
"559 1247 QCURVE SMOOTH",
"559 1220 OFFCURVE",
"549 1180 QCURVE",
"620 1300 OFFCURVE",
"679 1300 QCURVE SMOOTH",
"891 1300 LINE SMOOTH",
"929 1300 OFFCURVE",
"929 1271 QCURVE SMOOTH",
"929 1266 LINE",
"924 1231 OFFCURVE",
"903 1151 QCURVE",
"986 1207 OFFCURVE",
"1013 1293 QCURVE SMOOTH",
"1039 1378 OFFCURVE",
"1039 1500 QCURVE",
"719 1500 LINE SMOOTH",
"674 1500 OFFCURVE",
"609 1400 QCURVE",
"609 1500 OFFCURVE",
"569 1500 QCURVE SMOOTH",
"200 1500 LINE",
"55 1126 LINE SMOOTH",
"30 1066 OFFCURVE",
"30 1026 QCURVE SMOOTH",
"30 986 OFFCURVE",
"78 980 QCURVE SMOOTH",
"200 960 OFFCURVE",
"200 900 QCURVE SMOOTH",
"200 580 LINE"
);
}
);
width = 1200;
}
);
note = uni1786;
unicode = 1786;
},
{
glyphname = uni1787;
layers = (
{
layerId = "27714DAC-5FBA-4222-9599-87EDA629626A";
paths = (
{
closed = 1;
nodes = (
"1035 1502 QCURVE SMOOTH",
"1040 1535 OFFCURVE",
"1040 1573 QCURVE SMOOTH",
"1040 1666 OFFCURVE",
"973 1740 QCURVE SMOOTH",
"906 1814 OFFCURVE",
"905 1858 QCURVE SMOOTH",
"905 1922 OFFCURVE",
"984 2000 QCURVE",
"852 1968 OFFCURVE",
"796 1914 QCURVE SMOOTH",
"740 1860 OFFCURVE",
"740 1801 QCURVE SMOOTH",
"740 1718 OFFCURVE",
"852 1596 QCURVE SMOOTH",
"921 1521 OFFCURVE",
"945 1482 QCURVE SMOOTH",
"954 1468 OFFCURVE",
"954 1451 QCURVE SMOOTH",
"954 1441 OFFCURVE",
"951 1430 QCURVE SMOOTH",
"941 1400 OFFCURVE",
"910 1378 QCURVE",
"910 1439 OFFCURVE",
"888 1470 QCURVE SMOOTH",
"865 1500 OFFCURVE",
"820 1500 QCURVE SMOOTH",
"200 1500 LINE",
"55 1126 LINE SMOOTH",
"30 1066 OFFCURVE",
"30 1026 QCURVE SMOOTH",
"30 986 OFFCURVE",
"78 980 QCURVE SMOOTH",
"200 960 OFFCURVE",
"200 900 QCURVE SMOOTH",
"200 40 LINE SMOOTH",
"200 0 OFFCURVE",
"225 0 QCURVE SMOOTH",
"250 0 OFFCURVE",
"285 41 QCURVE SMOOTH",
"526 327 LINE",
"732 82 LINE SMOOTH",
"800 0 OFFCURVE",
"825 0 QCURVE SMOOTH",
"850 0 OFFCURVE",
"925 75 QCURVE SMOOTH",
"1000 150 LINE",
"1000 1100 LINE",
"800 900 LINE",
"800 309 LINE",
"600 548 LINE",
"400 309 LINE",
"400 964 LINE SMOOTH",
"400 1043 OFFCURVE",
"337 1094 QCURVE SMOOTH",
"274 1144 OFFCURVE",
"168 1167 QCURVE",
"217 1300 LINE",
"781 1300 LINE SMOOTH",
"819 1300 OFFCURVE",
"819 1271 QCURVE SMOOTH",
"819 1266 LINE",
"814 1231 OFFCURVE",
"801 1200 QCURVE",
"814 1196 OFFCURVE",
"826 1196 QCURVE SMOOTH",
"886 1196 OFFCURVE",
"956 1279 QCURVE SMOOTH",
"1020 1356 OFFCURVE"
);
}
);
width = 1200;
}
);
note = uni1787;
unicode = 1787;
},
{
glyphname = uni1788;
layers = (
{
layerId = "27714DAC-5FBA-4222-9599-87EDA629626A";
paths = (
{
closed = 1;
nodes = (
"450 500 LINE SMOOTH",
"490 500 OFFCURVE",
"490 459 QCURVE SMOOTH",
"490 398 OFFCURVE",
"400 309 QCURVE",
"400 500 LINE"
);
},
{
closed = 1;
nodes = (
"1627 63 QCURVE SMOOTH",
"1739 0 OFFCURVE",
"1790 0 QCURVE SMOOTH",
"1841 0 OFFCURVE",
"2021 100 QCURVE SMOOTH",
"2200 200 OFFCURVE",
"2200 300 QCURVE SMOOTH",
"2200 924 LINE SMOOTH",
"2200 1003 OFFCURVE",
"2137 1053 QCURVE SMOOTH",
"2074 1104 OFFCURVE",
"1948 1127 QCURVE",
"2017 1300 LINE",
"2150 1300 LINE SMOOTH",
"2200 1300 OFFCURVE",
"2200 1266 QCURVE SMOOTH",
"2200 1231 OFFCURVE",
"2184 1170 QCURVE",
"2247 1207 OFFCURVE",
"2274 1293 QCURVE SMOOTH",
"2300 1378 OFFCURVE",
"2300 1500 QCURVE",
"2000 1500 LINE",
"1835 1086 LINE SMOOTH",
"1810 1026 OFFCURVE",
"1810 986 QCURVE SMOOTH",
"1810 946 OFFCURVE",
"1858 940 QCURVE SMOOTH",
"2000 920 OFFCURVE",
"2000 860 QCURVE SMOOTH",
"2000 300 LINE SMOOTH",
"2000 186 OFFCURVE",
"1974 172 QCURVE SMOOTH",
"1950 157 OFFCURVE",
"1912 157 QCURVE SMOOTH",
"1874 157 OFFCURVE",
"1724 237 QCURVE SMOOTH",
"1634 286 OFFCURVE",
"1600 318 QCURVE",
"1600 924 LINE SMOOTH",
"1600 1003 OFFCURVE",
"1537 1053 QCURVE SMOOTH",
"1474 1104 OFFCURVE",
"1348 1127 QCURVE",
"1417 1300 LINE",
"1550 1300 LINE SMOOTH",
"1600 1300 OFFCURVE",
"1600 1266 QCURVE SMOOTH",
"1600 1231 OFFCURVE",
"1584 1170 QCURVE",
"1647 1207 OFFCURVE",
"1674 1293 QCURVE SMOOTH",
"1700 1378 OFFCURVE",
"1700 1500 QCURVE",
"1400 1500 LINE",
"1235 1086 LINE SMOOTH",
"1210 1026 OFFCURVE",
"1210 986 QCURVE SMOOTH",
"1210 946 OFFCURVE",
"1258 940 QCURVE SMOOTH",
"1400 920 OFFCURVE",
"1400 860 QCURVE SMOOTH",
"1400 300 LINE SMOOTH",
"1400 186 OFFCURVE",
"1374 172 QCURVE SMOOTH",
"1350 157 OFFCURVE",
"1312 157 QCURVE SMOOTH",
"1274 157 OFFCURVE",
"1124 237 QCURVE SMOOTH",
"980 316 OFFCURVE",
"980 349 QCURVE",
"1000 370 OFFCURVE",
"1000 410 QCURVE SMOOTH",
"1000 1500 LINE",
"200 1500 LINE",
"55 1126 LINE SMOOTH",
"30 1066 OFFCURVE",
"30 1026 QCURVE SMOOTH",
"30 986 OFFCURVE",
"78 980 QCURVE SMOOTH",
"200 960 OFFCURVE",
"200 900 QCURVE SMOOTH",
"200 40 LINE SMOOTH",
"200 0 OFFCURVE",
"225 0 QCURVE SMOOTH",
"250 0 OFFCURVE",
"294 44 QCURVE SMOOTH",
"469 219 LINE SMOOTH",
"600 350 OFFCURVE",
"600 500 QCURVE SMOOTH",
"600 650 OFFCURVE",
"450 650 QCURVE SMOOTH",
"400 650 LINE",
"400 964 LINE SMOOTH",
"400 1043 OFFCURVE",
"337 1094 QCURVE SMOOTH",
"274 1144 OFFCURVE",
"168 1167 QCURVE",
"217 1300 LINE",
"800 1300 LINE",
"800 430 LINE SMOOTH",
"800 400 OFFCURVE",
"780 359 OFFCURVE",
"748 345 QCURVE",
"780 250 OFFCURVE",
"842 191 QCURVE SMOOTH",
"904 132 OFFCURVE",
"1027 63 QCURVE SMOOTH",
"1139 0 OFFCURVE",
"1190 0 QCURVE SMOOTH",
"1241 0 OFFCURVE",
"1421 100 QCURVE SMOOTH",
"1463 123 OFFCURVE",
"1495 147 QCURVE",
"1549 107 OFFCURVE"
);
}
);
width = 2400;
}
);
note = uni1788;
unicode = 1788;
},
{
glyphname = uni1789;
layers = (
{
layerId = "27714DAC-5FBA-4222-9599-87EDA629626A";
paths = (
{
closed = 1;
nodes = (
"450 500 LINE SMOOTH",
"490 500 OFFCURVE",
"490 459 QCURVE SMOOTH",
"490 398 OFFCURVE",
"400 309 QCURVE",
"400 500 LINE"
);
},
{
closed = 1;
nodes = (
"1600 1500 LINE",
"1310 1500 LINE SMOOTH",
"1145 1500 OFFCURVE",
"1000 1300 QCURVE",
"1000 1500 LINE",
"730 1500 LINE SMOOTH",
"645 1500 OFFCURVE",
"570 1370 QCURVE",
"570 1500 OFFCURVE",
"500 1500 QCURVE SMOOTH",
"200 1500 LINE",
"55 1126 LINE SMOOTH",
"30 1066 OFFCURVE",
"30 1026 QCURVE SMOOTH",
"30 986 OFFCURVE",
"78 980 QCURVE SMOOTH",
"200 960 OFFCURVE",
"200 900 QCURVE SMOOTH",
"200 40 LINE SMOOTH",
"200 0 OFFCURVE",
"225 0 QCURVE SMOOTH",
"250 0 OFFCURVE",
"294 44 QCURVE SMOOTH",
"469 219 LINE SMOOTH",
"600 350 OFFCURVE",
"600 500 QCURVE SMOOTH",
"600 650 OFFCURVE",
"450 650 QCURVE SMOOTH",
"400 650 LINE",
"400 964 LINE SMOOTH",
"400 1043 OFFCURVE",
"337 1094 QCURVE SMOOTH",
"274 1144 OFFCURVE",
"168 1167 QCURVE",
"217 1300 LINE",
"460 1300 LINE SMOOTH",
"504 1300 OFFCURVE",
"504 1234 QCURVE SMOOTH",
"504 1210 OFFCURVE",
"499 1179 QCURVE SMOOTH",
"492 1138 LINE",
"611 1300 OFFCURVE",
"700 1300 QCURVE SMOOTH",
"800 1300 LINE",
"800 -50 LINE",
"1000 150 LINE",
"1000 1149 LINE",
"1117 1300 OFFCURVE",
"1280 1300 QCURVE SMOOTH",
"1400 1300 LINE",
"1400 -50 LINE",
"1600 150 LINE"
);
},
{
closed = 1;
nodes = (
"350 -290 OFFCURVE",
"453 -290 QCURVE SMOOTH",
"516 -290 OFFCURVE",
"795 -447 QCURVE SMOOTH",
"1012 -570 OFFCURVE",
"1346 -570 QCURVE SMOOTH",
"1473 -570 OFFCURVE",
"1537 -510 QCURVE SMOOTH",
"1600 -450 OFFCURVE",
"1600 -330 QCURVE SMOOTH",
"1600 -210 OFFCURVE",
"1420 -150 QCURVE",
"1270 -300 LINE",
"1369 -301 OFFCURVE",
"1410 -340 QCURVE SMOOTH",
"1450 -380 OFFCURVE",
"1450 -425 QCURVE SMOOTH",
"1450 -470 OFFCURVE",
"1345 -470 QCURVE SMOOTH",
"1239 -470 OFFCURVE",
"978 -320 QCURVE SMOOTH",
"717 -170 OFFCURVE",
"540 -170 QCURVE SMOOTH",
"363 -170 OFFCURVE",
"257 -295 QCURVE SMOOTH",
"180 -386 OFFCURVE",
"180 -437 QCURVE SMOOTH",
"180 -456 OFFCURVE",
"191 -469 QCURVE",
"271 -379 LINE SMOOTH"
);
}
);
width = 1800;
}
);
note = uni1789;
unicode = 1789;
},
{
glyphname = uni178A;
layers = (
{
layerId = "27714DAC-5FBA-4222-9599-87EDA629626A";
paths = (
{
closed = 1;
nodes = (
"200 40 LINE SMOOTH",
"200 0 OFFCURVE",
"225 0 QCURVE SMOOTH",
"250 0 OFFCURVE",
"285 41 QCURVE SMOOTH",
"526 327 LINE",
"732 82 LINE SMOOTH",
"800 0 OFFCURVE",
"825 0 QCURVE SMOOTH",
"850 0 OFFCURVE",
"925 75 QCURVE SMOOTH",
"1000 150 LINE",
"1000 1100 LINE",
"800 900 LINE",
"800 309 LINE",
"600 548 LINE",
"400 309 LINE",
"400 900 LINE",
"200 900 LINE"
);
},
{
closed = 1;
nodes = (
"1000 1432 QCURVE SMOOTH",
"1000 1536 OFFCURVE",
"884 1742 OFFCURVE",
"883 1780 QCURVE SMOOTH",
"883 1851 OFFCURVE",
"951 1939 QCURVE",
"837 1903 OFFCURVE",
"789 1843 QCURVE SMOOTH",
"740 1783 OFFCURVE",
"740 1716 QCURVE SMOOTH",
"740 1586 OFFCURVE",
"810 1454 QCURVE SMOOTH",
"839 1400 OFFCURVE",
"839 1355 QCURVE SMOOTH",
"839 1289 OFFCURVE",
"778 1241 QCURVE SMOOTH",
"717 1192 OFFCURVE",
"617 1192 QCURVE SMOOTH",
"552 1192 OFFCURVE",
"470 1213 QCURVE SMOOTH",
"286 1260 OFFCURVE",
"286 1294 QCURVE SMOOTH",
"286 1298 OFFCURVE",
"289 1302 QCURVE SMOOTH",
"308 1328 OFFCURVE",
"341 1328 QCURVE SMOOTH",
"353 1328 OFFCURVE",
"366 1325 QCURVE SMOOTH",
"402 1316 OFFCURVE",
"402 1293 QCURVE SMOOTH",
"402 1283 OFFCURVE",
"395 1271 QCURVE",
"442 1259 OFFCURVE",
"480 1259 QCURVE SMOOTH",
"573 1259 OFFCURVE",
"620 1325 QCURVE SMOOTH",
"648 1364 OFFCURVE",
"648 1395 QCURVE SMOOTH",
"648 1412 OFFCURVE",
"640 1426 QCURVE SMOOTH",
"617 1468 OFFCURVE",
"527 1491 QCURVE SMOOTH",
"489 1500 OFFCURVE",
"454 1500 QCURVE SMOOTH",
"406 1500 OFFCURVE",
"362 1483 QCURVE SMOOTH",
"286 1452 OFFCURVE",
"224 1369 QCURVE",
"130 1221 OFFCURVE",
"130 1181 QCURVE SMOOTH",
"130 1098 OFFCURVE",
"364 1035 QCURVE SMOOTH",
"432 1016 OFFCURVE",
"497 1016 QCURVE SMOOTH",
"656 1016 OFFCURVE",
"799 1128 QCURVE SMOOTH",
"1000 1285 OFFCURVE"
);
}
);
width = 1200;
}
);
note = uni178A;
unicode = 178A;
},
{
glyphname = uni178B;
layers = (
{
layerId = "27714DAC-5FBA-4222-9599-87EDA629626A";
paths = (
{
closed = 1;
nodes = (
"1155 1502 QCURVE SMOOTH",
"1160 1535 OFFCURVE",
"1160 1573 QCURVE SMOOTH",
"1160 1666 OFFCURVE",
"1093 1740 QCURVE SMOOTH",
"1026 1814 OFFCURVE",
"1025 1858 QCURVE SMOOTH",
"1025 1922 OFFCURVE",
"1104 2000 QCURVE",
"972 1968 OFFCURVE",
"916 1914 QCURVE SMOOTH",
"860 1860 OFFCURVE",
"860 1801 QCURVE SMOOTH",
"860 1718 OFFCURVE",
"972 1596 QCURVE SMOOTH",
"1041 1521 OFFCURVE",
"1065 1482 QCURVE SMOOTH",
"1074 1468 OFFCURVE",
"1074 1451 QCURVE SMOOTH",
"1074 1441 OFFCURVE",
"1071 1430 QCURVE SMOOTH",
"1061 1400 OFFCURVE",
"1030 1378 QCURVE",
"1030 1439 OFFCURVE",
"1008 1470 QCURVE SMOOTH",
"985 1500 OFFCURVE",
"940 1500 QCURVE SMOOTH",
"800 1500 LINE",
"635 1086 LINE SMOOTH",
"610 1026 OFFCURVE",
"610 986 QCURVE SMOOTH",
"610 946 OFFCURVE",
"658 940 QCURVE SMOOTH",
"800 920 OFFCURVE",
"800 860 QCURVE SMOOTH",
"800 300 LINE SMOOTH",
"800 186 OFFCURVE",
"774 172 QCURVE SMOOTH",
"750 157 OFFCURVE",
"712 157 QCURVE SMOOTH",
"674 157 OFFCURVE",
"524 237 QCURVE SMOOTH",
"380 316 OFFCURVE",
"380 349 QCURVE",
"400 370 OFFCURVE",
"400 410 QCURVE SMOOTH",
"400 900 LINE",
"470 970 OFFCURVE",
"510 1060 QCURVE SMOOTH",
"550 1150 OFFCURVE",
"550 1260 QCURVE SMOOTH",
"550 1360 OFFCURVE",
"485 1430 QCURVE SMOOTH",
"420 1500 OFFCURVE",
"300 1500 QCURVE SMOOTH",
"220 1500 OFFCURVE",
"160 1450 QCURVE SMOOTH",
"100 1400 OFFCURVE",
"100 1300 QCURVE SMOOTH",
"100 1170 OFFCURVE",
"231 1167 QCURVE SMOOTH",
"240 1167 LINE SMOOTH",
"360 1167 OFFCURVE",
"360 1245 QCURVE SMOOTH",
"360 1246 LINE",
"300 1250 OFFCURVE",
"300 1295 QCURVE SMOOTH",
"300 1340 OFFCURVE",
"350 1340 QCURVE SMOOTH",
"385 1340 OFFCURVE",
"440 1297 OFFCURVE",
"440 1254 QCURVE SMOOTH",
"440 1197 OFFCURVE",
"393 1141 QCURVE SMOOTH",
"346 1084 OFFCURVE",
"200 1070 QCURVE",
"200 430 LINE SMOOTH",
"200 400 OFFCURVE",
"180 359 OFFCURVE",
"148 345 QCURVE",
"180 250 OFFCURVE",
"242 191 QCURVE SMOOTH",
"304 132 OFFCURVE",
"427 63 QCURVE SMOOTH",
"539 0 OFFCURVE",
"590 0 QCURVE SMOOTH",
"641 0 OFFCURVE",
"821 100 QCURVE SMOOTH",
"1000 200 OFFCURVE",
"1000 300 QCURVE SMOOTH",
"1000 924 LINE SMOOTH",
"1000 1003 OFFCURVE",
"937 1053 QCURVE SMOOTH",
"874 1104 OFFCURVE",
"748 1127 QCURVE",
"817 1300 LINE",
"901 1300 LINE SMOOTH",
"939 1300 OFFCURVE",
"939 1271 QCURVE SMOOTH",
"939 1266 LINE",
"934 1231 OFFCURVE",
"921 1200 QCURVE",
"934 1196 OFFCURVE",
"946 1196 QCURVE SMOOTH",
"1006 1196 OFFCURVE",
"1076 1279 QCURVE SMOOTH",
"1140 1356 OFFCURVE"
);
}
);
width = 1200;
}
);
note = uni178B;
unicode = 178B;
},
{
glyphname = uni178C;
layers = (
{
layerId = "27714DAC-5FBA-4222-9599-87EDA629626A";
paths = (
{
closed = 1;
nodes = (
"1000 100 LINE",
"1000 750 LINE",
"800 550 LINE",
"800 202 LINE",
"706 145 LINE SMOOTH",
"686 132 OFFCURVE",
"662 132 QCURVE SMOOTH",
"568 132 OFFCURVE",
"400 320 QCURVE",
"400 510 LINE",
"700 710 LINE SMOOTH",
"1000 910 OFFCURVE",
"1000 1000 QCURVE SMOOTH",
"1000 1500 LINE",
"770 1500 LINE SMOOTH",
"685 1500 OFFCURVE",
"610 1370 QCURVE",
"610 1500 OFFCURVE",
"540 1500 QCURVE SMOOTH",
"300 1500 LINE",
"250 1390 LINE SMOOTH",
"200 1280 OFFCURVE",
"200 1138 QCURVE SMOOTH",
"200 995 OFFCURVE",
"243 964 QCURVE SMOOTH",
"286 933 OFFCURVE",
"398 909 QCURVE",
"487 970 OFFCURVE",
"528 1078 QCURVE",
"345 1138 OFFCURVE",
"315 1179 QCURVE SMOOTH",
"300 1198 OFFCURVE",
"300 1226 QCURVE SMOOTH",
"300 1258 OFFCURVE",
"318 1300 QCURVE",
"500 1300 LINE SMOOTH",
"544 1300 OFFCURVE",
"544 1234 QCURVE SMOOTH",
"544 1210 OFFCURVE",
"539 1179 QCURVE SMOOTH",
"532 1138 LINE",
"651 1300 OFFCURVE",
"740 1300 QCURVE SMOOTH",
"800 1300 LINE",
"800 1000 LINE SMOOTH",
"800 910 OFFCURVE",
"600 770 QCURVE SMOOTH",
"400 630 OFFCURVE",
"200 630 QCURVE",
"200 300 LINE SMOOTH",
"200 200 OFFCURVE",
"375 100 QCURVE SMOOTH",
"550 0 OFFCURVE",
"600 0 QCURVE SMOOTH",
"650 0 OFFCURVE",
"759 63 QCURVE SMOOTH",
"801 88 LINE",
"801 -100 LINE"
);
}
);
width = 1200;
}
);
note = uni178C;
unicode = 178C;
},
{
glyphname = uni178D;
layers = (
{
layerId = "27714DAC-5FBA-4222-9599-87EDA629626A";
paths = (
{
closed = 1;
nodes = (
"750 441 LINE",
"803 484 LINE",
"803 379 LINE"
);
},
{
closed = 1;
nodes = (
"440 500 LINE SMOOTH",
"477 500 OFFCURVE",
"477 469 QCURVE SMOOTH",
"477 418 OFFCURVE",
"400 329 QCURVE",
"400 500 LINE"
);
},
{
closed = 1;
nodes = (
"1400 200 OFFCURVE",
"1345 200 QCURVE SMOOTH",
"1275 200 OFFCURVE",
"1275 350 QCURVE SMOOTH",
"1275 475 OFFCURVE",
"1206 538 QCURVE SMOOTH",
"1138 600 OFFCURVE",
"1000 600 QCURVE",
"1000 1500 LINE",
"730 1500 LINE SMOOTH",
"645 1500 OFFCURVE",
"570 1370 QCURVE",
"570 1500 OFFCURVE",
"500 1500 QCURVE SMOOTH",
"200 1500 LINE",
"55 1126 LINE SMOOTH",
"30 1066 OFFCURVE",
"30 1026 QCURVE SMOOTH",
"30 986 OFFCURVE",
"78 980 QCURVE SMOOTH",
"200 960 OFFCURVE",
"200 900 QCURVE SMOOTH",
"200 40 LINE SMOOTH",
"200 0 OFFCURVE",
"225 0 QCURVE SMOOTH",
"250 0 OFFCURVE",
"293 50 QCURVE SMOOTH",
"463 250 LINE SMOOTH",
"590 400 OFFCURVE",
"590 520 QCURVE SMOOTH",
"590 585 OFFCURVE",
"553 618 QCURVE SMOOTH",
"515 650 OFFCURVE",
"440 650 QCURVE SMOOTH",
"400 650 LINE",
"400 964 LINE SMOOTH",
"400 1043 OFFCURVE",
"337 1094 QCURVE SMOOTH",
"274 1144 OFFCURVE",
"168 1167 QCURVE",
"217 1300 LINE",
"460 1300 LINE SMOOTH",
"504 1300 OFFCURVE",
"504 1234 QCURVE SMOOTH",
"504 1210 OFFCURVE",
"499 1179 QCURVE SMOOTH",
"492 1138 LINE",
"611 1300 OFFCURVE",
"700 1300 QCURVE SMOOTH",
"800 1300 LINE",
"800 580 LINE",
"660 483 LINE SMOOTH",
"610 450 OFFCURVE",
"610 400 QCURVE SMOOTH",
"610 300 OFFCURVE",
"705 209 QCURVE SMOOTH",
"800 117 OFFCURVE",
"800 35 QCURVE SMOOTH",
"800 0 OFFCURVE",
"825 0 QCURVE SMOOTH",
"850 0 OFFCURVE",
"888 38 QCURVE SMOOTH",
"1000 150 LINE",
"1000 500 LINE",
"1065 500 OFFCURVE",
"1098 463 QCURVE SMOOTH",
"1130 425 OFFCURVE",
"1130 350 QCURVE SMOOTH",
"1130 175 OFFCURVE",
"1184 88 QCURVE SMOOTH",
"1238 0 OFFCURVE",
"1345 0 QCURVE SMOOTH",
"1473 0 OFFCURVE",
"1536 75 QCURVE SMOOTH",
"1600 150 OFFCURVE",
"1600 300 QCURVE SMOOTH",
"1600 924 LINE SMOOTH",
"1600 1003 OFFCURVE",
"1537 1053 QCURVE SMOOTH",
"1474 1104 OFFCURVE",
"1348 1127 QCURVE",
"1417 1300 LINE",
"1550 1300 LINE SMOOTH",
"1600 1300 OFFCURVE",
"1600 1266 QCURVE SMOOTH",
"1600 1231 OFFCURVE",
"1584 1170 QCURVE",
"1647 1207 OFFCURVE",
"1674 1293 QCURVE SMOOTH",
"1700 1378 OFFCURVE",
"1700 1500 QCURVE",
"1400 1500 LINE",
"1235 1086 LINE SMOOTH",
"1210 1026 OFFCURVE",
"1210 986 QCURVE SMOOTH",
"1210 946 OFFCURVE",
"1258 940 QCURVE SMOOTH",
"1400 920 OFFCURVE",
"1400 860 QCURVE SMOOTH",
"1400 300 LINE SMOOTH"
);
}
);
width = 1800;
}
);
note = uni178D;
unicode = 178D;
},
{
glyphname = uni178E;
layers = (
{
layerId = "27714DAC-5FBA-4222-9599-87EDA629626A";
paths = (
{
closed = 1;
nodes = (
"450 500 LINE SMOOTH",
"490 500 OFFCURVE",
"490 459 QCURVE SMOOTH",
"490 398 OFFCURVE",
"400 309 QCURVE",
"400 500 LINE"
);
},
{
closed = 1;
nodes = (
"800 0 OFFCURVE",
"825 0 QCURVE SMOOTH",
"850 0 OFFCURVE",
"885 41 QCURVE SMOOTH",
"1126 327 LINE",
"1332 82 LINE SMOOTH",
"1400 0 OFFCURVE",
"1425 0 QCURVE SMOOTH",
"1450 0 OFFCURVE",
"1525 75 QCURVE SMOOTH",
"1600 150 LINE",
"1600 964 LINE SMOOTH",
"1600 1043 OFFCURVE",
"1537 1094 QCURVE SMOOTH",
"1474 1144 OFFCURVE",
"1368 1167 QCURVE",
"1417 1300 LINE",
"2000 1300 LINE",
"2000 -50 LINE",
"2200 150 LINE",
"2200 1500 LINE",
"1400 1500 LINE",
"1255 1126 LINE SMOOTH",
"1230 1066 OFFCURVE",
"1230 1026 QCURVE SMOOTH",
"1230 986 OFFCURVE",
"1278 980 QCURVE SMOOTH",
"1400 960 OFFCURVE",
"1400 900 QCURVE SMOOTH",
"1400 309 LINE",
"1200 548 LINE",
"1000 309 LINE",
"1000 1500 LINE",
"200 1500 LINE",
"55 1126 LINE SMOOTH",
"30 1066 OFFCURVE",
"30 1026 QCURVE SMOOTH",
"30 986 OFFCURVE",
"78 980 QCURVE SMOOTH",
"200 960 OFFCURVE",
"200 900 QCURVE SMOOTH",
"200 40 LINE SMOOTH",
"200 0 OFFCURVE",
"225 0 QCURVE SMOOTH",
"250 0 OFFCURVE",
"294 44 QCURVE SMOOTH",
"469 219 LINE SMOOTH",
"600 350 OFFCURVE",
"600 500 QCURVE SMOOTH",
"600 650 OFFCURVE",
"450 650 QCURVE SMOOTH",
"400 650 LINE",
"400 964 LINE SMOOTH",
"400 1043 OFFCURVE",
"337 1094 QCURVE SMOOTH",
"274 1144 OFFCURVE",
"168 1167 QCURVE",
"217 1300 LINE",
"800 1300 LINE",
"800 40 LINE SMOOTH"
);
}
);
width = 2400;
}
);
note = uni178E;
unicode = 178E;
},
{
glyphname = uni178F;
layers = (
{
layerId = "27714DAC-5FBA-4222-9599-87EDA629626A";
paths = (
{
closed = 1;
nodes = (
"250 0 OFFCURVE",
"294 44 QCURVE SMOOTH",
"469 219 LINE SMOOTH",
"600 350 OFFCURVE",
"600 451 QCURVE SMOOTH",
"600 501 OFFCURVE",
"563 525 QCURVE SMOOTH",
"525 550 OFFCURVE",
"450 550 QCURVE SMOOTH",
"400 550 LINE",
"400 800 LINE SMOOTH",
"400 914 OFFCURVE",
"425 928 QCURVE SMOOTH",
"449 943 OFFCURVE",
"486 943 QCURVE SMOOTH",
"523 943 OFFCURVE",
"662 864 QCURVE SMOOTH",
"800 784 OFFCURVE",
"800 750 QCURVE SMOOTH",
"800 -50 LINE",
"1000 150 LINE",
"1000 800 LINE SMOOTH",
"1000 900 OFFCURVE",
"759 1037 QCURVE SMOOTH",
"650 1100 OFFCURVE",
"600 1100 QCURVE SMOOTH",
"550 1100 OFFCURVE",
"375 1000 QCURVE SMOOTH",
"200 900 OFFCURVE",
"200 800 QCURVE SMOOTH",
"200 40 LINE SMOOTH",
"200 0 OFFCURVE",
"225 0 QCURVE SMOOTH"
);
},
{
closed = 1;
nodes = (
"402 1071 QCURVE SMOOTH",
"423 1097 OFFCURVE",
"423 1121 QCURVE SMOOTH",
"423 1150 OFFCURVE",
"394 1175 QCURVE SMOOTH",
"340 1223 OFFCURVE",
"274 1250 QCURVE",
"298 1300 LINE",
"560 1300 LINE SMOOTH",
"600 1300 OFFCURVE",
"600 1247 QCURVE SMOOTH",
"600 1220 OFFCURVE",
"590 1180 QCURVE",
"661 1300 OFFCURVE",
"720 1300 QCURVE SMOOTH",
"902 1300 LINE SMOOTH",
"940 1300 OFFCURVE",
"940 1271 QCURVE SMOOTH",
"940 1266 LINE",
"935 1231 OFFCURVE",
"914 1151 QCURVE",
"997 1207 OFFCURVE",
"1024 1293 QCURVE SMOOTH",
"1050 1378 OFFCURVE",
"1050 1500 QCURVE",
"760 1500 LINE SMOOTH",
"715 1500 OFFCURVE",
"650 1400 QCURVE",
"650 1500 OFFCURVE",
"610 1500 QCURVE SMOOTH",
"300 1500 LINE",
"100 1100 LINE",
"114 1100 LINE SMOOTH",
"172 1100 OFFCURVE",
"215 1078 QCURVE SMOOTH",
"264 1053 OFFCURVE",
"294 1000 QCURVE",
"356 1015 OFFCURVE"
);
},
{
closed = 1;
nodes = (
"450 450 LINE SMOOTH",
"490 450 OFFCURVE",
"490 424 QCURVE SMOOTH",
"490 398 OFFCURVE",
"400 309 QCURVE",
"400 450 LINE"
);
}
);
width = 1200;
}
);
note = uni178F;
unicode = 178F;
},
{
glyphname = uni1790;
layers = (
{
layerId = "27714DAC-5FBA-4222-9599-87EDA629626A";
paths = (
{
closed = 1;
nodes = (
"770 751 LINE SMOOTH",
"730 751 OFFCURVE",
"730 787 QCURVE SMOOTH",
"730 823 OFFCURVE",
"800 892 QCURVE",
"800 751 LINE"
);
},
{
closed = 1;
nodes = (
"1035 1502 QCURVE SMOOTH",
"1040 1535 OFFCURVE",
"1040 1573 QCURVE SMOOTH",
"1040 1666 OFFCURVE",
"973 1740 QCURVE SMOOTH",
"906 1814 OFFCURVE",
"905 1858 QCURVE SMOOTH",
"905 1922 OFFCURVE",
"984 2000 QCURVE",
"852 1968 OFFCURVE",
"796 1914 QCURVE SMOOTH",
"740 1860 OFFCURVE",
"740 1801 QCURVE SMOOTH",
"740 1718 OFFCURVE",
"852 1596 QCURVE SMOOTH",
"921 1521 OFFCURVE",
"945 1482 QCURVE SMOOTH",
"954 1468 OFFCURVE",
"954 1451 QCURVE SMOOTH",
"954 1441 OFFCURVE",
"951 1430 QCURVE SMOOTH",
"941 1400 OFFCURVE",
"910 1378 QCURVE",
"910 1439 OFFCURVE",
"888 1470 QCURVE SMOOTH",
"865 1500 OFFCURVE",
"820 1500 QCURVE SMOOTH",
"200 1500 LINE",
"55 1126 LINE SMOOTH",
"30 1066 OFFCURVE",
"30 1026 QCURVE SMOOTH",
"30 986 OFFCURVE",
"78 980 QCURVE SMOOTH",
"200 960 OFFCURVE",
"200 900 QCURVE SMOOTH",
"200 430 LINE SMOOTH",
"200 400 OFFCURVE",
"180 359 OFFCURVE",
"148 345 QCURVE",
"180 250 OFFCURVE",
"242 191 QCURVE SMOOTH",
"304 132 OFFCURVE",
"427 63 QCURVE SMOOTH",
"539 0 OFFCURVE",
"590 0 QCURVE SMOOTH",
"641 0 OFFCURVE",
"821 100 QCURVE SMOOTH",
"1000 200 OFFCURVE",
"1000 300 QCURVE SMOOTH",
"1000 1000 LINE SMOOTH",
"1000 1100 OFFCURVE",
"895 1100 QCURVE SMOOTH",
"849 1100 OFFCURVE",
"731 982 QCURVE SMOOTH",
"600 851 OFFCURVE",
"600 750 QCURVE SMOOTH",
"600 679 OFFCURVE",
"675 600 OFFCURVE",
"770 600 QCURVE SMOOTH",
"800 600 LINE",
"800 300 LINE SMOOTH",
"800 186 OFFCURVE",
"774 172 QCURVE SMOOTH",
"750 157 OFFCURVE",
"712 157 QCURVE SMOOTH",
"674 157 OFFCURVE",
"524 237 QCURVE SMOOTH",
"380 316 OFFCURVE",
"380 349 QCURVE",
"400 370 OFFCURVE",
"400 410 QCURVE SMOOTH",
"400 964 LINE SMOOTH",
"400 1043 OFFCURVE",
"337 1094 QCURVE SMOOTH",
"274 1144 OFFCURVE",
"168 1167 QCURVE",
"217 1300 LINE",
"781 1300 LINE SMOOTH",
"819 1300 OFFCURVE",
"819 1271 QCURVE SMOOTH",
"819 1266 LINE",
"814 1231 OFFCURVE",
"801 1200 QCURVE",
"814 1196 OFFCURVE",
"826 1196 QCURVE SMOOTH",
"886 1196 OFFCURVE",
"956 1279 QCURVE SMOOTH",
"1020 1356 OFFCURVE"
);
}
);
width = 1200;
}
);
note = uni1790;
unicode = 1790;
},
{
glyphname = uni1791;
layers = (
{
layerId = "27714DAC-5FBA-4222-9599-87EDA629626A";
paths = (
{
closed = 1;
nodes = (
"531 734 QCURVE SMOOTH",
"738 677 LINE",
"806 657 LINE SMOOTH",
"822 653 OFFCURVE",
"838 653 QCURVE SMOOTH",
"893 653 OFFCURVE",
"953 702 QCURVE SMOOTH",
"1030 765 OFFCURVE",
"1030 918 QCURVE",
"979 845 OFFCURVE",
"906 845 QCURVE SMOOTH",
"886 845 OFFCURVE",
"863 851 QCURVE SMOOTH",
"589 926 LINE SMOOTH",
"424 970 OFFCURVE",
"338 1054 QCURVE SMOOTH",
"251 1137 LINE",
"317 1300 LINE",
"870 1300 LINE SMOOTH",
"908 1300 OFFCURVE",
"908 1275 QCURVE SMOOTH",
"908 1264 OFFCURVE",
"902 1250 QCURVE SMOOTH",
"880 1200 OFFCURVE",
"796 1200 QCURVE SMOOTH",
"712 1200 OFFCURVE",
"619 1255 QCURVE",
"447 1126 LINE",
"655 1000 OFFCURVE",
"776 1000 QCURVE SMOOTH",
"897 1000 OFFCURVE",
"947 1142 QCURVE SMOOTH",
"997 1284 LINE SMOOTH",
"1030 1378 OFFCURVE",
"1030 1500 QCURVE",
"300 1500 LINE",
"173 1200 LINE SMOOTH",
"130 1100 OFFCURVE",
"130 976 QCURVE",
"179 930 LINE SMOOTH",
"325 792 OFFCURVE"
);
},
{
closed = 1;
nodes = (
"350 730 OFFCURVE",
"313 693 QCURVE SMOOTH",
"200 580 LINE",
"200 300 LINE SMOOTH",
"200 200 OFFCURVE",
"441 63 QCURVE SMOOTH",
"550 0 OFFCURVE",
"600 0 QCURVE SMOOTH",
"650 0 OFFCURVE",
"825 100 QCURVE SMOOTH",
"1000 200 OFFCURVE",
"1000 300 QCURVE SMOOTH",
"1000 711 LINE",
"975 663 OFFCURVE",
"923 636 QCURVE SMOOTH",
"880 613 OFFCURVE",
"825 613 QCURVE SMOOTH",
"813 613 OFFCURVE",
"800 614 QCURVE",
"800 300 LINE SMOOTH",
"800 186 OFFCURVE",
"775 172 QCURVE SMOOTH",
"751 157 OFFCURVE",
"714 157 QCURVE SMOOTH",
"677 157 OFFCURVE",
"538 236 QCURVE SMOOTH",
"400 316 OFFCURVE",
"400 350 QCURVE SMOOTH",
"400 680 LINE SMOOTH",
"400 730 OFFCURVE",
"375 730 QCURVE SMOOTH"
);
}
);
width = 1200;
}
);
note = uni1791;
unicode = 1791;
},
{
glyphname = uni1792;
layers = (
{
layerId = "27714DAC-5FBA-4222-9599-87EDA629626A";
paths = (
{
closed = 1;
nodes = (
"770 751 LINE SMOOTH",
"730 751 OFFCURVE",
"730 787 QCURVE SMOOTH",
"730 823 OFFCURVE",
"800 892 QCURVE",
"800 751 LINE"
);
},
{
closed = 1;
nodes = (
"600 548 LINE",
"400 309 LINE",
"400 964 LINE SMOOTH",
"400 1043 OFFCURVE",
"337 1094 QCURVE SMOOTH",
"274 1144 OFFCURVE",
"168 1167 QCURVE",
"217 1300 LINE",
"519 1300 LINE SMOOTH",
"559 1300 OFFCURVE",
"559 1247 QCURVE SMOOTH",
"559 1220 OFFCURVE",
"549 1180 QCURVE",
"620 1300 OFFCURVE",
"679 1300 QCURVE SMOOTH",
"891 1300 LINE SMOOTH",
"929 1300 OFFCURVE",
"929 1271 QCURVE SMOOTH",
"929 1266 LINE",
"924 1231 OFFCURVE",
"903 1151 QCURVE",
"986 1207 OFFCURVE",
"1013 1293 QCURVE SMOOTH",
"1039 1378 OFFCURVE",
"1039 1500 QCURVE",
"719 1500 LINE SMOOTH",
"674 1500 OFFCURVE",
"609 1400 QCURVE",
"609 1500 OFFCURVE",
"569 1500 QCURVE SMOOTH",
"200 1500 LINE",
"55 1126 LINE SMOOTH",
"30 1066 OFFCURVE",
"30 1026 QCURVE SMOOTH",
"30 986 OFFCURVE",
"78 980 QCURVE SMOOTH",
"200 960 OFFCURVE",
"200 900 QCURVE SMOOTH",
"200 40 LINE SMOOTH",
"200 0 OFFCURVE",
"225 0 QCURVE SMOOTH",
"250 0 OFFCURVE",
"285 41 QCURVE SMOOTH",
"526 327 LINE",
"732 82 LINE SMOOTH",
"800 0 OFFCURVE",
"825 0 QCURVE SMOOTH",
"850 0 OFFCURVE",
"925 75 QCURVE SMOOTH",
"1000 150 LINE",
"1000 1000 LINE SMOOTH",
"1000 1100 OFFCURVE",
"895 1100 QCURVE SMOOTH",
"849 1100 OFFCURVE",
"731 982 QCURVE SMOOTH",
"600 851 OFFCURVE",
"600 750 QCURVE SMOOTH",
"600 679 OFFCURVE",
"675 600 OFFCURVE",
"770 600 QCURVE SMOOTH",
"800 600 LINE",
"800 309 LINE"
);
}
);
width = 1200;
}
);
note = uni1792;
unicode = 1792;
},
{
glyphname = uni1793;
layers = (
{
layerId = "27714DAC-5FBA-4222-9599-87EDA629626A";
paths = (
{
closed = 1;
nodes = (
"531 734 QCURVE SMOOTH",
"738 677 LINE",
"806 657 LINE SMOOTH",
"822 653 OFFCURVE",
"838 653 QCURVE SMOOTH",
"893 653 OFFCURVE",
"953 702 QCURVE SMOOTH",
"1030 765 OFFCURVE",
"1030 918 QCURVE",
"979 845 OFFCURVE",
"906 845 QCURVE SMOOTH",
"886 845 OFFCURVE",
"863 851 QCURVE SMOOTH",
"589 926 LINE SMOOTH",
"424 970 OFFCURVE",
"338 1054 QCURVE SMOOTH",
"251 1137 LINE",
"317 1300 LINE",
"870 1300 LINE SMOOTH",
"908 1300 OFFCURVE",
"908 1275 QCURVE SMOOTH",
"908 1264 OFFCURVE",
"902 1250 QCURVE SMOOTH",
"880 1200 OFFCURVE",
"796 1200 QCURVE SMOOTH",
"712 1200 OFFCURVE",
"619 1255 QCURVE",
"447 1126 LINE",
"655 1000 OFFCURVE",
"776 1000 QCURVE SMOOTH",
"897 1000 OFFCURVE",
"947 1142 QCURVE SMOOTH",
"997 1284 LINE SMOOTH",
"1030 1378 OFFCURVE",
"1030 1500 QCURVE",
"300 1500 LINE",
"173 1200 LINE SMOOTH",
"130 1100 OFFCURVE",
"130 976 QCURVE",
"179 930 LINE SMOOTH",
"325 792 OFFCURVE"
);
},
{
closed = 1;
nodes = (
"200 0 OFFCURVE",
"225 0 QCURVE SMOOTH",
"250 0 OFFCURVE",
"285 41 QCURVE SMOOTH",
"526 327 LINE",
"732 82 LINE SMOOTH",
"800 0 OFFCURVE",
"825 0 QCURVE SMOOTH",
"850 0 OFFCURVE",
"925 75 QCURVE SMOOTH",
"1000 150 LINE",
"1000 711 LINE",
"975 663 OFFCURVE",
"923 636 QCURVE SMOOTH",
"880 613 OFFCURVE",
"825 613 QCURVE SMOOTH",
"813 613 OFFCURVE",
"800 614 QCURVE",
"800 309 LINE",
"600 548 LINE",
"400 309 LINE",
"400 680 LINE SMOOTH",
"400 730 OFFCURVE",
"375 730 QCURVE SMOOTH",
"350 730 OFFCURVE",
"313 693 QCURVE SMOOTH",
"200 580 LINE",
"200 40 LINE SMOOTH"
);
}
);
width = 1200;
}
);
note = uni1793;
unicode = 1793;
},
{
glyphname = uni1794;
layers = (
{
layerId = "27714DAC-5FBA-4222-9599-87EDA629626A";
paths = (
{
closed = 1;
nodes = (
"1000 1003 OFFCURVE",
"937 1053 QCURVE SMOOTH",
"874 1104 OFFCURVE",
"748 1127 QCURVE",
"817 1300 LINE",
"950 1300 LINE SMOOTH",
"1000 1300 OFFCURVE",
"1000 1266 QCURVE SMOOTH",
"1000 1231 OFFCURVE",
"984 1170 QCURVE",
"1047 1207 OFFCURVE",
"1074 1293 QCURVE SMOOTH",
"1100 1378 OFFCURVE",
"1100 1500 QCURVE",
"800 1500 LINE",
"635 1086 LINE SMOOTH",
"610 1026 OFFCURVE",
"610 986 QCURVE SMOOTH",
"610 946 OFFCURVE",
"658 940 QCURVE SMOOTH",
"800 920 OFFCURVE",
"800 860 QCURVE SMOOTH",
"800 300 LINE SMOOTH",
"800 186 OFFCURVE",
"774 172 QCURVE SMOOTH",
"750 157 OFFCURVE",
"712 157 QCURVE SMOOTH",
"674 157 OFFCURVE",
"524 237 QCURVE SMOOTH",
"380 316 OFFCURVE",
"380 349 QCURVE",
"400 370 OFFCURVE",
"400 410 QCURVE SMOOTH",
"400 924 LINE SMOOTH",
"400 1003 OFFCURVE",
"337 1053 QCURVE SMOOTH",
"274 1104 OFFCURVE",
"148 1127 QCURVE",
"217 1300 LINE",
"350 1300 LINE SMOOTH",
"400 1300 OFFCURVE",
"400 1266 QCURVE SMOOTH",
"400 1231 OFFCURVE",
"384 1170 QCURVE",
"447 1207 OFFCURVE",
"474 1293 QCURVE SMOOTH",
"500 1378 OFFCURVE",
"500 1500 QCURVE",
"200 1500 LINE",
"35 1086 LINE SMOOTH",
"10 1026 OFFCURVE",
"10 986 QCURVE SMOOTH",
"10 946 OFFCURVE",
"58 940 QCURVE SMOOTH",
"200 920 OFFCURVE",
"200 860 QCURVE SMOOTH",
"200 430 LINE SMOOTH",
"200 400 OFFCURVE",
"180 359 OFFCURVE",
"148 345 QCURVE",
"180 250 OFFCURVE",
"242 191 QCURVE SMOOTH",
"304 132 OFFCURVE",
"427 63 QCURVE SMOOTH",
"539 0 OFFCURVE",
"590 0 QCURVE SMOOTH",
"641 0 OFFCURVE",
"821 100 QCURVE SMOOTH",
"1000 200 OFFCURVE",
"1000 300 QCURVE SMOOTH",
"1000 924 LINE SMOOTH"
);
}
);
width = 1200;
}
);
note = uni1794;
unicode = 1794;
},
{
glyphname = uni1795;
layers = (
{
layerId = "27714DAC-5FBA-4222-9599-87EDA629626A";
paths = (
{
closed = 1;
nodes = (
"770 751 LINE SMOOTH",
"730 751 OFFCURVE",
"730 787 QCURVE SMOOTH",
"730 823 OFFCURVE",
"800 892 QCURVE",
"800 751 LINE"
);
},
{
closed = 1;
nodes = (
"1035 1502 QCURVE SMOOTH",
"1040 1535 OFFCURVE",
"1040 1573 QCURVE SMOOTH",
"1040 1666 OFFCURVE",
"973 1740 QCURVE SMOOTH",
"906 1814 OFFCURVE",
"905 1858 QCURVE SMOOTH",
"905 1922 OFFCURVE",
"984 2000 QCURVE",
"852 1968 OFFCURVE",
"796 1914 QCURVE SMOOTH",
"740 1860 OFFCURVE",
"740 1801 QCURVE SMOOTH",
"740 1718 OFFCURVE",
"852 1596 QCURVE SMOOTH",
"921 1521 OFFCURVE",
"945 1482 QCURVE SMOOTH",
"954 1468 OFFCURVE",
"954 1451 QCURVE SMOOTH",
"954 1441 OFFCURVE",
"951 1430 QCURVE SMOOTH",
"941 1400 OFFCURVE",
"910 1378 QCURVE",
"910 1439 OFFCURVE",
"888 1470 QCURVE SMOOTH",
"865 1500 OFFCURVE",
"820 1500 QCURVE SMOOTH",
"200 1500 LINE",
"55 1126 LINE SMOOTH",
"30 1066 OFFCURVE",
"30 1026 QCURVE SMOOTH",
"30 986 OFFCURVE",
"78 980 QCURVE SMOOTH",
"200 960 OFFCURVE",
"200 900 QCURVE SMOOTH",
"200 40 LINE SMOOTH",
"200 0 OFFCURVE",
"225 0 QCURVE SMOOTH",
"250 0 OFFCURVE",
"285 41 QCURVE SMOOTH",
"526 327 LINE",
"732 82 LINE SMOOTH",
"800 0 OFFCURVE",
"825 0 QCURVE SMOOTH",
"850 0 OFFCURVE",
"925 75 QCURVE SMOOTH",
"1000 150 LINE",
"1000 1000 LINE SMOOTH",
"1000 1100 OFFCURVE",
"895 1100 QCURVE SMOOTH",
"849 1100 OFFCURVE",
"731 982 QCURVE SMOOTH",
"600 851 OFFCURVE",
"600 750 QCURVE SMOOTH",
"600 679 OFFCURVE",
"675 600 OFFCURVE",
"770 600 QCURVE SMOOTH",
"800 600 LINE",
"800 309 LINE",
"600 548 LINE",
"400 309 LINE",
"400 964 LINE SMOOTH",
"400 1043 OFFCURVE",
"337 1094 QCURVE SMOOTH",
"274 1144 OFFCURVE",
"168 1167 QCURVE",
"217 1300 LINE",
"781 1300 LINE SMOOTH",
"819 1300 OFFCURVE",
"819 1271 QCURVE SMOOTH",
"819 1266 LINE",
"814 1231 OFFCURVE",
"801 1200 QCURVE",
"814 1196 OFFCURVE",
"826 1196 QCURVE SMOOTH",
"886 1196 OFFCURVE",
"956 1279 QCURVE SMOOTH",
"1020 1356 OFFCURVE"
);
}
);
width = 1200;
}
);
note = uni1795;
unicode = 1795;
},
{
glyphname = uni1796;
layers = (
{
layerId = "27714DAC-5FBA-4222-9599-87EDA629626A";
paths = (
{
closed = 1;
nodes = (
"450 500 LINE SMOOTH",
"490 500 OFFCURVE",
"490 459 QCURVE SMOOTH",
"490 398 OFFCURVE",
"400 309 QCURVE",
"400 500 LINE"
);
},
{
closed = 1;
nodes = (
"504 1300 OFFCURVE",
"504 1234 QCURVE SMOOTH",
"504 1210 OFFCURVE",
"499 1179 QCURVE SMOOTH",
"492 1138 LINE",
"611 1300 OFFCURVE",
"700 1300 QCURVE SMOOTH",
"800 1300 LINE",
"800 -50 LINE",
"1000 150 LINE",
"1000 1500 LINE",
"730 1500 LINE SMOOTH",
"645 1500 OFFCURVE",
"570 1370 QCURVE",
"570 1500 OFFCURVE",
"500 1500 QCURVE SMOOTH",
"200 1500 LINE",
"55 1126 LINE SMOOTH",
"30 1066 OFFCURVE",
"30 1026 QCURVE SMOOTH",
"30 986 OFFCURVE",
"78 980 QCURVE SMOOTH",
"200 960 OFFCURVE",
"200 900 QCURVE SMOOTH",
"200 40 LINE SMOOTH",
"200 0 OFFCURVE",
"225 0 QCURVE SMOOTH",
"250 0 OFFCURVE",
"294 44 QCURVE SMOOTH",
"469 219 LINE SMOOTH",
"600 350 OFFCURVE",
"600 500 QCURVE SMOOTH",
"600 650 OFFCURVE",
"450 650 QCURVE SMOOTH",
"400 650 LINE",
"400 964 LINE SMOOTH",
"400 1043 OFFCURVE",
"337 1094 QCURVE SMOOTH",
"274 1144 OFFCURVE",
"168 1167 QCURVE",
"217 1300 LINE",
"460 1300 LINE SMOOTH"
);
}
);
width = 1200;
}
);
note = uni1796;
unicode = 1796;
},
{
glyphname = uni1797;
layers = (
{
layerId = "27714DAC-5FBA-4222-9599-87EDA629626A";
paths = (
{
closed = 1;
nodes = (
"520 0 OFFCURVE",
"585 85 QCURVE SMOOTH",
"650 170 OFFCURVE",
"650 280 QCURVE SMOOTH",
"650 370 LINE SMOOTH",
"650 489 OFFCURVE",
"603 575 QCURVE SMOOTH",
"556 661 OFFCURVE",
"463 714 QCURVE SMOOTH",
"400 750 OFFCURVE",
"400 850 QCURVE SMOOTH",
"400 914 OFFCURVE",
"425 928 QCURVE SMOOTH",
"449 943 OFFCURVE",
"486 943 QCURVE SMOOTH",
"523 943 OFFCURVE",
"662 864 QCURVE SMOOTH",
"800 784 OFFCURVE",
"800 750 QCURVE SMOOTH",
"800 -50 LINE",
"1000 150 LINE",
"1000 800 LINE SMOOTH",
"1000 900 OFFCURVE",
"759 1037 QCURVE SMOOTH",
"650 1100 OFFCURVE",
"600 1100 QCURVE SMOOTH",
"550 1100 OFFCURVE",
"375 1000 QCURVE SMOOTH",
"200 900 OFFCURVE",
"200 850 QCURVE SMOOTH",
"200 743 OFFCURVE",
"244 664 QCURVE SMOOTH",
"288 585 OFFCURVE",
"375 534 QCURVE SMOOTH",
"463 484 OFFCURVE",
"506 420 QCURVE SMOOTH",
"550 356 OFFCURVE",
"550 280 QCURVE SMOOTH",
"550 230 OFFCURVE",
"519 206 QCURVE SMOOTH",
"508 198 OFFCURVE",
"492 198 QCURVE SMOOTH",
"458 198 OFFCURVE",
"400 231 QCURVE SMOOTH",
"300 288 OFFCURVE",
"300 440 QCURVE",
"200 400 OFFCURVE",
"200 258 QCURVE SMOOTH",
"200 116 OFFCURVE",
"302 58 QCURVE SMOOTH",
"403 0 OFFCURVE",
"462 0 QCURVE SMOOTH"
);
},
{
closed = 1;
nodes = (
"402 1071 QCURVE SMOOTH",
"423 1097 OFFCURVE",
"423 1121 QCURVE SMOOTH",
"423 1150 OFFCURVE",
"394 1175 QCURVE SMOOTH",
"340 1223 OFFCURVE",
"274 1250 QCURVE",
"298 1300 LINE",
"560 1300 LINE SMOOTH",
"600 1300 OFFCURVE",
"600 1247 QCURVE SMOOTH",
"600 1220 OFFCURVE",
"590 1180 QCURVE",
"661 1300 OFFCURVE",
"720 1300 QCURVE SMOOTH",
"902 1300 LINE SMOOTH",
"940 1300 OFFCURVE",
"940 1271 QCURVE SMOOTH",
"940 1266 LINE",
"935 1231 OFFCURVE",
"914 1151 QCURVE",
"997 1207 OFFCURVE",
"1024 1293 QCURVE SMOOTH",
"1050 1378 OFFCURVE",
"1050 1500 QCURVE",
"760 1500 LINE SMOOTH",
"715 1500 OFFCURVE",
"650 1400 QCURVE",
"650 1500 OFFCURVE",
"610 1500 QCURVE SMOOTH",
"300 1500 LINE",
"100 1100 LINE",
"114 1100 LINE SMOOTH",
"172 1100 OFFCURVE",
"215 1078 QCURVE SMOOTH",
"264 1053 OFFCURVE",
"294 1000 QCURVE",
"356 1015 OFFCURVE"
);
}
);
width = 1200;
}
);
note = uni1797;
unicode = 1797;
},
{
glyphname = uni1798;
layers = (
{
layerId = "27714DAC-5FBA-4222-9599-87EDA629626A";
paths = (
{
closed = 1;
nodes = (
"627 663 QCURVE SMOOTH",
"556 695 OFFCURVE",
"502 800 QCURVE",
"400 673 LINE",
"400 924 LINE SMOOTH",
"400 1003 OFFCURVE",
"337 1053 QCURVE SMOOTH",
"274 1104 OFFCURVE",
"148 1127 QCURVE",
"217 1300 LINE",
"350 1300 LINE SMOOTH",
"400 1300 OFFCURVE",
"400 1266 QCURVE SMOOTH",
"400 1231 OFFCURVE",
"384 1170 QCURVE",
"447 1207 OFFCURVE",
"474 1293 QCURVE SMOOTH",
"500 1378 OFFCURVE",
"500 1500 QCURVE",
"200 1500 LINE",
"35 1086 LINE SMOOTH",
"10 1026 OFFCURVE",
"10 986 QCURVE SMOOTH",
"10 946 OFFCURVE",
"58 940 QCURVE SMOOTH",
"200 920 OFFCURVE",
"200 860 QCURVE SMOOTH",
"200 430 LINE SMOOTH",
"200 400 OFFCURVE",
"180 359 OFFCURVE",
"148 345 QCURVE",
"180 250 OFFCURVE",
"242 191 QCURVE SMOOTH",
"304 132 OFFCURVE",
"427 63 QCURVE SMOOTH",
"539 0 OFFCURVE",
"590 0 QCURVE SMOOTH",
"641 0 OFFCURVE",
"821 100 QCURVE SMOOTH",
"1000 200 OFFCURVE",
"1000 300 QCURVE SMOOTH",
"1000 924 LINE SMOOTH",
"1000 1003 OFFCURVE",
"937 1053 QCURVE SMOOTH",
"874 1104 OFFCURVE",
"748 1127 QCURVE",
"817 1300 LINE",
"950 1300 LINE SMOOTH",
"1000 1300 OFFCURVE",
"1000 1266 QCURVE SMOOTH",
"1000 1231 OFFCURVE",
"984 1170 QCURVE",
"1047 1207 OFFCURVE",
"1074 1293 QCURVE SMOOTH",
"1100 1378 OFFCURVE",
"1100 1500 QCURVE",
"800 1500 LINE",
"635 1086 LINE SMOOTH",
"610 1026 OFFCURVE",
"610 986 QCURVE SMOOTH",
"610 946 OFFCURVE",
"658 940 QCURVE SMOOTH",
"800 920 OFFCURVE",
"800 860 QCURVE SMOOTH",
"800 632 LINE",
"691 635 OFFCURVE"
);
},
{
closed = 1;
nodes = (
"596 539 QCURVE SMOOTH",
"605 539 LINE SMOOTH",
"689 539 OFFCURVE",
"800 612 QCURVE",
"800 300 LINE SMOOTH",
"800 186 OFFCURVE",
"774 172 QCURVE SMOOTH",
"750 157 OFFCURVE",
"712 157 QCURVE SMOOTH",
"674 157 OFFCURVE",
"524 237 QCURVE SMOOTH",
"380 316 OFFCURVE",
"380 349 QCURVE",
"400 370 OFFCURVE",
"400 410 QCURVE SMOOTH",
"400 604 LINE",
"512 542 OFFCURVE"
);
}
);
width = 1200;
}
);
note = uni1798;
unicode = 1798;
},
{
glyphname = uni1799;
layers = (
{
layerId = "27714DAC-5FBA-4222-9599-87EDA629626A";
paths = (
{
closed = 1;
nodes = (
"1027 63 QCURVE SMOOTH",
"1139 0 OFFCURVE",
"1190 0 QCURVE SMOOTH",
"1241 0 OFFCURVE",
"1421 100 QCURVE SMOOTH",
"1600 200 OFFCURVE",
"1600 300 QCURVE SMOOTH",
"1600 924 LINE SMOOTH",
"1600 1003 OFFCURVE",
"1537 1053 QCURVE SMOOTH",
"1474 1104 OFFCURVE",
"1348 1127 QCURVE",
"1417 1300 LINE",
"1550 1300 LINE SMOOTH",
"1600 1300 OFFCURVE",
"1600 1266 QCURVE SMOOTH",
"1600 1231 OFFCURVE",
"1584 1170 QCURVE",
"1647 1207 OFFCURVE",
"1674 1293 QCURVE SMOOTH",
"1700 1378 OFFCURVE",
"1700 1500 QCURVE",
"1400 1500 LINE",
"1235 1086 LINE SMOOTH",
"1210 1026 OFFCURVE",
"1210 986 QCURVE SMOOTH",
"1210 946 OFFCURVE",
"1258 940 QCURVE SMOOTH",
"1400 920 OFFCURVE",
"1400 860 QCURVE SMOOTH",
"1400 300 LINE SMOOTH",
"1400 186 OFFCURVE",
"1374 172 QCURVE SMOOTH",
"1350 157 OFFCURVE",
"1312 157 QCURVE SMOOTH",
"1274 157 OFFCURVE",
"1124 237 QCURVE SMOOTH",
"1034 286 OFFCURVE",
"1000 318 QCURVE",
"1000 924 LINE SMOOTH",
"1000 1003 OFFCURVE",
"937 1053 QCURVE SMOOTH",
"874 1104 OFFCURVE",
"748 1127 QCURVE",
"817 1300 LINE",
"950 1300 LINE SMOOTH",
"1000 1300 OFFCURVE",
"1000 1266 QCURVE SMOOTH",
"1000 1231 OFFCURVE",
"984 1170 QCURVE",
"1047 1207 OFFCURVE",
"1074 1293 QCURVE SMOOTH",
"1100 1378 OFFCURVE",
"1100 1500 QCURVE",
"800 1500 LINE",
"635 1086 LINE SMOOTH",
"610 1026 OFFCURVE",
"610 986 QCURVE SMOOTH",
"610 946 OFFCURVE",
"658 940 QCURVE SMOOTH",
"800 920 OFFCURVE",
"800 860 QCURVE SMOOTH",
"800 300 LINE SMOOTH",
"800 186 OFFCURVE",
"774 172 QCURVE SMOOTH",
"750 157 OFFCURVE",
"712 157 QCURVE SMOOTH",
"674 157 OFFCURVE",
"524 237 QCURVE SMOOTH",
"380 316 OFFCURVE",
"380 349 QCURVE",
"400 370 OFFCURVE",
"400 410 QCURVE SMOOTH",
"400 1100 LINE",
"339 1093 OFFCURVE",
"293 1093 QCURVE SMOOTH",
"230 1093 OFFCURVE",
"197 1106 QCURVE SMOOTH",
"140 1127 OFFCURVE",
"140 1174 QCURVE SMOOTH",
"140 1257 OFFCURVE",
"168 1298 QCURVE SMOOTH",
"195 1340 OFFCURVE",
"250 1340 QCURVE SMOOTH",
"300 1340 OFFCURVE",
"300 1305 QCURVE SMOOTH",
"300 1270 OFFCURVE",
"220 1206 QCURVE",
"233 1150 OFFCURVE",
"298 1150 QCURVE SMOOTH",
"329 1150 OFFCURVE",
"370 1162 QCURVE SMOOTH",
"500 1200 OFFCURVE",
"500 1300 QCURVE SMOOTH",
"500 1400 OFFCURVE",
"450 1450 QCURVE SMOOTH",
"400 1500 OFFCURVE",
"300 1500 QCURVE SMOOTH",
"160 1500 OFFCURVE",
"95 1400 QCURVE SMOOTH",
"30 1300 OFFCURVE",
"30 1180 QCURVE SMOOTH",
"30 1080 OFFCURVE",
"70 1000 QCURVE SMOOTH",
"110 920 OFFCURVE",
"200 900 QCURVE",
"200 430 LINE SMOOTH",
"200 400 OFFCURVE",
"180 359 OFFCURVE",
"148 345 QCURVE",
"180 250 OFFCURVE",
"242 191 QCURVE SMOOTH",
"304 132 OFFCURVE",
"427 63 QCURVE SMOOTH",
"539 0 OFFCURVE",
"590 0 QCURVE SMOOTH",
"641 0 OFFCURVE",
"821 100 QCURVE SMOOTH",
"863 123 OFFCURVE",
"895 147 QCURVE",
"949 107 OFFCURVE"
);
}
);
width = 1800;
}
);
note = uni1799;
unicode = 1799;
},
{
glyphname = uni179A;
layers = (
{
layerId = "27714DAC-5FBA-4222-9599-87EDA629626A";
paths = (
{
closed = 1;
nodes = (
"150 441 LINE",
"203 484 LINE",
"203 379 LINE"
);
},
{
closed = 1;
nodes = (
"400 1003 OFFCURVE",
"337 1053 QCURVE SMOOTH",
"274 1104 OFFCURVE",
"148 1127 QCURVE",
"217 1300 LINE",
"350 1300 LINE SMOOTH",
"400 1300 OFFCURVE",
"400 1266 QCURVE SMOOTH",
"400 1231 OFFCURVE",
"384 1170 QCURVE",
"447 1207 OFFCURVE",
"474 1293 QCURVE SMOOTH",
"500 1378 OFFCURVE",
"500 1500 QCURVE",
"200 1500 LINE",
"35 1086 LINE SMOOTH",
"10 1026 OFFCURVE",
"10 986 QCURVE SMOOTH",
"10 946 OFFCURVE",
"58 940 QCURVE SMOOTH",
"200 920 OFFCURVE",
"200 860 QCURVE SMOOTH",
"200 580 LINE",
"60 483 LINE SMOOTH",
"10 450 OFFCURVE",
"10 400 QCURVE SMOOTH",
"10 300 OFFCURVE",
"105 209 QCURVE SMOOTH",
"200 117 OFFCURVE",
"200 35 QCURVE SMOOTH",
"200 0 OFFCURVE",
"225 0 QCURVE SMOOTH",
"250 0 OFFCURVE",
"288 38 QCURVE SMOOTH",
"400 150 LINE",
"400 924 LINE SMOOTH"
);
}
);
width = 600;
}
);
note = uni179A;
unicode = 179A;
},
{
glyphname = uni179B;
layers = (
{
layerId = "27714DAC-5FBA-4222-9599-87EDA629626A";
paths = (
{
closed = 1;
nodes = (
"450 500 LINE SMOOTH",
"490 500 OFFCURVE",
"490 459 QCURVE SMOOTH",
"490 398 OFFCURVE",
"400 309 QCURVE",
"400 500 LINE"
);
},
{
closed = 1;
nodes = (
"200 1500 LINE",
"55 1126 LINE SMOOTH",
"30 1066 OFFCURVE",
"30 1026 QCURVE SMOOTH",
"30 986 OFFCURVE",
"78 980 QCURVE SMOOTH",
"200 960 OFFCURVE",
"200 900 QCURVE SMOOTH",
"200 40 LINE SMOOTH",
"200 0 OFFCURVE",
"225 0 QCURVE SMOOTH",
"250 0 OFFCURVE",
"294 44 QCURVE SMOOTH",
"469 219 LINE SMOOTH",
"600 350 OFFCURVE",
"600 500 QCURVE SMOOTH",
"600 650 OFFCURVE",
"450 650 QCURVE SMOOTH",
"400 650 LINE",
"400 964 LINE SMOOTH",
"400 1043 OFFCURVE",
"337 1094 QCURVE SMOOTH",
"274 1144 OFFCURVE",
"168 1167 QCURVE",
"217 1300 LINE",
"800 1300 LINE",
"800 430 LINE SMOOTH",
"800 400 OFFCURVE",
"780 359 OFFCURVE",
"748 345 QCURVE",
"780 250 OFFCURVE",
"842 191 QCURVE SMOOTH",
"904 132 OFFCURVE",
"1027 63 QCURVE SMOOTH",
"1139 0 OFFCURVE",
"1190 0 QCURVE SMOOTH",
"1241 0 OFFCURVE",
"1421 100 QCURVE SMOOTH",
"1600 200 OFFCURVE",
"1600 300 QCURVE SMOOTH",
"1600 924 LINE SMOOTH",
"1600 1003 OFFCURVE",
"1537 1053 QCURVE SMOOTH",
"1474 1104 OFFCURVE",
"1348 1127 QCURVE",
"1417 1300 LINE",
"1550 1300 LINE SMOOTH",
"1600 1300 OFFCURVE",
"1600 1266 QCURVE SMOOTH",
"1600 1231 OFFCURVE",
"1584 1170 QCURVE",
"1647 1207 OFFCURVE",
"1674 1293 QCURVE SMOOTH",
"1700 1378 OFFCURVE",
"1700 1500 QCURVE",
"1400 1500 LINE",
"1235 1086 LINE SMOOTH",
"1210 1026 OFFCURVE",
"1210 986 QCURVE SMOOTH",
"1210 946 OFFCURVE",
"1258 940 QCURVE SMOOTH",
"1400 920 OFFCURVE",
"1400 860 QCURVE SMOOTH",
"1400 300 LINE SMOOTH",
"1400 186 OFFCURVE",
"1374 172 QCURVE SMOOTH",
"1350 157 OFFCURVE",
"1312 157 QCURVE SMOOTH",
"1274 157 OFFCURVE",
"1124 237 QCURVE SMOOTH",
"980 316 OFFCURVE",
"980 349 QCURVE",
"1000 370 OFFCURVE",
"1000 410 QCURVE SMOOTH",
"1000 1500 LINE"
);
}
);
width = 1800;
}
);
note = uni179B;
unicode = 179B;
},
{
glyphname = uni179C;
layers = (
{
layerId = "27714DAC-5FBA-4222-9599-87EDA629626A";
paths = (
{
closed = 1;
nodes = (
"150 441 LINE",
"203 484 LINE",
"203 379 LINE"
);
},
{
closed = 1;
nodes = (
"484 1451 QCURVE SMOOTH",
"484 1441 OFFCURVE",
"481 1430 QCURVE SMOOTH",
"471 1400 OFFCURVE",
"440 1378 QCURVE",
"440 1439 OFFCURVE",
"418 1470 QCURVE SMOOTH",
"395 1500 OFFCURVE",
"350 1500 QCURVE SMOOTH",
"200 1500 LINE",
"35 1086 LINE SMOOTH",
"10 1026 OFFCURVE",
"10 986 QCURVE SMOOTH",
"10 946 OFFCURVE",
"58 940 QCURVE SMOOTH",
"200 920 OFFCURVE",
"200 860 QCURVE SMOOTH",
"200 580 LINE",
"60 483 LINE SMOOTH",
"10 450 OFFCURVE",
"10 400 QCURVE SMOOTH",
"10 300 OFFCURVE",
"105 209 QCURVE SMOOTH",
"200 117 OFFCURVE",
"200 35 QCURVE SMOOTH",
"200 0 OFFCURVE",
"225 0 QCURVE SMOOTH",
"250 0 OFFCURVE",
"288 38 QCURVE SMOOTH",
"400 150 LINE",
"400 924 LINE SMOOTH",
"400 1003 OFFCURVE",
"337 1053 QCURVE SMOOTH",
"274 1104 OFFCURVE",
"148 1127 QCURVE",
"217 1300 LINE",
"311 1300 LINE SMOOTH",
"349 1300 OFFCURVE",
"349 1271 QCURVE SMOOTH",
"349 1266 LINE",
"344 1231 OFFCURVE",
"331 1200 QCURVE",
"344 1196 OFFCURVE",
"356 1196 QCURVE SMOOTH",
"416 1196 OFFCURVE",
"486 1279 QCURVE SMOOTH",
"550 1356 OFFCURVE",
"565 1502 QCURVE SMOOTH",
"570 1535 OFFCURVE",
"570 1573 QCURVE SMOOTH",
"570 1666 OFFCURVE",
"503 1740 QCURVE SMOOTH",
"436 1814 OFFCURVE",
"435 1858 QCURVE SMOOTH",
"435 1922 OFFCURVE",
"514 2000 QCURVE",
"382 1968 OFFCURVE",
"326 1914 QCURVE SMOOTH",
"270 1860 OFFCURVE",
"270 1801 QCURVE SMOOTH",
"270 1718 OFFCURVE",
"382 1596 QCURVE SMOOTH",
"451 1521 OFFCURVE",
"475 1482 QCURVE SMOOTH",
"484 1468 OFFCURVE"
);
}
);
width = 600;
}
);
note = uni179C;
unicode = 179C;
},
{
glyphname = uni179D;
layers = (
{
layerId = "27714DAC-5FBA-4222-9599-87EDA629626A";
paths = (
{
closed = 1;
nodes = (
"402 1071 QCURVE SMOOTH",
"423 1097 OFFCURVE",
"423 1121 QCURVE SMOOTH",
"423 1150 OFFCURVE",
"394 1175 QCURVE SMOOTH",
"340 1223 OFFCURVE",
"274 1250 QCURVE",
"298 1300 LINE",
"560 1300 LINE SMOOTH",
"600 1300 OFFCURVE",
"600 1247 QCURVE SMOOTH",
"600 1220 OFFCURVE",
"590 1180 QCURVE",
"661 1300 OFFCURVE",
"720 1300 QCURVE SMOOTH",
"902 1300 LINE SMOOTH",
"940 1300 OFFCURVE",
"940 1271 QCURVE SMOOTH",
"940 1266 LINE",
"935 1231 OFFCURVE",
"914 1151 QCURVE",
"997 1207 OFFCURVE",
"1024 1293 QCURVE SMOOTH",
"1050 1378 OFFCURVE",
"1050 1500 QCURVE",
"760 1500 LINE SMOOTH",
"715 1500 OFFCURVE",
"650 1400 QCURVE",
"650 1500 OFFCURVE",
"610 1500 QCURVE SMOOTH",
"300 1500 LINE",
"100 1100 LINE",
"114 1100 LINE SMOOTH",
"172 1100 OFFCURVE",
"215 1078 QCURVE SMOOTH",
"264 1053 OFFCURVE",
"294 1000 QCURVE",
"356 1015 OFFCURVE"
);
},
{
closed = 1;
nodes = (
"749 421 OFFCURVE",
"800 400 QCURVE",
"800 -50 LINE",
"1000 150 LINE",
"1000 379 LINE",
"1072 399 OFFCURVE",
"1160 462 QCURVE",
"1149 462 LINE SMOOTH",
"1060 462 OFFCURVE",
"1000 478 QCURVE",
"1000 800 LINE SMOOTH",
"1000 900 OFFCURVE",
"759 1037 QCURVE SMOOTH",
"650 1100 OFFCURVE",
"600 1100 QCURVE SMOOTH",
"550 1100 OFFCURVE",
"375 1000 QCURVE SMOOTH",
"200 900 OFFCURVE",
"200 800 QCURVE SMOOTH",
"200 40 LINE SMOOTH",
"200 0 OFFCURVE",
"225 0 QCURVE SMOOTH",
"250 0 OFFCURVE",
"281 38 QCURVE SMOOTH",
"466 263 LINE SMOOTH",
"497 300 OFFCURVE",
"525 300 QCURVE SMOOTH",
"582 300 OFFCURVE",
"600 255 QCURVE",
"700 300 OFFCURVE",
"700 365 QCURVE SMOOTH",
"700 429 OFFCURVE",
"653 465 QCURVE SMOOTH",
"605 500 OFFCURVE",
"562 500 QCURVE SMOOTH",
"465 500 OFFCURVE",
"400 349 QCURVE",
"400 800 LINE SMOOTH",
"400 914 OFFCURVE",
"425 928 QCURVE SMOOTH",
"449 943 OFFCURVE",
"486 943 QCURVE SMOOTH",
"523 943 OFFCURVE",
"662 864 QCURVE SMOOTH",
"800 784 OFFCURVE",
"800 750 QCURVE SMOOTH",
"800 590 LINE",
"692 456 LINE"
);
}
);
width = 1200;
}
);
note = uni179D;
unicode = 179D;
},
{
glyphname = uni179E;
layers = (
{
layerId = "27714DAC-5FBA-4222-9599-87EDA629626A";
paths = (
{
closed = 1;
nodes = (
"1160 632 QCURVE",
"1149 632 LINE SMOOTH",
"1060 632 OFFCURVE",
"1000 648 QCURVE",
"1000 924 LINE SMOOTH",
"1000 1003 OFFCURVE",
"937 1053 QCURVE SMOOTH",
"874 1104 OFFCURVE",
"748 1127 QCURVE",
"817 1300 LINE",
"950 1300 LINE SMOOTH",
"1000 1300 OFFCURVE",
"1000 1266 QCURVE SMOOTH",
"1000 1231 OFFCURVE",
"984 1170 QCURVE",
"1047 1207 OFFCURVE",
"1074 1293 QCURVE SMOOTH",
"1100 1378 OFFCURVE",
"1100 1500 QCURVE",
"800 1500 LINE",
"635 1086 LINE SMOOTH",
"610 1026 OFFCURVE",
"610 986 QCURVE SMOOTH",
"610 946 OFFCURVE",
"658 940 QCURVE SMOOTH",
"800 920 OFFCURVE",
"800 860 QCURVE SMOOTH",
"800 760 LINE",
"692 626 LINE",
"749 591 OFFCURVE",
"800 570 QCURVE",
"800 300 LINE SMOOTH",
"800 186 OFFCURVE",
"774 172 QCURVE SMOOTH",
"750 157 OFFCURVE",
"712 157 QCURVE SMOOTH",
"674 157 OFFCURVE",
"524 237 QCURVE SMOOTH",
"380 316 OFFCURVE",
"380 349 QCURVE",
"400 370 OFFCURVE",
"400 410 QCURVE SMOOTH",
"400 924 LINE SMOOTH",
"400 1003 OFFCURVE",
"337 1053 QCURVE SMOOTH",
"274 1104 OFFCURVE",
"148 1127 QCURVE",
"217 1300 LINE",
"350 1300 LINE SMOOTH",
"400 1300 OFFCURVE",
"400 1266 QCURVE SMOOTH",
"400 1231 OFFCURVE",
"384 1170 QCURVE",
"447 1207 OFFCURVE",
"474 1293 QCURVE SMOOTH",
"500 1378 OFFCURVE",
"500 1500 QCURVE",
"200 1500 LINE",
"35 1086 LINE SMOOTH",
"10 1026 OFFCURVE",
"10 986 QCURVE SMOOTH",
"10 946 OFFCURVE",
"58 940 QCURVE SMOOTH",
"200 920 OFFCURVE",
"200 860 QCURVE SMOOTH",
"200 430 LINE SMOOTH",
"200 400 OFFCURVE",
"180 359 OFFCURVE",
"148 345 QCURVE",
"180 250 OFFCURVE",
"242 191 QCURVE SMOOTH",
"304 132 OFFCURVE",
"427 63 QCURVE SMOOTH",
"539 0 OFFCURVE",
"590 0 QCURVE SMOOTH",
"641 0 OFFCURVE",
"821 100 QCURVE SMOOTH",
"1000 200 OFFCURVE",
"1000 300 QCURVE SMOOTH",
"1000 549 LINE",
"1072 569 OFFCURVE"
);
}
);
width = 1200;
}
);
note = uni179E;
unicode = 179E;
},
{
glyphname = uni179F;
layers = (
{
layerId = "27714DAC-5FBA-4222-9599-87EDA629626A";
paths = (
{
closed = 1;
nodes = (
"451 450 LINE SMOOTH",
"491 450 OFFCURVE",
"491 424 QCURVE SMOOTH",
"491 398 OFFCURVE",
"401 309 QCURVE",
"401 450 LINE"
);
},
{
closed = 1;
nodes = (
"201 800 QCURVE SMOOTH",
"201 40 LINE SMOOTH",
"201 0 OFFCURVE",
"226 0 QCURVE SMOOTH",
"251 0 OFFCURVE",
"295 44 QCURVE SMOOTH",
"470 219 LINE SMOOTH",
"601 350 OFFCURVE",
"601 451 QCURVE SMOOTH",
"601 501 OFFCURVE",
"564 525 QCURVE SMOOTH",
"526 550 OFFCURVE",
"451 550 QCURVE SMOOTH",
"401 550 LINE",
"401 800 LINE SMOOTH",
"401 914 OFFCURVE",
"426 928 QCURVE SMOOTH",
"450 943 OFFCURVE",
"487 943 QCURVE SMOOTH",
"524 943 OFFCURVE",
"663 864 QCURVE SMOOTH",
"801 784 OFFCURVE",
"801 750 QCURVE SMOOTH",
"801 430 LINE SMOOTH",
"801 400 OFFCURVE",
"781 359 OFFCURVE",
"749 345 QCURVE",
"781 250 OFFCURVE",
"843 191 QCURVE SMOOTH",
"905 132 OFFCURVE",
"1028 63 QCURVE SMOOTH",
"1140 0 OFFCURVE",
"1191 0 QCURVE SMOOTH",
"1242 0 OFFCURVE",
"1422 100 QCURVE SMOOTH",
"1601 200 OFFCURVE",
"1601 300 QCURVE SMOOTH",
"1601 924 LINE SMOOTH",
"1601 1003 OFFCURVE",
"1538 1053 QCURVE SMOOTH",
"1475 1104 OFFCURVE",
"1349 1127 QCURVE",
"1418 1300 LINE",
"1551 1300 LINE SMOOTH",
"1601 1300 OFFCURVE",
"1601 1266 QCURVE SMOOTH",
"1601 1231 OFFCURVE",
"1585 1170 QCURVE",
"1648 1207 OFFCURVE",
"1675 1293 QCURVE SMOOTH",
"1701 1378 OFFCURVE",
"1701 1500 QCURVE",
"1401 1500 LINE",
"1236 1086 LINE SMOOTH",
"1211 1026 OFFCURVE",
"1211 986 QCURVE SMOOTH",
"1211 946 OFFCURVE",
"1259 940 QCURVE SMOOTH",
"1401 920 OFFCURVE",
"1401 860 QCURVE SMOOTH",
"1401 300 LINE SMOOTH",
"1401 186 OFFCURVE",
"1375 172 QCURVE SMOOTH",
"1351 157 OFFCURVE",
"1313 157 QCURVE SMOOTH",
"1275 157 OFFCURVE",
"1125 237 QCURVE SMOOTH",
"981 316 OFFCURVE",
"981 349 QCURVE",
"1001 370 OFFCURVE",
"1001 410 QCURVE SMOOTH",
"1001 800 LINE SMOOTH",
"1001 900 OFFCURVE",
"760 1037 QCURVE SMOOTH",
"651 1100 OFFCURVE",
"601 1100 QCURVE SMOOTH",
"571 1100 OFFCURVE",
"496 1064 QCURVE",
"471 1111 OFFCURVE",
"434 1150 QCURVE SMOOTH",
"375 1211 OFFCURVE",
"285 1250 QCURVE",
"309 1300 LINE",
"833 1300 LINE SMOOTH",
"871 1300 OFFCURVE",
"871 1271 QCURVE SMOOTH",
"871 1266 LINE",
"866 1231 OFFCURVE",
"845 1151 QCURVE",
"928 1207 OFFCURVE",
"955 1293 QCURVE SMOOTH",
"981 1378 OFFCURVE",
"981 1500 QCURVE",
"311 1500 LINE",
"111 1100 LINE",
"227 1100 OFFCURVE",
"271 1062 QCURVE SMOOTH",
"304 1032 OFFCURVE",
"341 979 QCURVE",
"201 889 OFFCURVE"
);
}
);
width = 1800;
}
);
note = uni179F;
unicode = 179F;
},
{
glyphname = uni17A0;
layers = (
{
layerId = "27714DAC-5FBA-4222-9599-87EDA629626A";
paths = (
{
closed = 1;
nodes = (
"1000 1043 OFFCURVE",
"937 1094 QCURVE SMOOTH",
"874 1144 OFFCURVE",
"768 1167 QCURVE",
"817 1300 LINE",
"1400 1300 LINE",
"1400 -50 LINE",
"1600 150 LINE",
"1600 1500 LINE",
"800 1500 LINE",
"655 1126 LINE SMOOTH",
"630 1066 OFFCURVE",
"630 1026 QCURVE SMOOTH",
"630 986 OFFCURVE",
"678 980 QCURVE SMOOTH",
"800 960 OFFCURVE",
"800 900 QCURVE SMOOTH",
"800 300 LINE SMOOTH",
"800 186 OFFCURVE",
"774 172 QCURVE SMOOTH",
"750 157 OFFCURVE",
"712 157 QCURVE SMOOTH",
"674 157 OFFCURVE",
"524 237 QCURVE SMOOTH",
"380 316 OFFCURVE",
"380 349 QCURVE",
"400 370 OFFCURVE",
"400 410 QCURVE SMOOTH",
"400 924 LINE SMOOTH",
"400 1003 OFFCURVE",
"337 1053 QCURVE SMOOTH",
"274 1104 OFFCURVE",
"148 1127 QCURVE",
"217 1300 LINE",
"350 1300 LINE SMOOTH",
"400 1300 OFFCURVE",
"400 1266 QCURVE SMOOTH",
"400 1231 OFFCURVE",
"384 1170 QCURVE",
"447 1207 OFFCURVE",
"474 1293 QCURVE SMOOTH",
"500 1378 OFFCURVE",
"500 1500 QCURVE",
"200 1500 LINE",
"35 1086 LINE SMOOTH",
"10 1026 OFFCURVE",
"10 986 QCURVE SMOOTH",
"10 946 OFFCURVE",
"58 940 QCURVE SMOOTH",
"200 920 OFFCURVE",
"200 860 QCURVE SMOOTH",
"200 430 LINE SMOOTH",
"200 400 OFFCURVE",
"180 359 OFFCURVE",
"148 345 QCURVE",
"180 250 OFFCURVE",
"242 191 QCURVE SMOOTH",
"304 132 OFFCURVE",
"427 63 QCURVE SMOOTH",
"539 0 OFFCURVE",
"590 0 QCURVE SMOOTH",
"641 0 OFFCURVE",
"821 100 QCURVE SMOOTH",
"1000 200 OFFCURVE",
"1000 300 QCURVE SMOOTH",
"1000 964 LINE SMOOTH"
);
}
);
width = 1800;
}
);
note = uni17A0;
unicode = 17A0;
},
{
glyphname = uni17A1;
layers = (
{
layerId = "27714DAC-5FBA-4222-9599-87EDA629626A";
paths = (
{
closed = 1;
nodes = (
"800 -229 LINE",
"800 -291 LINE",
"760 -265 LINE"
);
},
{
closed = 1;
nodes = (
"531 734 QCURVE SMOOTH",
"738 677 LINE",
"806 657 LINE SMOOTH",
"822 653 OFFCURVE",
"838 653 QCURVE SMOOTH",
"893 653 OFFCURVE",
"953 702 QCURVE SMOOTH",
"1030 765 OFFCURVE",
"1030 918 QCURVE",
"979 845 OFFCURVE",
"906 845 QCURVE SMOOTH",
"886 845 OFFCURVE",
"863 851 QCURVE SMOOTH",
"589 926 LINE SMOOTH",
"424 970 OFFCURVE",
"338 1054 QCURVE SMOOTH",
"251 1137 LINE",
"317 1300 LINE",
"870 1300 LINE SMOOTH",
"908 1300 OFFCURVE",
"908 1275 QCURVE SMOOTH",
"908 1264 OFFCURVE",
"902 1250 QCURVE SMOOTH",
"880 1200 OFFCURVE",
"796 1200 QCURVE SMOOTH",
"712 1200 OFFCURVE",
"619 1255 QCURVE",
"447 1126 LINE",
"655 1000 OFFCURVE",
"776 1000 QCURVE SMOOTH",
"897 1000 OFFCURVE",
"947 1142 QCURVE SMOOTH",
"997 1284 LINE SMOOTH",
"1030 1378 OFFCURVE",
"1030 1500 QCURVE",
"300 1500 LINE",
"173 1200 LINE SMOOTH",
"130 1100 OFFCURVE",
"130 976 QCURVE",
"179 930 LINE SMOOTH",
"325 792 OFFCURVE"
);
},
{
closed = 1;
nodes = (
"1200 -180 LINE",
"1000 -385 LINE",
"1000 -101 LINE",
"939 -50 OFFCURVE",
"880 -50 QCURVE SMOOTH",
"820 -50 OFFCURVE",
"773 -94 QCURVE SMOOTH",
"678 -184 LINE SMOOTH",
"630 -230 OFFCURVE",
"630 -264 QCURVE SMOOTH",
"630 -298 OFFCURVE",
"673 -326 QCURVE SMOOTH",
"800 -410 LINE",
"800 -615 LINE SMOOTH",
"800 -650 OFFCURVE",
"825 -650 QCURVE SMOOTH",
"850 -650 OFFCURVE",
"885 -614 QCURVE SMOOTH",
"1126 -369 LINE",
"1332 -579 LINE SMOOTH",
"1400 -650 OFFCURVE",
"1425 -650 QCURVE SMOOTH",
"1450 -650 OFFCURVE",
"1525 -585 QCURVE SMOOTH",
"1600 -521 LINE",
"1600 924 LINE SMOOTH",
"1600 1003 OFFCURVE",
"1537 1053 QCURVE SMOOTH",
"1474 1104 OFFCURVE",
"1348 1127 QCURVE",
"1417 1300 LINE",
"1550 1300 LINE SMOOTH",
"1600 1300 OFFCURVE",
"1600 1266 QCURVE SMOOTH",
"1600 1231 OFFCURVE",
"1584 1170 QCURVE",
"1647 1207 OFFCURVE",
"1674 1293 QCURVE SMOOTH",
"1700 1378 OFFCURVE",
"1700 1500 QCURVE",
"1400 1500 LINE",
"1235 1086 LINE SMOOTH",
"1210 1026 OFFCURVE",
"1210 986 QCURVE SMOOTH",
"1210 946 OFFCURVE",
"1258 940 QCURVE SMOOTH",
"1400 920 OFFCURVE",
"1400 860 QCURVE SMOOTH",
"1400 -385 LINE"
);
},
{
closed = 1;
nodes = (
"375 730 QCURVE SMOOTH",
"350 730 OFFCURVE",
"313 693 QCURVE SMOOTH",
"200 580 LINE",
"200 300 LINE SMOOTH",
"200 200 OFFCURVE",
"441 63 QCURVE SMOOTH",
"550 0 OFFCURVE",
"600 0 QCURVE SMOOTH",
"650 0 OFFCURVE",
"825 100 QCURVE SMOOTH",
"1000 200 OFFCURVE",
"1000 300 QCURVE SMOOTH",
"1000 711 LINE",
"975 663 OFFCURVE",
"923 636 QCURVE SMOOTH",
"880 613 OFFCURVE",
"825 613 QCURVE SMOOTH",
"813 613 OFFCURVE",
"800 614 QCURVE",
"800 300 LINE SMOOTH",
"800 186 OFFCURVE",
"775 172 QCURVE SMOOTH",
"751 157 OFFCURVE",
"714 157 QCURVE SMOOTH",
"677 157 OFFCURVE",
"538 236 QCURVE SMOOTH",
"400 316 OFFCURVE",
"400 350 QCURVE SMOOTH",
"400 680 LINE SMOOTH",
"400 730 OFFCURVE"
);
}
);
width = 1800;
}
);
note = uni17A1;
unicode = 17A1;
},
{
glyphname = uni17A2;
layers = (
{
layerId = "27714DAC-5FBA-4222-9599-87EDA629626A";
paths = (
{
closed = 1;
nodes = (
"150 441 LINE",
"203 484 LINE",
"203 379 LINE"
);
},
{
closed = 1;
nodes = (
"750 441 LINE",
"803 484 LINE",
"803 379 LINE"
);
},
{
closed = 1;
nodes = (
"596 609 QCURVE SMOOTH",
"605 609 LINE SMOOTH",
"689 609 OFFCURVE",
"800 682 QCURVE",
"800 580 LINE",
"660 483 LINE SMOOTH",
"610 450 OFFCURVE",
"610 400 QCURVE SMOOTH",
"610 300 OFFCURVE",
"705 209 QCURVE SMOOTH",
"800 117 OFFCURVE",
"800 35 QCURVE SMOOTH",
"800 0 OFFCURVE",
"825 0 QCURVE SMOOTH",
"850 0 OFFCURVE",
"888 38 QCURVE SMOOTH",
"1000 150 LINE",
"1000 924 LINE SMOOTH",
"1000 1003 OFFCURVE",
"937 1053 QCURVE SMOOTH",
"874 1104 OFFCURVE",
"748 1127 QCURVE",
"817 1300 LINE",
"950 1300 LINE SMOOTH",
"1000 1300 OFFCURVE",
"1000 1266 QCURVE SMOOTH",
"1000 1231 OFFCURVE",
"984 1170 QCURVE",
"1047 1207 OFFCURVE",
"1074 1293 QCURVE SMOOTH",
"1100 1378 OFFCURVE",
"1100 1500 QCURVE",
"800 1500 LINE",
"635 1086 LINE SMOOTH",
"610 1026 OFFCURVE",
"610 986 QCURVE SMOOTH",
"610 946 OFFCURVE",
"658 940 QCURVE SMOOTH",
"800 920 OFFCURVE",
"800 860 QCURVE SMOOTH",
"800 702 LINE",
"691 705 OFFCURVE",
"627 733 QCURVE SMOOTH",
"556 765 OFFCURVE",
"502 870 QCURVE",
"400 743 LINE",
"400 924 LINE SMOOTH",
"400 1003 OFFCURVE",
"337 1053 QCURVE SMOOTH",
"274 1104 OFFCURVE",
"148 1127 QCURVE",
"217 1300 LINE",
"350 1300 LINE SMOOTH",
"400 1300 OFFCURVE",
"400 1266 QCURVE SMOOTH",
"400 1231 OFFCURVE",
"384 1170 QCURVE",
"447 1207 OFFCURVE",
"474 1293 QCURVE SMOOTH",
"500 1378 OFFCURVE",
"500 1500 QCURVE",
"200 1500 LINE",
"35 1086 LINE SMOOTH",
"10 1026 OFFCURVE",
"10 986 QCURVE SMOOTH",
"10 946 OFFCURVE",
"58 940 QCURVE SMOOTH",
"200 920 OFFCURVE",
"200 860 QCURVE SMOOTH",
"200 580 LINE",
"60 483 LINE SMOOTH",
"10 450 OFFCURVE",
"10 400 QCURVE SMOOTH",
"10 300 OFFCURVE",
"105 209 QCURVE SMOOTH",
"200 117 OFFCURVE",
"200 35 QCURVE SMOOTH",
"200 0 OFFCURVE",
"225 0 QCURVE SMOOTH",
"250 0 OFFCURVE",
"288 38 QCURVE SMOOTH",
"400 150 LINE",
"400 674 LINE",
"512 612 OFFCURVE"
);
}
);
width = 1200;
}
);
note = uni17A2;
unicode = 17A2;
},
{
glyphname = uni17A3;
layers = (
{
layerId = "27714DAC-5FBA-4222-9599-87EDA629626A";
paths = (
{
closed = 1;
nodes = (
"150 441 LINE",
"203 484 LINE",
"203 379 LINE"
);
},
{
closed = 1;
nodes = (
"750 441 LINE",
"803 484 LINE",
"803 379 LINE"
);
},
{
closed = 1;
nodes = (
"596 609 QCURVE SMOOTH",
"605 609 LINE SMOOTH",
"689 609 OFFCURVE",
"800 682 QCURVE",
"800 580 LINE",
"660 483 LINE SMOOTH",
"610 450 OFFCURVE",
"610 400 QCURVE SMOOTH",
"610 300 OFFCURVE",
"705 209 QCURVE SMOOTH",
"800 117 OFFCURVE",
"800 35 QCURVE SMOOTH",
"800 0 OFFCURVE",
"825 0 QCURVE SMOOTH",
"850 0 OFFCURVE",
"888 38 QCURVE SMOOTH",
"1000 150 LINE",
"1000 924 LINE SMOOTH",
"1000 1003 OFFCURVE",
"937 1053 QCURVE SMOOTH",
"874 1104 OFFCURVE",
"748 1127 QCURVE",
"817 1300 LINE",
"950 1300 LINE SMOOTH",
"1000 1300 OFFCURVE",
"1000 1266 QCURVE SMOOTH",
"1000 1231 OFFCURVE",
"984 1170 QCURVE",
"1047 1207 OFFCURVE",
"1074 1293 QCURVE SMOOTH",
"1100 1378 OFFCURVE",
"1100 1500 QCURVE",
"800 1500 LINE",
"635 1086 LINE SMOOTH",
"610 1026 OFFCURVE",
"610 986 QCURVE SMOOTH",
"610 946 OFFCURVE",
"658 940 QCURVE SMOOTH",
"800 920 OFFCURVE",
"800 860 QCURVE SMOOTH",
"800 702 LINE",
"691 705 OFFCURVE",
"627 733 QCURVE SMOOTH",
"556 765 OFFCURVE",
"502 870 QCURVE",
"400 743 LINE",
"400 924 LINE SMOOTH",
"400 1003 OFFCURVE",
"337 1053 QCURVE SMOOTH",
"274 1104 OFFCURVE",
"148 1127 QCURVE",
"217 1300 LINE",
"350 1300 LINE SMOOTH",
"400 1300 OFFCURVE",
"400 1266 QCURVE SMOOTH",
"400 1231 OFFCURVE",
"384 1170 QCURVE",
"447 1207 OFFCURVE",
"474 1293 QCURVE SMOOTH",
"500 1378 OFFCURVE",
"500 1500 QCURVE",
"200 1500 LINE",
"35 1086 LINE SMOOTH",
"10 1026 OFFCURVE",
"10 986 QCURVE SMOOTH",
"10 946 OFFCURVE",
"58 940 QCURVE SMOOTH",
"200 920 OFFCURVE",
"200 860 QCURVE SMOOTH",
"200 580 LINE",
"60 483 LINE SMOOTH",
"10 450 OFFCURVE",
"10 400 QCURVE SMOOTH",
"10 300 OFFCURVE",
"105 209 QCURVE SMOOTH",
"200 117 OFFCURVE",
"200 35 QCURVE SMOOTH",
"200 0 OFFCURVE",
"225 0 QCURVE SMOOTH",
"250 0 OFFCURVE",
"288 38 QCURVE SMOOTH",
"400 150 LINE",
"400 674 LINE",
"512 612 OFFCURVE"
);
}
);
width = 1200;
}
);
note = uni17A3;
unicode = 17A3;
},
{
glyphname = uni17A4;
layers = (
{
layerId = "27714DAC-5FBA-4222-9599-87EDA629626A";
paths = (
{
closed = 1;
nodes = (
"150 441 LINE",
"203 484 LINE",
"203 379 LINE"
);
},
{
closed = 1;
nodes = (
"750 441 LINE",
"803 484 LINE",
"803 379 LINE"
);
},
{
closed = 1;
nodes = (
"596 609 QCURVE SMOOTH",
"605 609 LINE SMOOTH",
"689 609 OFFCURVE",
"800 682 QCURVE",
"800 580 LINE",
"660 483 LINE SMOOTH",
"610 450 OFFCURVE",
"610 400 QCURVE SMOOTH",
"610 300 OFFCURVE",
"705 209 QCURVE SMOOTH",
"800 117 OFFCURVE",
"800 35 QCURVE SMOOTH",
"800 0 OFFCURVE",
"825 0 QCURVE SMOOTH",
"850 0 OFFCURVE",
"888 38 QCURVE SMOOTH",
"1000 150 LINE",
"1000 924 LINE SMOOTH",
"1000 1003 OFFCURVE",
"937 1053 QCURVE SMOOTH",
"874 1104 OFFCURVE",
"748 1127 QCURVE",
"817 1300 LINE",
"1400 1300 LINE",
"1400 -50 LINE",
"1600 150 LINE",
"1600 1500 LINE",
"800 1500 LINE",
"635 1086 LINE SMOOTH",
"610 1026 OFFCURVE",
"610 986 QCURVE SMOOTH",
"610 946 OFFCURVE",
"658 940 QCURVE SMOOTH",
"800 920 OFFCURVE",
"800 860 QCURVE SMOOTH",
"800 702 LINE",
"691 705 OFFCURVE",
"627 733 QCURVE SMOOTH",
"556 765 OFFCURVE",
"502 870 QCURVE",
"400 743 LINE",
"400 924 LINE SMOOTH",
"400 1003 OFFCURVE",
"337 1053 QCURVE SMOOTH",
"274 1104 OFFCURVE",
"148 1127 QCURVE",
"217 1300 LINE",
"350 1300 LINE SMOOTH",
"400 1300 OFFCURVE",
"400 1266 QCURVE SMOOTH",
"400 1231 OFFCURVE",
"384 1170 QCURVE",
"447 1207 OFFCURVE",
"474 1293 QCURVE SMOOTH",
"500 1378 OFFCURVE",
"500 1500 QCURVE",
"200 1500 LINE",
"35 1086 LINE SMOOTH",
"10 1026 OFFCURVE",
"10 986 QCURVE SMOOTH",
"10 946 OFFCURVE",
"58 940 QCURVE SMOOTH",
"200 920 OFFCURVE",
"200 860 QCURVE SMOOTH",
"200 580 LINE",
"60 483 LINE SMOOTH",
"10 450 OFFCURVE",
"10 400 QCURVE SMOOTH",
"10 300 OFFCURVE",
"105 209 QCURVE SMOOTH",
"200 117 OFFCURVE",
"200 35 QCURVE SMOOTH",
"200 0 OFFCURVE",
"225 0 QCURVE SMOOTH",
"250 0 OFFCURVE",
"288 38 QCURVE SMOOTH",
"400 150 LINE",
"400 674 LINE",
"512 612 OFFCURVE"
);
}
);
width = 1800;
}
);
note = uni17A4;
unicode = 17A4;
},
{
glyphname = uni17A5;
layers = (
{
layerId = "27714DAC-5FBA-4222-9599-87EDA629626A";
paths = (
{
closed = 1;
nodes = (
"225 0 QCURVE SMOOTH",
"250 0 OFFCURVE",
"294 44 QCURVE SMOOTH",
"469 219 LINE SMOOTH",
"600 350 OFFCURVE",
"600 451 QCURVE SMOOTH",
"600 501 OFFCURVE",
"563 525 QCURVE SMOOTH",
"525 550 OFFCURVE",
"450 550 QCURVE SMOOTH",
"400 550 LINE",
"400 800 LINE SMOOTH",
"400 914 OFFCURVE",
"425 928 QCURVE SMOOTH",
"449 943 OFFCURVE",
"486 943 QCURVE SMOOTH",
"523 943 OFFCURVE",
"662 864 QCURVE SMOOTH",
"800 784 OFFCURVE",
"800 750 QCURVE SMOOTH",
"800 -50 LINE",
"1000 150 LINE",
"1000 800 LINE SMOOTH",
"1000 900 OFFCURVE",
"759 1037 QCURVE SMOOTH",
"650 1100 OFFCURVE",
"600 1100 QCURVE SMOOTH",
"550 1100 OFFCURVE",
"375 1000 QCURVE SMOOTH",
"200 900 OFFCURVE",
"200 800 QCURVE SMOOTH",
"200 40 LINE SMOOTH",
"200 0 OFFCURVE"
);
},
{
closed = 1;
nodes = (
"450 450 LINE SMOOTH",
"490 450 OFFCURVE",
"490 424 QCURVE SMOOTH",
"490 398 OFFCURVE",
"400 309 QCURVE",
"400 450 LINE"
);
},
{
closed = 1;
nodes = (
"819 1300 OFFCURVE",
"819 1271 QCURVE SMOOTH",
"819 1266 LINE",
"814 1231 OFFCURVE",
"801 1200 QCURVE",
"814 1196 OFFCURVE",
"826 1196 QCURVE SMOOTH",
"886 1196 OFFCURVE",
"956 1279 QCURVE SMOOTH",
"1040 1380 OFFCURVE",
"1040 1600 QCURVE SMOOTH",
"1040 1730 OFFCURVE",
"973 1833 QCURVE SMOOTH",
"906 1936 OFFCURVE",
"905 1996 QCURVE SMOOTH",
"905 2085 OFFCURVE",
"984 2194 QCURVE",
"852 2149 OFFCURVE",
"796 2074 QCURVE SMOOTH",
"740 2000 OFFCURVE",
"740 1917 QCURVE SMOOTH",
"740 1830 OFFCURVE",
"852 1660 QCURVE SMOOTH",
"957 1501 OFFCURVE",
"957 1460 QCURVE SMOOTH",
"957 1455 LINE",
"951 1420 OFFCURVE",
"910 1378 QCURVE",
"910 1439 OFFCURVE",
"888 1470 QCURVE SMOOTH",
"865 1500 OFFCURVE",
"820 1500 QCURVE SMOOTH",
"300 1500 LINE",
"100 1100 LINE",
"114 1100 LINE SMOOTH",
"172 1100 OFFCURVE",
"215 1078 QCURVE SMOOTH",
"264 1053 OFFCURVE",
"294 1000 QCURVE",
"356 1015 OFFCURVE",
"402 1071 QCURVE SMOOTH",
"423 1097 OFFCURVE",
"423 1121 QCURVE SMOOTH",
"423 1150 OFFCURVE",
"394 1175 QCURVE SMOOTH",
"340 1223 OFFCURVE",
"274 1250 QCURVE",
"298 1300 LINE",
"781 1300 LINE SMOOTH"
);
}
);
width = 1200;
}
);
note = uni17A5;
unicode = 17A5;
},
{
glyphname = uni17A6;
layers = (
{
layerId = "27714DAC-5FBA-4222-9599-87EDA629626A";
paths = (
{
closed = 1;
nodes = (
"450 -500 LINE SMOOTH",
"490 -500 OFFCURVE",
"490 -526 QCURVE SMOOTH",
"490 -552 OFFCURVE",
"400 -641 QCURVE",
"400 -500 LINE"
);
},
{
closed = 1;
nodes = (
"450 500 LINE SMOOTH",
"490 500 OFFCURVE",
"490 459 QCURVE SMOOTH",
"490 398 OFFCURVE",
"400 309 QCURVE",
"400 500 LINE"
);
},
{
closed = 1;
nodes = (
"956 -726 LINE",
"1066 -800 OFFCURVE",
"1200 -800 QCURVE SMOOTH",
"1600 -800 OFFCURVE",
"1600 -500 QCURVE SMOOTH",
"1600 924 LINE SMOOTH",
"1600 1003 OFFCURVE",
"1537 1053 QCURVE SMOOTH",
"1474 1104 OFFCURVE",
"1348 1127 QCURVE",
"1417 1300 LINE",
"1511 1300 LINE SMOOTH",
"1549 1300 OFFCURVE",
"1549 1271 QCURVE SMOOTH",
"1549 1266 LINE",
"1544 1231 OFFCURVE",
"1531 1200 QCURVE",
"1544 1196 OFFCURVE",
"1556 1196 QCURVE SMOOTH",
"1616 1196 OFFCURVE",
"1686 1279 QCURVE SMOOTH",
"1770 1380 OFFCURVE",
"1770 1600 QCURVE SMOOTH",
"1770 1730 OFFCURVE",
"1703 1833 QCURVE SMOOTH",
"1636 1936 OFFCURVE",
"1635 1996 QCURVE SMOOTH",
"1635 2085 OFFCURVE",
"1714 2194 QCURVE",
"1582 2149 OFFCURVE",
"1526 2074 QCURVE SMOOTH",
"1470 2000 OFFCURVE",
"1470 1917 QCURVE SMOOTH",
"1470 1830 OFFCURVE",
"1582 1660 QCURVE SMOOTH",
"1687 1501 OFFCURVE",
"1687 1460 QCURVE SMOOTH",
"1687 1455 LINE",
"1681 1420 OFFCURVE",
"1640 1378 QCURVE",
"1640 1439 OFFCURVE",
"1618 1470 QCURVE SMOOTH",
"1595 1500 OFFCURVE",
"1550 1500 QCURVE SMOOTH",
"1400 1500 LINE",
"1235 1086 LINE SMOOTH",
"1210 1026 OFFCURVE",
"1210 986 QCURVE SMOOTH",
"1210 946 OFFCURVE",
"1258 940 QCURVE SMOOTH",
"1400 920 OFFCURVE",
"1400 860 QCURVE SMOOTH",
"1400 -500 LINE SMOOTH",
"1400 -700 OFFCURVE",
"1235 -700 QCURVE SMOOTH",
"1070 -700 OFFCURVE",
"1000 -500 QCURVE",
"1000 -400 LINE SMOOTH",
"1000 -300 OFFCURVE",
"759 -163 QCURVE SMOOTH",
"650 -100 OFFCURVE",
"600 -100 QCURVE SMOOTH",
"550 -100 OFFCURVE",
"375 -200 QCURVE SMOOTH",
"200 -300 OFFCURVE",
"200 -350 QCURVE SMOOTH",
"200 -700 LINE SMOOTH",
"200 -800 OFFCURVE",
"300 -800 QCURVE SMOOTH",
"400 -800 OFFCURVE",
"469 -731 QCURVE SMOOTH",
"600 -600 OFFCURVE",
"600 -499 QCURVE SMOOTH",
"600 -449 OFFCURVE",
"563 -425 QCURVE SMOOTH",
"525 -400 OFFCURVE",
"450 -400 QCURVE SMOOTH",
"400 -400 LINE",
"400 -350 LINE SMOOTH",
"400 -286 OFFCURVE",
"425 -272 QCURVE SMOOTH",
"449 -257 OFFCURVE",
"486 -257 QCURVE SMOOTH",
"523 -257 OFFCURVE",
"662 -336 QCURVE SMOOTH",
"800 -416 OFFCURVE",
"800 -450 QCURVE SMOOTH",
"800 -820 LINE"
);
},
{
closed = 1;
nodes = (
"200 0 OFFCURVE",
"225 0 QCURVE SMOOTH",
"250 0 OFFCURVE",
"294 44 QCURVE SMOOTH",
"469 219 LINE SMOOTH",
"600 350 OFFCURVE",
"600 500 QCURVE SMOOTH",
"600 650 OFFCURVE",
"450 650 QCURVE SMOOTH",
"400 650 LINE",
"400 1200 LINE SMOOTH",
"400 1314 OFFCURVE",
"425 1328 QCURVE SMOOTH",
"449 1343 OFFCURVE",
"486 1343 QCURVE SMOOTH",
"523 1343 OFFCURVE",
"662 1264 QCURVE SMOOTH",
"800 1184 OFFCURVE",
"800 1150 QCURVE SMOOTH",
"800 -50 LINE",
"1000 150 LINE",
"1000 1200 LINE SMOOTH",
"1000 1300 OFFCURVE",
"759 1437 QCURVE SMOOTH",
"650 1500 OFFCURVE",
"600 1500 QCURVE SMOOTH",
"550 1500 OFFCURVE",
"375 1400 QCURVE SMOOTH",
"200 1300 OFFCURVE",
"200 1200 QCURVE SMOOTH",
"200 40 LINE SMOOTH"
);
}
);
width = 1800;
}
);
note = uni17A6;
unicode = 17A6;
},
{
glyphname = uni17A7;
layers = (
{
layerId = "27714DAC-5FBA-4222-9599-87EDA629626A";
paths = (
{
closed = 1;
nodes = (
"434 1090 LINE SMOOTH",
"468 1090 OFFCURVE",
"468 1062 QCURVE SMOOTH",
"468 1043 OFFCURVE",
"400 1005 QCURVE",
"400 1090 LINE"
);
},
{
closed = 1;
nodes = (
"200 200 OFFCURVE",
"375 100 QCURVE SMOOTH",
"550 0 OFFCURVE",
"600 0 QCURVE SMOOTH",
"650 0 OFFCURVE",
"759 63 QCURVE SMOOTH",
"801 88 LINE",
"801 -110 LINE SMOOTH",
"801 -181 OFFCURVE",
"757 -206 QCURVE SMOOTH",
"748 -212 OFFCURVE",
"733 -212 QCURVE SMOOTH",
"678 -212 OFFCURVE",
"550 -137 QCURVE SMOOTH",
"491 -102 OFFCURVE",
"432 -102 QCURVE SMOOTH",
"409 -102 OFFCURVE",
"387 -107 QCURVE SMOOTH",
"306 -124 OFFCURVE",
"252 -180 QCURVE SMOOTH",
"198 -235 OFFCURVE",
"186 -274 QCURVE SMOOTH",
"178 -300 OFFCURVE",
"178 -332 QCURVE SMOOTH",
"178 -347 OFFCURVE",
"180 -363 QCURVE",
"254 -275 OFFCURVE",
"318 -275 QCURVE SMOOTH",
"325 -275 LINE SMOOTH",
"392 -279 OFFCURVE",
"461 -318 QCURVE SMOOTH",
"517 -350 OFFCURVE",
"583 -350 QCURVE SMOOTH",
"598 -350 OFFCURVE",
"614 -348 QCURVE SMOOTH",
"699 -339 OFFCURVE",
"799 -281 QCURVE SMOOTH",
"1000 -166 OFFCURVE",
"1000 -60 QCURVE SMOOTH",
"1000 750 LINE",
"800 550 LINE",
"800 202 LINE",
"706 145 LINE SMOOTH",
"686 132 OFFCURVE",
"662 132 QCURVE SMOOTH",
"568 132 OFFCURVE",
"400 320 QCURVE",
"400 510 LINE",
"700 710 LINE SMOOTH",
"1000 910 OFFCURVE",
"1000 1000 QCURVE SMOOTH",
"1000 1200 LINE SMOOTH",
"1000 1300 OFFCURVE",
"759 1437 QCURVE SMOOTH",
"650 1500 OFFCURVE",
"600 1500 QCURVE SMOOTH",
"550 1500 OFFCURVE",
"375 1400 QCURVE SMOOTH",
"200 1300 OFFCURVE",
"200 1200 QCURVE SMOOTH",
"200 880 LINE SMOOTH",
"200 800 OFFCURVE",
"245 800 QCURVE SMOOTH",
"300 800 OFFCURVE",
"450 895 QCURVE SMOOTH",
"600 990 OFFCURVE",
"600 1095 QCURVE SMOOTH",
"600 1200 OFFCURVE",
"440 1200 QCURVE SMOOTH",
"400 1200 LINE",
"400 1314 OFFCURVE",
"425 1328 QCURVE SMOOTH",
"449 1343 OFFCURVE",
"486 1343 QCURVE SMOOTH",
"523 1343 OFFCURVE",
"662 1264 QCURVE SMOOTH",
"800 1184 OFFCURVE",
"800 1150 QCURVE SMOOTH",
"800 1000 LINE SMOOTH",
"800 910 OFFCURVE",
"600 770 QCURVE SMOOTH",
"400 630 OFFCURVE",
"200 630 QCURVE",
"200 300 LINE SMOOTH"
);
}
);
width = 1200;
}
);
note = uni17A7;
unicode = 17A7;
},
{
glyphname = uni17A8;
layers = (
{
layerId = "27714DAC-5FBA-4222-9599-87EDA629626A";
paths = (
{
closed = 1;
nodes = (
"434 1090 LINE SMOOTH",
"468 1090 OFFCURVE",
"468 1062 QCURVE SMOOTH",
"468 1043 OFFCURVE",
"400 1005 QCURVE",
"400 1090 LINE"
);
},
{
closed = 1;
nodes = (
"200 200 OFFCURVE",
"375 100 QCURVE SMOOTH",
"550 0 OFFCURVE",
"600 0 QCURVE SMOOTH",
"650 0 OFFCURVE",
"759 63 QCURVE SMOOTH",
"801 88 LINE",
"801 -110 LINE SMOOTH",
"801 -181 OFFCURVE",
"757 -206 QCURVE SMOOTH",
"748 -212 OFFCURVE",
"733 -212 QCURVE SMOOTH",
"678 -212 OFFCURVE",
"550 -137 QCURVE SMOOTH",
"491 -102 OFFCURVE",
"432 -102 QCURVE SMOOTH",
"409 -102 OFFCURVE",
"387 -107 QCURVE SMOOTH",
"306 -124 OFFCURVE",
"252 -180 QCURVE SMOOTH",
"198 -235 OFFCURVE",
"186 -274 QCURVE SMOOTH",
"178 -301 OFFCURVE",
"178 -333 QCURVE SMOOTH",
"178 -347 OFFCURVE",
"180 -363 QCURVE",
"254 -275 OFFCURVE",
"318 -275 QCURVE SMOOTH",
"325 -275 LINE SMOOTH",
"392 -279 OFFCURVE",
"461 -318 QCURVE SMOOTH",
"517 -350 OFFCURVE",
"583 -350 QCURVE SMOOTH",
"598 -350 OFFCURVE",
"614 -348 QCURVE SMOOTH",
"699 -339 OFFCURVE",
"799 -281 QCURVE SMOOTH",
"1000 -166 OFFCURVE",
"1000 -60 QCURVE SMOOTH",
"1000 750 LINE",
"800 550 LINE",
"800 202 LINE",
"706 145 LINE SMOOTH",
"686 132 OFFCURVE",
"662 132 QCURVE SMOOTH",
"568 132 OFFCURVE",
"400 320 QCURVE",
"400 510 LINE",
"700 710 LINE SMOOTH",
"1000 910 OFFCURVE",
"1000 1000 QCURVE SMOOTH",
"1000 1200 LINE SMOOTH",
"1000 1300 OFFCURVE",
"759 1437 QCURVE SMOOTH",
"650 1500 OFFCURVE",
"600 1500 QCURVE SMOOTH",
"550 1500 OFFCURVE",
"375 1400 QCURVE SMOOTH",
"200 1300 OFFCURVE",
"200 1200 QCURVE SMOOTH",
"200 880 LINE SMOOTH",
"200 800 OFFCURVE",
"245 800 QCURVE SMOOTH",
"300 800 OFFCURVE",
"450 895 QCURVE SMOOTH",
"600 990 OFFCURVE",
"600 1095 QCURVE SMOOTH",
"600 1200 OFFCURVE",
"440 1200 QCURVE SMOOTH",
"400 1200 LINE",
"400 1314 OFFCURVE",
"425 1328 QCURVE SMOOTH",
"449 1343 OFFCURVE",
"486 1343 QCURVE SMOOTH",
"523 1343 OFFCURVE",
"662 1264 QCURVE SMOOTH",
"800 1184 OFFCURVE",
"800 1150 QCURVE SMOOTH",
"800 1000 LINE SMOOTH",
"800 910 OFFCURVE",
"600 770 QCURVE SMOOTH",
"400 630 OFFCURVE",
"200 630 QCURVE",
"200 300 LINE SMOOTH"
);
},
{
closed = 1;
nodes = (
"402 1461 QCURVE SMOOTH",
"423 1487 OFFCURVE",
"423 1511 QCURVE SMOOTH",
"423 1540 OFFCURVE",
"394 1565 QCURVE SMOOTH",
"340 1613 OFFCURVE",
"274 1640 QCURVE",
"298 1690 LINE",
"560 1690 LINE SMOOTH",
"600 1690 OFFCURVE",
"600 1637 QCURVE SMOOTH",
"600 1610 OFFCURVE",
"590 1570 QCURVE",
"661 1690 OFFCURVE",
"720 1690 QCURVE SMOOTH",
"902 1690 LINE SMOOTH",
"940 1690 OFFCURVE",
"940 1661 QCURVE SMOOTH",
"940 1656 LINE",
"935 1621 OFFCURVE",
"914 1541 QCURVE",
"997 1597 OFFCURVE",
"1024 1683 QCURVE SMOOTH",
"1050 1768 OFFCURVE",
"1050 1890 QCURVE",
"760 1890 LINE SMOOTH",
"715 1890 OFFCURVE",
"650 1790 QCURVE",
"650 1890 OFFCURVE",
"610 1890 QCURVE SMOOTH",
"300 1890 LINE",
"100 1490 LINE",
"114 1490 LINE SMOOTH",
"172 1490 OFFCURVE",
"215 1468 QCURVE SMOOTH",
"264 1443 OFFCURVE",
"294 1390 QCURVE",
"356 1405 OFFCURVE"
);
}
);
width = 1200;
}
);
note = uni17A8;
unicode = 17A8;
},
{
glyphname = uni17A9;
layers = (
{
layerId = "27714DAC-5FBA-4222-9599-87EDA629626A";
paths = (
{
closed = 1;
nodes = (
"434 1090 LINE SMOOTH",
"468 1090 OFFCURVE",
"468 1062 QCURVE SMOOTH",
"468 1043 OFFCURVE",
"400 1005 QCURVE",
"400 1090 LINE"
);
},
{
closed = 1;
nodes = (
"200 200 OFFCURVE",
"375 100 QCURVE SMOOTH",
"550 0 OFFCURVE",
"600 0 QCURVE SMOOTH",
"650 0 OFFCURVE",
"759 63 QCURVE SMOOTH",
"801 88 LINE",
"801 -110 LINE SMOOTH",
"801 -181 OFFCURVE",
"757 -206 QCURVE SMOOTH",
"748 -212 OFFCURVE",
"733 -212 QCURVE SMOOTH",
"678 -212 OFFCURVE",
"550 -137 QCURVE SMOOTH",
"491 -102 OFFCURVE",
"432 -102 QCURVE SMOOTH",
"409 -102 OFFCURVE",
"387 -107 QCURVE SMOOTH",
"306 -124 OFFCURVE",
"252 -180 QCURVE SMOOTH",
"198 -235 OFFCURVE",
"186 -274 QCURVE SMOOTH",
"178 -300 OFFCURVE",
"178 -332 QCURVE SMOOTH",
"178 -347 OFFCURVE",
"180 -363 QCURVE",
"254 -275 OFFCURVE",
"318 -275 QCURVE SMOOTH",
"325 -275 LINE SMOOTH",
"392 -279 OFFCURVE",
"461 -318 QCURVE SMOOTH",
"517 -350 OFFCURVE",
"583 -350 QCURVE SMOOTH",
"598 -350 OFFCURVE",
"614 -348 QCURVE SMOOTH",
"699 -339 OFFCURVE",
"799 -281 QCURVE SMOOTH",
"1000 -166 OFFCURVE",
"1000 -60 QCURVE SMOOTH",
"1000 750 LINE",
"800 550 LINE",
"800 202 LINE",
"706 145 LINE SMOOTH",
"686 132 OFFCURVE",
"662 132 QCURVE SMOOTH",
"568 132 OFFCURVE",
"400 320 QCURVE",
"400 510 LINE",
"700 710 LINE SMOOTH",
"1000 910 OFFCURVE",
"1000 1000 QCURVE SMOOTH",
"1000 1200 LINE SMOOTH",
"1000 1300 OFFCURVE",
"759 1437 QCURVE SMOOTH",
"650 1500 OFFCURVE",
"600 1500 QCURVE SMOOTH",
"550 1500 OFFCURVE",
"375 1400 QCURVE SMOOTH",
"200 1300 OFFCURVE",
"200 1200 QCURVE SMOOTH",
"200 880 LINE SMOOTH",
"200 800 OFFCURVE",
"245 800 QCURVE SMOOTH",
"300 800 OFFCURVE",
"450 895 QCURVE SMOOTH",
"600 990 OFFCURVE",
"600 1095 QCURVE SMOOTH",
"600 1200 OFFCURVE",
"440 1200 QCURVE SMOOTH",
"400 1200 LINE",
"400 1314 OFFCURVE",
"425 1328 QCURVE SMOOTH",
"449 1343 OFFCURVE",
"486 1343 QCURVE SMOOTH",
"523 1343 OFFCURVE",
"662 1264 QCURVE SMOOTH",
"800 1184 OFFCURVE",
"800 1150 QCURVE SMOOTH",
"800 1000 LINE SMOOTH",
"800 910 OFFCURVE",
"600 770 QCURVE SMOOTH",
"400 630 OFFCURVE",
"200 630 QCURVE",
"200 300 LINE SMOOTH"
);
},
{
closed = 1;
nodes = (
"1300 -100 LINE",
"1300 800 LINE",
"1100 600 LINE",
"1100 -300 LINE"
);
}
);
width = 1347;
}
);
note = uni17A9;
unicode = 17A9;
},
{
glyphname = uni17AA;
layers = (
{
layerId = "27714DAC-5FBA-4222-9599-87EDA629626A";
paths = (
{
closed = 1;
nodes = (
"434 1090 LINE SMOOTH",
"468 1090 OFFCURVE",
"468 1062 QCURVE SMOOTH",
"468 1043 OFFCURVE",
"400 1005 QCURVE",
"400 1090 LINE"
);
},
{
closed = 1;
nodes = (
"200 200 OFFCURVE",
"375 100 QCURVE SMOOTH",
"550 0 OFFCURVE",
"600 0 QCURVE SMOOTH",
"650 0 OFFCURVE",
"759 63 QCURVE SMOOTH",
"801 88 LINE",
"801 -110 LINE SMOOTH",
"801 -181 OFFCURVE",
"757 -206 QCURVE SMOOTH",
"748 -212 OFFCURVE",
"733 -212 QCURVE SMOOTH",
"678 -212 OFFCURVE",
"550 -137 QCURVE SMOOTH",
"491 -102 OFFCURVE",
"432 -102 QCURVE SMOOTH",
"409 -102 OFFCURVE",
"387 -107 QCURVE SMOOTH",
"306 -124 OFFCURVE",
"252 -180 QCURVE SMOOTH",
"198 -235 OFFCURVE",
"186 -274 QCURVE SMOOTH",
"178 -301 OFFCURVE",
"178 -333 QCURVE SMOOTH",
"178 -347 OFFCURVE",
"180 -363 QCURVE",
"254 -275 OFFCURVE",
"318 -275 QCURVE SMOOTH",
"325 -275 LINE SMOOTH",
"392 -279 OFFCURVE",
"461 -318 QCURVE SMOOTH",
"517 -350 OFFCURVE",
"583 -350 QCURVE SMOOTH",
"598 -350 OFFCURVE",
"614 -348 QCURVE SMOOTH",
"699 -339 OFFCURVE",
"799 -281 QCURVE SMOOTH",
"1000 -166 OFFCURVE",
"1000 -60 QCURVE SMOOTH",
"1000 750 LINE",
"800 550 LINE",
"800 202 LINE",
"706 145 LINE SMOOTH",
"686 132 OFFCURVE",
"662 132 QCURVE SMOOTH",
"568 132 OFFCURVE",
"400 320 QCURVE",
"400 510 LINE",
"700 710 LINE SMOOTH",
"1000 910 OFFCURVE",
"1000 1000 QCURVE SMOOTH",
"1000 1200 LINE SMOOTH",
"1000 1300 OFFCURVE",
"759 1437 QCURVE SMOOTH",
"650 1500 OFFCURVE",
"600 1500 QCURVE SMOOTH",
"550 1500 OFFCURVE",
"375 1400 QCURVE SMOOTH",
"200 1300 OFFCURVE",
"200 1200 QCURVE SMOOTH",
"200 880 LINE SMOOTH",
"200 800 OFFCURVE",
"245 800 QCURVE SMOOTH",
"300 800 OFFCURVE",
"450 895 QCURVE SMOOTH",
"600 990 OFFCURVE",
"600 1095 QCURVE SMOOTH",
"600 1200 OFFCURVE",
"440 1200 QCURVE SMOOTH",
"400 1200 LINE",
"400 1314 OFFCURVE",
"425 1328 QCURVE SMOOTH",
"449 1343 OFFCURVE",
"486 1343 QCURVE SMOOTH",
"523 1343 OFFCURVE",
"662 1264 QCURVE SMOOTH",
"800 1184 OFFCURVE",
"800 1150 QCURVE SMOOTH",
"800 1000 LINE SMOOTH",
"800 910 OFFCURVE",
"600 770 QCURVE SMOOTH",
"400 630 OFFCURVE",
"200 630 QCURVE",
"200 300 LINE SMOOTH"
);
},
{
closed = 1;
nodes = (
"819 1700 OFFCURVE",
"819 1671 QCURVE SMOOTH",
"819 1666 LINE",
"814 1631 OFFCURVE",
"801 1600 QCURVE",
"814 1596 OFFCURVE",
"826 1596 QCURVE SMOOTH",
"886 1596 OFFCURVE",
"956 1679 QCURVE SMOOTH",
"1040 1780 OFFCURVE",
"1040 2000 QCURVE SMOOTH",
"1040 2130 OFFCURVE",
"973 2233 QCURVE SMOOTH",
"906 2336 OFFCURVE",
"905 2396 QCURVE SMOOTH",
"905 2485 OFFCURVE",
"984 2594 QCURVE",
"852 2549 OFFCURVE",
"796 2474 QCURVE SMOOTH",
"740 2400 OFFCURVE",
"740 2317 QCURVE SMOOTH",
"740 2230 OFFCURVE",
"852 2060 QCURVE SMOOTH",
"957 1901 OFFCURVE",
"957 1860 QCURVE SMOOTH",
"957 1855 LINE",
"951 1820 OFFCURVE",
"910 1778 QCURVE",
"910 1839 OFFCURVE",
"888 1870 QCURVE SMOOTH",
"865 1900 OFFCURVE",
"820 1900 QCURVE SMOOTH",
"300 1900 LINE",
"100 1500 LINE",
"114 1500 LINE SMOOTH",
"172 1500 OFFCURVE",
"215 1478 QCURVE SMOOTH",
"264 1453 OFFCURVE",
"294 1400 QCURVE",
"356 1415 OFFCURVE",
"402 1471 QCURVE SMOOTH",
"423 1497 OFFCURVE",
"423 1521 QCURVE SMOOTH",
"423 1550 OFFCURVE",
"394 1575 QCURVE SMOOTH",
"340 1623 OFFCURVE",
"274 1650 QCURVE",
"298 1700 LINE",
"781 1700 LINE SMOOTH"
);
}
);
width = 1200;
}
);
note = uni17AA;
unicode = 17AA;
},
{
glyphname = uni17AB;
layers = (
{
layerId = "27714DAC-5FBA-4222-9599-87EDA629626A";
paths = (
{
closed = 1;
nodes = (
"1000 1003 OFFCURVE",
"937 1053 QCURVE SMOOTH",
"874 1104 OFFCURVE",
"748 1127 QCURVE",
"817 1300 LINE",
"950 1300 LINE SMOOTH",
"1000 1300 OFFCURVE",
"1000 1266 QCURVE SMOOTH",
"1000 1231 OFFCURVE",
"984 1170 QCURVE",
"1047 1207 OFFCURVE",
"1074 1293 QCURVE SMOOTH",
"1100 1378 OFFCURVE",
"1100 1500 QCURVE",
"800 1500 LINE",
"635 1086 LINE SMOOTH",
"610 1026 OFFCURVE",
"610 986 QCURVE SMOOTH",
"610 946 OFFCURVE",
"658 940 QCURVE SMOOTH",
"800 920 OFFCURVE",
"800 860 QCURVE SMOOTH",
"800 300 LINE SMOOTH",
"800 186 OFFCURVE",
"774 172 QCURVE SMOOTH",
"750 157 OFFCURVE",
"712 157 QCURVE SMOOTH",
"674 157 OFFCURVE",
"524 237 QCURVE SMOOTH",
"380 316 OFFCURVE",
"380 349 QCURVE",
"400 370 OFFCURVE",
"400 410 QCURVE SMOOTH",
"400 924 LINE SMOOTH",
"400 1003 OFFCURVE",
"337 1053 QCURVE SMOOTH",
"274 1104 OFFCURVE",
"148 1127 QCURVE",
"217 1300 LINE",
"350 1300 LINE SMOOTH",
"400 1300 OFFCURVE",
"400 1266 QCURVE SMOOTH",
"400 1231 OFFCURVE",
"384 1170 QCURVE",
"447 1207 OFFCURVE",
"474 1293 QCURVE SMOOTH",
"500 1378 OFFCURVE",
"500 1500 QCURVE",
"200 1500 LINE",
"35 1086 LINE SMOOTH",
"10 1026 OFFCURVE",
"10 986 QCURVE SMOOTH",
"10 946 OFFCURVE",
"58 940 QCURVE SMOOTH",
"200 920 OFFCURVE",
"200 860 QCURVE SMOOTH",
"200 430 LINE SMOOTH",
"200 400 OFFCURVE",
"180 359 OFFCURVE",
"148 345 QCURVE",
"180 250 OFFCURVE",
"242 191 QCURVE SMOOTH",
"304 132 OFFCURVE",
"427 63 QCURVE SMOOTH",
"539 0 OFFCURVE",
"590 0 QCURVE SMOOTH",
"641 0 OFFCURVE",
"821 100 QCURVE SMOOTH",
"1000 200 OFFCURVE",
"1000 300 QCURVE SMOOTH",
"1000 924 LINE SMOOTH"
);
},
{
closed = 1;
nodes = (
"206 -342 QCURVE SMOOTH",
"216 -338 OFFCURVE",
"234 -338 QCURVE SMOOTH",
"303 -338 OFFCURVE",
"495 -393 QCURVE SMOOTH",
"588 -420 OFFCURVE",
"674 -420 QCURVE SMOOTH",
"762 -420 OFFCURVE",
"842 -392 QCURVE SMOOTH",
"1000 -336 OFFCURVE",
"1000 -169 QCURVE SMOOTH",
"1000 -85 OFFCURVE",
"957 -43 QCURVE SMOOTH",
"915 0 OFFCURVE",
"830 0 QCURVE",
"670 -200 LINE",
"757 -170 OFFCURVE",
"807 -170 QCURVE SMOOTH",
"832 -170 OFFCURVE",
"847 -178 QCURVE SMOOTH",
"892 -200 OFFCURVE",
"892 -246 QCURVE SMOOTH",
"892 -262 OFFCURVE",
"853 -262 QCURVE SMOOTH",
"776 -262 OFFCURVE",
"546 -199 QCURVE SMOOTH",
"476 -180 OFFCURVE",
"411 -180 QCURVE SMOOTH",
"317 -180 OFFCURVE",
"236 -220 QCURVE SMOOTH",
"99 -287 OFFCURVE",
"99 -368 QCURVE SMOOTH",
"99 -369 OFFCURVE",
"100 -369 QCURVE",
"100 -451 OFFCURVE",
"136 -485 QCURVE",
"159 -361 OFFCURVE"
);
}
);
width = 1200;
}
);
note = uni17AB;
unicode = 17AB;
},
{
glyphname = uni17AC;
layers = (
{
layerId = "27714DAC-5FBA-4222-9599-87EDA629626A";
paths = (
{
closed = 1;
nodes = (
"1000 1003 OFFCURVE",
"937 1053 QCURVE SMOOTH",
"874 1104 OFFCURVE",
"748 1127 QCURVE",
"817 1300 LINE",
"950 1300 LINE SMOOTH",
"1000 1300 OFFCURVE",
"1000 1266 QCURVE SMOOTH",
"1000 1231 OFFCURVE",
"984 1170 QCURVE",
"1047 1207 OFFCURVE",
"1074 1293 QCURVE SMOOTH",
"1100 1378 OFFCURVE",
"1100 1500 QCURVE",
"800 1500 LINE",
"635 1086 LINE SMOOTH",
"610 1026 OFFCURVE",
"610 986 QCURVE SMOOTH",
"610 946 OFFCURVE",
"658 940 QCURVE SMOOTH",
"800 920 OFFCURVE",
"800 860 QCURVE SMOOTH",
"800 300 LINE SMOOTH",
"800 186 OFFCURVE",
"774 172 QCURVE SMOOTH",
"750 157 OFFCURVE",
"712 157 QCURVE SMOOTH",
"674 157 OFFCURVE",
"524 237 QCURVE SMOOTH",
"380 316 OFFCURVE",
"380 349 QCURVE",
"400 370 OFFCURVE",
"400 410 QCURVE SMOOTH",
"400 924 LINE SMOOTH",
"400 1003 OFFCURVE",
"337 1053 QCURVE SMOOTH",
"274 1104 OFFCURVE",
"148 1127 QCURVE",
"217 1300 LINE",
"350 1300 LINE SMOOTH",
"400 1300 OFFCURVE",
"400 1266 QCURVE SMOOTH",
"400 1231 OFFCURVE",
"384 1170 QCURVE",
"447 1207 OFFCURVE",
"474 1293 QCURVE SMOOTH",
"500 1378 OFFCURVE",
"500 1500 QCURVE",
"200 1500 LINE",
"35 1086 LINE SMOOTH",
"10 1026 OFFCURVE",
"10 986 QCURVE SMOOTH",
"10 946 OFFCURVE",
"58 940 QCURVE SMOOTH",
"200 920 OFFCURVE",
"200 860 QCURVE SMOOTH",
"200 430 LINE SMOOTH",
"200 400 OFFCURVE",
"180 359 OFFCURVE",
"148 345 QCURVE",
"180 250 OFFCURVE",
"242 191 QCURVE SMOOTH",
"304 132 OFFCURVE",
"427 63 QCURVE SMOOTH",
"539 0 OFFCURVE",
"590 0 QCURVE SMOOTH",
"641 0 OFFCURVE",
"821 100 QCURVE SMOOTH",
"1000 200 OFFCURVE",
"1000 300 QCURVE SMOOTH",
"1000 924 LINE SMOOTH"
);
},
{
closed = 1;
nodes = (
"991 -498 QCURVE SMOOTH",
"1019 -506 OFFCURVE",
"1053 -506 QCURVE SMOOTH",
"1132 -506 OFFCURVE",
"1240 -462 QCURVE",
"1112 -432 OFFCURVE",
"1050 -385 QCURVE SMOOTH",
"1005 -349 OFFCURVE",
"978 -279 QCURVE",
"1000 -231 OFFCURVE",
"1000 -169 QCURVE SMOOTH",
"1000 -85 OFFCURVE",
"957 -43 QCURVE SMOOTH",
"915 0 OFFCURVE",
"830 0 QCURVE",
"670 -200 LINE",
"757 -170 OFFCURVE",
"807 -170 QCURVE SMOOTH",
"832 -170 OFFCURVE",
"847 -178 QCURVE SMOOTH",
"892 -200 OFFCURVE",
"892 -246 QCURVE SMOOTH",
"892 -262 OFFCURVE",
"853 -262 QCURVE SMOOTH",
"776 -262 OFFCURVE",
"546 -199 QCURVE SMOOTH",
"476 -180 OFFCURVE",
"411 -180 QCURVE SMOOTH",
"317 -180 OFFCURVE",
"236 -220 QCURVE SMOOTH",
"99 -287 OFFCURVE",
"99 -368 QCURVE SMOOTH",
"99 -369 OFFCURVE",
"100 -369 QCURVE",
"100 -451 OFFCURVE",
"136 -485 QCURVE",
"159 -361 OFFCURVE",
"206 -342 QCURVE SMOOTH",
"216 -338 OFFCURVE",
"234 -338 QCURVE SMOOTH",
"303 -338 OFFCURVE",
"495 -393 QCURVE SMOOTH",
"588 -420 OFFCURVE",
"673 -420 QCURVE SMOOTH",
"752 -420 OFFCURVE",
"825 -397 QCURVE",
"914 -476 OFFCURVE"
);
}
);
width = 1200;
}
);
note = uni17AC;
unicode = 17AC;
},
{
glyphname = uni17AD;
layers = (
{
layerId = "27714DAC-5FBA-4222-9599-87EDA629626A";
paths = (
{
closed = 1;
nodes = (
"450 500 LINE SMOOTH",
"490 500 OFFCURVE",
"490 459 QCURVE SMOOTH",
"490 398 OFFCURVE",
"400 309 QCURVE",
"400 500 LINE"
);
},
{
closed = 1;
nodes = (
"757 -170 OFFCURVE",
"807 -170 QCURVE SMOOTH",
"832 -170 OFFCURVE",
"847 -178 QCURVE SMOOTH",
"892 -200 OFFCURVE",
"892 -246 QCURVE SMOOTH",
"892 -262 OFFCURVE",
"853 -262 QCURVE SMOOTH",
"776 -262 OFFCURVE",
"546 -199 QCURVE SMOOTH",
"476 -180 OFFCURVE",
"411 -180 QCURVE SMOOTH",
"317 -180 OFFCURVE",
"236 -220 QCURVE SMOOTH",
"99 -287 OFFCURVE",
"99 -368 QCURVE SMOOTH",
"99 -369 OFFCURVE",
"100 -369 QCURVE",
"100 -451 OFFCURVE",
"136 -485 QCURVE",
"159 -361 OFFCURVE",
"206 -342 QCURVE SMOOTH",
"216 -338 OFFCURVE",
"234 -338 QCURVE SMOOTH",
"303 -338 OFFCURVE",
"495 -393 QCURVE SMOOTH",
"588 -420 OFFCURVE",
"674 -420 QCURVE SMOOTH",
"762 -420 OFFCURVE",
"842 -392 QCURVE SMOOTH",
"1000 -336 OFFCURVE",
"1000 -169 QCURVE SMOOTH",
"1000 -85 OFFCURVE",
"957 -43 QCURVE SMOOTH",
"920 -5 OFFCURVE",
"849 0 QCURVE",
"1000 150 LINE",
"1000 1500 LINE",
"730 1500 LINE SMOOTH",
"645 1500 OFFCURVE",
"570 1370 QCURVE",
"570 1500 OFFCURVE",
"500 1500 QCURVE SMOOTH",
"200 1500 LINE",
"55 1126 LINE SMOOTH",
"30 1066 OFFCURVE",
"30 1026 QCURVE SMOOTH",
"30 986 OFFCURVE",
"78 980 QCURVE SMOOTH",
"200 960 OFFCURVE",
"200 900 QCURVE SMOOTH",
"200 40 LINE SMOOTH",
"200 0 OFFCURVE",
"225 0 QCURVE SMOOTH",
"250 0 OFFCURVE",
"294 44 QCURVE SMOOTH",
"469 219 LINE SMOOTH",
"600 350 OFFCURVE",
"600 500 QCURVE SMOOTH",
"600 650 OFFCURVE",
"450 650 QCURVE SMOOTH",
"400 650 LINE",
"400 964 LINE SMOOTH",
"400 1043 OFFCURVE",
"337 1094 QCURVE SMOOTH",
"274 1144 OFFCURVE",
"168 1167 QCURVE",
"217 1300 LINE",
"460 1300 LINE SMOOTH",
"504 1300 OFFCURVE",
"504 1234 QCURVE SMOOTH",
"504 1210 OFFCURVE",
"499 1179 QCURVE SMOOTH",
"492 1138 LINE",
"611 1300 OFFCURVE",
"700 1300 QCURVE SMOOTH",
"800 1300 LINE",
"800 -37 LINE",
"670 -200 LINE"
);
}
);
width = 1200;
}
);
note = uni17AD;
unicode = 17AD;
},
{
glyphname = uni17AE;
layers = (
{
layerId = "27714DAC-5FBA-4222-9599-87EDA629626A";
paths = (
{
closed = 1;
nodes = (
"450 500 LINE SMOOTH",
"490 500 OFFCURVE",
"490 459 QCURVE SMOOTH",
"490 398 OFFCURVE",
"400 309 QCURVE",
"400 500 LINE"
);
},
{
closed = 1;
nodes = (
"757 -170 OFFCURVE",
"807 -170 QCURVE SMOOTH",
"832 -170 OFFCURVE",
"847 -178 QCURVE SMOOTH",
"892 -200 OFFCURVE",
"892 -246 QCURVE SMOOTH",
"892 -262 OFFCURVE",
"853 -262 QCURVE SMOOTH",
"776 -262 OFFCURVE",
"546 -199 QCURVE SMOOTH",
"476 -180 OFFCURVE",
"411 -180 QCURVE SMOOTH",
"317 -180 OFFCURVE",
"236 -220 QCURVE SMOOTH",
"99 -287 OFFCURVE",
"99 -368 QCURVE SMOOTH",
"99 -369 OFFCURVE",
"100 -369 QCURVE",
"100 -451 OFFCURVE",
"136 -485 QCURVE",
"159 -361 OFFCURVE",
"206 -342 QCURVE SMOOTH",
"216 -338 OFFCURVE",
"234 -338 QCURVE SMOOTH",
"303 -338 OFFCURVE",
"495 -393 QCURVE SMOOTH",
"588 -420 OFFCURVE",
"673 -420 QCURVE SMOOTH",
"752 -420 OFFCURVE",
"825 -397 QCURVE",
"914 -476 OFFCURVE",
"991 -498 QCURVE SMOOTH",
"1019 -506 OFFCURVE",
"1053 -506 QCURVE SMOOTH",
"1132 -506 OFFCURVE",
"1240 -462 QCURVE",
"1112 -432 OFFCURVE",
"1050 -385 QCURVE SMOOTH",
"1005 -349 OFFCURVE",
"978 -279 QCURVE",
"1000 -231 OFFCURVE",
"1000 -169 QCURVE SMOOTH",
"1000 -85 OFFCURVE",
"957 -43 QCURVE SMOOTH",
"920 -5 OFFCURVE",
"849 0 QCURVE",
"1000 150 LINE",
"1000 1500 LINE",
"730 1500 LINE SMOOTH",
"645 1500 OFFCURVE",
"570 1370 QCURVE",
"570 1500 OFFCURVE",
"500 1500 QCURVE SMOOTH",
"200 1500 LINE",
"55 1126 LINE SMOOTH",
"30 1066 OFFCURVE",
"30 1026 QCURVE SMOOTH",
"30 986 OFFCURVE",
"78 980 QCURVE SMOOTH",
"200 960 OFFCURVE",
"200 900 QCURVE SMOOTH",
"200 40 LINE SMOOTH",
"200 0 OFFCURVE",
"225 0 QCURVE SMOOTH",
"250 0 OFFCURVE",
"294 44 QCURVE SMOOTH",
"469 219 LINE SMOOTH",
"600 350 OFFCURVE",
"600 500 QCURVE SMOOTH",
"600 650 OFFCURVE",
"450 650 QCURVE SMOOTH",
"400 650 LINE",
"400 964 LINE SMOOTH",
"400 1043 OFFCURVE",
"337 1094 QCURVE SMOOTH",
"274 1144 OFFCURVE",
"168 1167 QCURVE",
"217 1300 LINE",
"460 1300 LINE SMOOTH",
"504 1300 OFFCURVE",
"504 1234 QCURVE SMOOTH",
"504 1210 OFFCURVE",
"499 1179 QCURVE SMOOTH",
"492 1138 LINE",
"611 1300 OFFCURVE",
"700 1300 QCURVE SMOOTH",
"800 1300 LINE",
"800 -37 LINE",
"670 -200 LINE"
);
}
);
width = 1200;
}
);
note = uni17AE;
unicode = 17AE;
},
{
glyphname = uni17AF;
layers = (
{
layerId = "27714DAC-5FBA-4222-9599-87EDA629626A";
paths = (
{
closed = 1;
nodes = (
"200 711 LINE",
"200 638 LINE",
"160 669 LINE"
);
},
{
closed = 1;
nodes = (
"200 1144 OFFCURVE",
"300 1144 QCURVE SMOOTH",
"400 1144 OFFCURVE",
"400 1250 QCURVE SMOOTH",
"400 1314 OFFCURVE",
"425 1328 QCURVE SMOOTH",
"449 1343 OFFCURVE",
"486 1343 QCURVE SMOOTH",
"523 1343 OFFCURVE",
"662 1264 QCURVE SMOOTH",
"800 1184 OFFCURVE",
"800 1150 QCURVE SMOOTH",
"800 309 LINE",
"600 548 LINE",
"400 309 LINE",
"400 940 LINE",
"339 1000 OFFCURVE",
"280 1000 QCURVE SMOOTH",
"220 1000 OFFCURVE",
"173 948 QCURVE SMOOTH",
"78 843 LINE SMOOTH",
"30 790 OFFCURVE",
"30 690 QCURVE SMOOTH",
"30 640 OFFCURVE",
"73 608 QCURVE SMOOTH",
"200 510 LINE",
"200 40 LINE SMOOTH",
"200 0 OFFCURVE",
"225 0 QCURVE SMOOTH",
"250 0 OFFCURVE",
"285 41 QCURVE SMOOTH",
"526 327 LINE",
"732 82 LINE SMOOTH",
"800 0 OFFCURVE",
"825 0 QCURVE SMOOTH",
"850 0 OFFCURVE",
"925 75 QCURVE SMOOTH",
"1000 150 LINE",
"1000 1200 LINE SMOOTH",
"1000 1300 OFFCURVE",
"759 1437 QCURVE SMOOTH",
"650 1500 OFFCURVE",
"600 1500 QCURVE SMOOTH",
"554 1500 OFFCURVE",
"400 1414 QCURVE",
"400 1670 LINE SMOOTH",
"400 1900 OFFCURVE",
"280 1900 QCURVE SMOOTH",
"200 1900 OFFCURVE",
"100 1680 QCURVE",
"152 1710 OFFCURVE",
"176 1710 QCURVE SMOOTH",
"200 1710 OFFCURVE",
"200 1670 QCURVE SMOOTH",
"200 1250 LINE SMOOTH"
);
}
);
width = 1200;
}
);
note = uni17AF;
unicode = 17AF;
},
{
glyphname = uni17B0;
layers = (
{
layerId = "27714DAC-5FBA-4222-9599-87EDA629626A";
paths = (
{
closed = 1;
nodes = (
"450 500 LINE SMOOTH",
"490 500 OFFCURVE",
"490 459 QCURVE SMOOTH",
"490 398 OFFCURVE",
"400 309 QCURVE",
"400 500 LINE"
);
},
{
closed = 1;
nodes = (
"504 1300 OFFCURVE",
"504 1234 QCURVE SMOOTH",
"504 1210 OFFCURVE",
"499 1179 QCURVE SMOOTH",
"492 1138 LINE",
"611 1300 OFFCURVE",
"700 1300 QCURVE SMOOTH",
"800 1300 LINE",
"800 -50 LINE",
"1000 150 LINE",
"1000 1500 LINE",
"730 1500 LINE SMOOTH",
"645 1500 OFFCURVE",
"570 1370 QCURVE",
"570 1500 OFFCURVE",
"500 1500 QCURVE SMOOTH",
"200 1500 LINE",
"55 1126 LINE SMOOTH",
"30 1066 OFFCURVE",
"30 1026 QCURVE SMOOTH",
"30 986 OFFCURVE",
"78 980 QCURVE SMOOTH",
"200 960 OFFCURVE",
"200 900 QCURVE SMOOTH",
"200 40 LINE SMOOTH",
"200 0 OFFCURVE",
"225 0 QCURVE SMOOTH",
"250 0 OFFCURVE",
"294 44 QCURVE SMOOTH",
"469 219 LINE SMOOTH",
"600 350 OFFCURVE",
"600 500 QCURVE SMOOTH",
"600 650 OFFCURVE",
"450 650 QCURVE SMOOTH",
"400 650 LINE",
"400 964 LINE SMOOTH",
"400 1043 OFFCURVE",
"337 1094 QCURVE SMOOTH",
"274 1144 OFFCURVE",
"168 1167 QCURVE",
"217 1300 LINE",
"460 1300 LINE SMOOTH"
);
},
{
closed = 1;
nodes = (
"900 -100 LINE SMOOTH",
"800 -200 OFFCURVE",
"688 -232 QCURVE SMOOTH",
"350 -331 LINE SMOOTH",
"200 -375 OFFCURVE",
"200 -486 QCURVE SMOOTH",
"200 -597 OFFCURVE",
"250 -646 QCURVE SMOOTH",
"326 -719 OFFCURVE",
"400 -740 QCURVE SMOOTH",
"428 -747 OFFCURVE",
"457 -747 QCURVE SMOOTH",
"474 -747 LINE SMOOTH",
"511 -744 OFFCURVE",
"547 -728 QCURVE SMOOTH",
"619 -696 OFFCURVE",
"656 -644 QCURVE SMOOTH",
"693 -592 OFFCURVE",
"694 -521 QCURVE",
"719 -576 OFFCURVE",
"764 -585 QCURVE SMOOTH",
"772 -587 OFFCURVE",
"782 -587 QCURVE SMOOTH",
"820 -587 OFFCURVE",
"872 -556 QCURVE SMOOTH",
"936 -518 OFFCURVE",
"968 -454 QCURVE SMOOTH",
"1000 -390 OFFCURVE",
"1000 -300 QCURVE SMOOTH",
"1000 0 LINE"
);
},
{
closed = 1;
nodes = (
"547 -521 OFFCURVE",
"547 -543 QCURVE SMOOTH",
"547 -615 OFFCURVE",
"506 -633 QCURVE SMOOTH",
"496 -638 OFFCURVE",
"483 -638 QCURVE SMOOTH",
"427 -638 OFFCURVE",
"326 -551 QCURVE",
"543 -493 LINE"
);
},
{
closed = 1;
nodes = (
"829 -425 OFFCURVE",
"829 -442 QCURVE SMOOTH",
"829 -469 OFFCURVE",
"809 -479 QCURVE SMOOTH",
"802 -482 OFFCURVE",
"796 -482 QCURVE SMOOTH",
"771 -482 OFFCURVE",
"751 -433 QCURVE",
"821 -401 LINE"
);
}
);
width = 1200;
}
);
note = uni17B0;
unicode = 17B0;
},
{
glyphname = uni17B1;
layers = (
{
layerId = "27714DAC-5FBA-4222-9599-87EDA629626A";
paths = (
{
closed = 1;
nodes = (
"434 1090 LINE SMOOTH",
"468 1090 OFFCURVE",
"468 1062 QCURVE SMOOTH",
"468 1043 OFFCURVE",
"400 1005 QCURVE",
"400 1090 LINE"
);
},
{
closed = 1;
nodes = (
"200 200 OFFCURVE",
"375 100 QCURVE SMOOTH",
"550 0 OFFCURVE",
"600 0 QCURVE SMOOTH",
"650 0 OFFCURVE",
"759 63 QCURVE SMOOTH",
"801 88 LINE",
"801 -110 LINE SMOOTH",
"801 -181 OFFCURVE",
"757 -206 QCURVE SMOOTH",
"748 -212 OFFCURVE",
"733 -212 QCURVE SMOOTH",
"678 -212 OFFCURVE",
"550 -137 QCURVE SMOOTH",
"491 -102 OFFCURVE",
"432 -102 QCURVE SMOOTH",
"409 -102 OFFCURVE",
"387 -107 QCURVE SMOOTH",
"306 -124 OFFCURVE",
"252 -180 QCURVE SMOOTH",
"198 -235 OFFCURVE",
"186 -274 QCURVE SMOOTH",
"178 -301 OFFCURVE",
"178 -333 QCURVE SMOOTH",
"178 -347 OFFCURVE",
"180 -363 QCURVE",
"254 -275 OFFCURVE",
"318 -275 QCURVE SMOOTH",
"325 -275 LINE SMOOTH",
"392 -279 OFFCURVE",
"461 -318 QCURVE SMOOTH",
"517 -350 OFFCURVE",
"583 -350 QCURVE SMOOTH",
"598 -350 OFFCURVE",
"614 -348 QCURVE SMOOTH",
"699 -339 OFFCURVE",
"799 -281 QCURVE SMOOTH",
"1000 -166 OFFCURVE",
"1000 -60 QCURVE SMOOTH",
"1000 750 LINE",
"800 550 LINE",
"800 202 LINE",
"706 145 LINE SMOOTH",
"686 132 OFFCURVE",
"662 132 QCURVE SMOOTH",
"568 132 OFFCURVE",
"400 320 QCURVE",
"400 510 LINE",
"700 710 LINE SMOOTH",
"1000 910 OFFCURVE",
"1000 1000 QCURVE SMOOTH",
"1000 1200 LINE SMOOTH",
"1000 1300 OFFCURVE",
"759 1437 QCURVE SMOOTH",
"650 1500 OFFCURVE",
"600 1500 QCURVE SMOOTH",
"550 1500 OFFCURVE",
"375 1400 QCURVE SMOOTH",
"200 1300 OFFCURVE",
"200 1200 QCURVE SMOOTH",
"200 880 LINE SMOOTH",
"200 800 OFFCURVE",
"245 800 QCURVE SMOOTH",
"300 800 OFFCURVE",
"450 895 QCURVE SMOOTH",
"600 990 OFFCURVE",
"600 1095 QCURVE SMOOTH",
"600 1200 OFFCURVE",
"440 1200 QCURVE SMOOTH",
"400 1200 LINE",
"400 1314 OFFCURVE",
"425 1328 QCURVE SMOOTH",
"449 1343 OFFCURVE",
"486 1343 QCURVE SMOOTH",
"523 1343 OFFCURVE",
"662 1264 QCURVE SMOOTH",
"800 1184 OFFCURVE",
"800 1150 QCURVE SMOOTH",
"800 1000 LINE SMOOTH",
"800 910 OFFCURVE",
"600 770 QCURVE SMOOTH",
"400 630 OFFCURVE",
"200 630 QCURVE",
"200 300 LINE SMOOTH"
);
},
{
closed = 1;
nodes = (
"402 1461 QCURVE SMOOTH",
"423 1487 OFFCURVE",
"423 1511 QCURVE SMOOTH",
"423 1540 OFFCURVE",
"394 1565 QCURVE SMOOTH",
"340 1613 OFFCURVE",
"274 1640 QCURVE",
"298 1690 LINE",
"902 1690 LINE SMOOTH",
"940 1690 OFFCURVE",
"940 1661 QCURVE SMOOTH",
"940 1656 LINE",
"935 1621 OFFCURVE",
"914 1541 QCURVE",
"997 1597 OFFCURVE",
"1024 1683 QCURVE SMOOTH",
"1050 1768 OFFCURVE",
"1050 1890 QCURVE",
"300 1890 LINE",
"100 1490 LINE",
"114 1490 LINE SMOOTH",
"172 1490 OFFCURVE",
"215 1468 QCURVE SMOOTH",
"264 1443 OFFCURVE",
"294 1390 QCURVE",
"356 1405 OFFCURVE"
);
}
);
width = 1200;
}
);
note = uni17B1;
unicode = 17B1;
},
{
glyphname = uni17B2;
layers = (
{
layerId = "27714DAC-5FBA-4222-9599-87EDA629626A";
paths = (
{
closed = 1;
nodes = (
"920 570 OFFCURVE",
"960 660 QCURVE SMOOTH",
"1000 750 OFFCURVE",
"1000 860 QCURVE SMOOTH",
"1000 960 OFFCURVE",
"935 1030 QCURVE SMOOTH",
"870 1100 OFFCURVE",
"750 1100 QCURVE SMOOTH",
"670 1100 OFFCURVE",
"610 1050 QCURVE SMOOTH",
"550 1000 OFFCURVE",
"550 900 QCURVE SMOOTH",
"550 770 OFFCURVE",
"681 767 QCURVE SMOOTH",
"690 767 LINE SMOOTH",
"810 767 OFFCURVE",
"810 845 QCURVE SMOOTH",
"810 846 LINE",
"750 850 OFFCURVE",
"750 895 QCURVE SMOOTH",
"750 940 OFFCURVE",
"800 940 QCURVE SMOOTH",
"835 940 OFFCURVE",
"890 897 OFFCURVE",
"890 854 QCURVE SMOOTH",
"890 797 OFFCURVE",
"843 741 QCURVE SMOOTH",
"796 684 OFFCURVE",
"650 650 QCURVE",
"650 576 LINE SMOOTH",
"650 502 OFFCURVE",
"725 457 QCURVE SMOOTH",
"800 412 OFFCURVE",
"800 300 QCURVE SMOOTH",
"800 186 OFFCURVE",
"775 172 QCURVE SMOOTH",
"751 157 OFFCURVE",
"714 157 QCURVE SMOOTH",
"677 157 OFFCURVE",
"538 236 QCURVE SMOOTH",
"400 316 OFFCURVE",
"400 350 QCURVE SMOOTH",
"400 1200 LINE SMOOTH",
"400 1314 OFFCURVE",
"425 1328 QCURVE SMOOTH",
"449 1343 OFFCURVE",
"486 1343 QCURVE SMOOTH",
"523 1343 OFFCURVE",
"662 1264 QCURVE SMOOTH",
"800 1184 LINE",
"1000 1300 LINE",
"759 1437 LINE SMOOTH",
"650 1500 OFFCURVE",
"600 1500 QCURVE SMOOTH",
"550 1500 OFFCURVE",
"375 1400 QCURVE SMOOTH",
"200 1300 OFFCURVE",
"200 1200 QCURVE SMOOTH",
"200 300 LINE SMOOTH",
"200 200 OFFCURVE",
"441 63 QCURVE SMOOTH",
"550 0 OFFCURVE",
"600 0 QCURVE SMOOTH",
"650 0 OFFCURVE",
"825 100 QCURVE SMOOTH",
"1000 200 OFFCURVE",
"1000 300 QCURVE SMOOTH",
"1000 500 OFFCURVE",
"800 530 QCURVE"
);
}
);
width = 1200;
}
);
note = uni17B2;
unicode = 17B2;
},
{
glyphname = uni17B3;
layers = (
{
layerId = "27714DAC-5FBA-4222-9599-87EDA629626A";
paths = (
{
closed = 1;
nodes = (
"434 1090 LINE SMOOTH",
"468 1090 OFFCURVE",
"468 1062 QCURVE SMOOTH",
"468 1043 OFFCURVE",
"400 1005 QCURVE",
"400 1090 LINE"
);
},
{
closed = 1;
nodes = (
"200 200 OFFCURVE",
"375 100 QCURVE SMOOTH",
"550 0 OFFCURVE",
"600 0 QCURVE SMOOTH",
"650 0 OFFCURVE",
"759 63 QCURVE SMOOTH",
"801 88 LINE",
"801 -110 LINE SMOOTH",
"801 -181 OFFCURVE",
"757 -206 QCURVE SMOOTH",
"748 -212 OFFCURVE",
"733 -212 QCURVE SMOOTH",
"678 -212 OFFCURVE",
"550 -137 QCURVE SMOOTH",
"491 -102 OFFCURVE",
"432 -102 QCURVE SMOOTH",
"409 -102 OFFCURVE",
"387 -107 QCURVE SMOOTH",
"306 -124 OFFCURVE",
"252 -180 QCURVE SMOOTH",
"198 -235 OFFCURVE",
"186 -274 QCURVE SMOOTH",
"178 -301 OFFCURVE",
"178 -333 QCURVE SMOOTH",
"178 -347 OFFCURVE",
"180 -363 QCURVE",
"254 -275 OFFCURVE",
"318 -275 QCURVE SMOOTH",
"325 -275 LINE SMOOTH",
"392 -279 OFFCURVE",
"461 -318 QCURVE SMOOTH",
"517 -350 OFFCURVE",
"583 -350 QCURVE SMOOTH",
"598 -350 OFFCURVE",
"614 -348 QCURVE SMOOTH",
"699 -339 OFFCURVE",
"799 -281 QCURVE SMOOTH",
"1000 -166 OFFCURVE",
"1000 -60 QCURVE SMOOTH",
"1000 750 LINE",
"800 550 LINE",
"800 202 LINE",
"706 145 LINE SMOOTH",
"686 132 OFFCURVE",
"662 132 QCURVE SMOOTH",
"568 132 OFFCURVE",
"400 320 QCURVE",
"400 510 LINE",
"700 710 LINE SMOOTH",
"1000 910 OFFCURVE",
"1000 1000 QCURVE SMOOTH",
"1000 1200 LINE SMOOTH",
"1000 1300 OFFCURVE",
"759 1437 QCURVE SMOOTH",
"650 1500 OFFCURVE",
"600 1500 QCURVE SMOOTH",
"550 1500 OFFCURVE",
"375 1400 QCURVE SMOOTH",
"200 1300 OFFCURVE",
"200 1200 QCURVE SMOOTH",
"200 880 LINE SMOOTH",
"200 800 OFFCURVE",
"245 800 QCURVE SMOOTH",
"300 800 OFFCURVE",
"450 895 QCURVE SMOOTH",
"600 990 OFFCURVE",
"600 1095 QCURVE SMOOTH",
"600 1200 OFFCURVE",
"440 1200 QCURVE SMOOTH",
"400 1200 LINE",
"400 1314 OFFCURVE",
"425 1328 QCURVE SMOOTH",
"449 1343 OFFCURVE",
"486 1343 QCURVE SMOOTH",
"523 1343 OFFCURVE",
"662 1264 QCURVE SMOOTH",
"800 1184 OFFCURVE",
"800 1150 QCURVE SMOOTH",
"800 1000 LINE SMOOTH",
"800 910 OFFCURVE",
"600 770 QCURVE SMOOTH",
"400 630 OFFCURVE",
"200 630 QCURVE",
"200 300 LINE SMOOTH"
);
},
{
closed = 1;
nodes = (
"819 1700 OFFCURVE",
"819 1671 QCURVE SMOOTH",
"819 1666 LINE",
"814 1631 OFFCURVE",
"801 1600 QCURVE",
"814 1596 OFFCURVE",
"826 1596 QCURVE SMOOTH",
"886 1596 OFFCURVE",
"956 1679 QCURVE SMOOTH",
"1040 1780 OFFCURVE",
"1040 2000 QCURVE SMOOTH",
"1040 2130 OFFCURVE",
"973 2233 QCURVE SMOOTH",
"906 2336 OFFCURVE",
"905 2396 QCURVE SMOOTH",
"905 2485 OFFCURVE",
"984 2594 QCURVE",
"852 2549 OFFCURVE",
"796 2474 QCURVE SMOOTH",
"740 2400 OFFCURVE",
"740 2317 QCURVE SMOOTH",
"740 2230 OFFCURVE",
"852 2060 QCURVE SMOOTH",
"957 1901 OFFCURVE",
"957 1860 QCURVE SMOOTH",
"957 1855 LINE",
"951 1820 OFFCURVE",
"910 1778 QCURVE",
"910 1839 OFFCURVE",
"888 1870 QCURVE SMOOTH",
"865 1900 OFFCURVE",
"820 1900 QCURVE SMOOTH",
"300 1900 LINE",
"100 1500 LINE",
"114 1500 LINE SMOOTH",
"172 1500 OFFCURVE",
"215 1478 QCURVE SMOOTH",
"264 1453 OFFCURVE",
"294 1400 QCURVE",
"356 1415 OFFCURVE",
"402 1471 QCURVE SMOOTH",
"423 1497 OFFCURVE",
"423 1521 QCURVE SMOOTH",
"423 1550 OFFCURVE",
"394 1575 QCURVE SMOOTH",
"340 1623 OFFCURVE",
"274 1650 QCURVE",
"298 1700 LINE",
"781 1700 LINE SMOOTH"
);
}
);
width = 1200;
}
);
note = uni17B3;
unicode = 17B3;
},
{
glyphname = uni17B6;
layers = (
{
layerId = "27714DAC-5FBA-4222-9599-87EDA629626A";
paths = (
{
closed = 1;
nodes = (
"200 -50 LINE",
"400 150 LINE",
"400 1500 LINE",
"-50 1500 LINE SMOOTH",
"-100 1500 OFFCURVE",
"-125 1450 QCURVE SMOOTH",
"-150 1400 OFFCURVE",
"-150 1300 QCURVE",
"200 1300 LINE"
);
}
);
width = 600;
}
);
note = uni17B6;
unicode = 17B6;
},
{
glyphname = uni17B7;
layers = (
{
layerId = "27714DAC-5FBA-4222-9599-87EDA629626A";
paths = (
{
closed = 1;
nodes = (
"-753 2046 OFFCURVE",
"-648 2050 QCURVE SMOOTH",
"-630 2050 LINE SMOOTH",
"-533 2050 OFFCURVE",
"-424 2003 QCURVE",
"-208 1893 LINE",
"-223 1871 LINE",
"-501 1967 OFFCURVE",
"-621 1967 QCURVE SMOOTH",
"-632 1967 OFFCURVE",
"-642 1966 QCURVE SMOOTH",
"-757 1955 OFFCURVE",
"-855 1872 QCURVE"
);
},
{
closed = 1;
nodes = (
"-904 1788 OFFCURVE",
"-771 1788 QCURVE SMOOTH",
"-754 1788 LINE SMOOTH",
"-610 1785 OFFCURVE",
"-423 1734 QCURVE SMOOTH",
"-298 1700 LINE",
"-177 1862 LINE",
"-132 1912 OFFCURVE",
"-132 1969 QCURVE SMOOTH",
"-132 1988 OFFCURVE",
"-137 2008 QCURVE SMOOTH",
"-157 2088 OFFCURVE",
"-284 2157 QCURVE SMOOTH",
"-412 2221 OFFCURVE",
"-499 2233 QCURVE SMOOTH",
"-536 2238 OFFCURVE",
"-574 2238 QCURVE SMOOTH",
"-624 2238 OFFCURVE",
"-676 2229 QCURVE SMOOTH",
"-766 2212 OFFCURVE",
"-837 2119 QCURVE SMOOTH",
"-909 2026 OFFCURVE",
"-963 1858 QCURVE SMOOTH",
"-999 1745 LINE"
);
}
);
width = 0;
}
);
note = uni17B7;
unicode = 17B7;
},
{
glyphname = uni17B8;
layers = (
{
layerId = "27714DAC-5FBA-4222-9599-87EDA629626A";
paths = (
{
closed = 1;
nodes = (
"-753 2046 OFFCURVE",
"-648 2050 QCURVE SMOOTH",
"-630 2050 LINE SMOOTH",
"-533 2050 OFFCURVE",
"-424 2003 QCURVE",
"-208 1893 LINE",
"-223 1871 LINE",
"-501 1967 OFFCURVE",
"-621 1967 QCURVE SMOOTH",
"-632 1967 OFFCURVE",
"-642 1966 QCURVE SMOOTH",
"-757 1955 OFFCURVE",
"-855 1872 QCURVE"
);
},
{
closed = 1;
nodes = (
"0 2172 QCURVE SMOOTH",
"0 2247 OFFCURVE",
"-24 2289 QCURVE SMOOTH",
"-48 2330 LINE",
"-142 2192 LINE",
"-100 2140 OFFCURVE",
"-100 2104 QCURVE SMOOTH",
"-100 2073 OFFCURVE",
"-137 2008 QCURVE",
"-157 2088 OFFCURVE",
"-284 2157 QCURVE SMOOTH",
"-412 2221 OFFCURVE",
"-499 2233 QCURVE SMOOTH",
"-536 2238 OFFCURVE",
"-574 2238 QCURVE SMOOTH",
"-625 2238 OFFCURVE",
"-676 2229 QCURVE SMOOTH",
"-766 2212 OFFCURVE",
"-837 2119 QCURVE SMOOTH",
"-909 2026 OFFCURVE",
"-963 1858 QCURVE SMOOTH",
"-999 1745 LINE",
"-904 1788 OFFCURVE",
"-771 1788 QCURVE SMOOTH",
"-754 1788 LINE SMOOTH",
"-610 1785 OFFCURVE",
"-423 1734 QCURVE SMOOTH",
"-298 1700 LINE",
"-149 1898 LINE SMOOTH",
"0 2096 OFFCURVE"
);
}
);
width = 0;
}
);
note = uni17B8;
unicode = 17B8;
},
{
glyphname = uni17B9;
layers = (
{
layerId = "27714DAC-5FBA-4222-9599-87EDA629626A";
paths = (
{
closed = 1;
nodes = (
"-753 2046 OFFCURVE",
"-648 2050 QCURVE SMOOTH",
"-630 2050 LINE SMOOTH",
"-533 2050 OFFCURVE",
"-424 2003 QCURVE",
"-208 1893 LINE",
"-223 1871 LINE",
"-501 1967 OFFCURVE",
"-621 1967 QCURVE SMOOTH",
"-632 1967 OFFCURVE",
"-642 1966 QCURVE SMOOTH",
"-757 1955 OFFCURVE",
"-855 1872 QCURVE"
);
},
{
closed = 1;
nodes = (
"-123 2005 QCURVE",
"-65 2036 OFFCURVE",
"0 2150 OFFCURVE",
"0 2212 QCURVE SMOOTH",
"0 2275 OFFCURVE",
"-67 2391 OFFCURVE",
"-184 2453 OFFCURVE",
"-245 2453 QCURVE SMOOTH",
"-307 2453 OFFCURVE",
"-424 2391 OFFCURVE",
"-457 2333 QCURVE SMOOTH",
"-485 2284 OFFCURVE",
"-490 2232 QCURVE",
"-494 2232 OFFCURVE",
"-499 2233 QCURVE SMOOTH",
"-536 2238 OFFCURVE",
"-574 2238 QCURVE SMOOTH",
"-625 2238 OFFCURVE",
"-676 2229 QCURVE SMOOTH",
"-766 2212 OFFCURVE",
"-837 2119 QCURVE SMOOTH",
"-909 2026 OFFCURVE",
"-963 1858 QCURVE SMOOTH",
"-999 1745 LINE",
"-904 1788 OFFCURVE",
"-771 1788 QCURVE SMOOTH",
"-754 1788 LINE SMOOTH",
"-610 1785 OFFCURVE",
"-423 1734 QCURVE SMOOTH",
"-298 1700 LINE",
"-177 1862 LINE",
"-131 1912 OFFCURVE",
"-131 1969 QCURVE SMOOTH",
"-131 1983 OFFCURVE",
"-134 1998 QCURVE",
"-128 2001 OFFCURVE"
);
},
{
closed = 1;
nodes = (
"-126 2213 OFFCURVE",
"-107 2174 QCURVE SMOOTH",
"-99 2157 OFFCURVE",
"-99 2143 QCURVE SMOOTH",
"-99 2123 OFFCURVE",
"-114 2108 QCURVE SMOOTH",
"-132 2091 OFFCURVE",
"-157 2091 QCURVE SMOOTH",
"-171 2091 OFFCURVE",
"-187 2096 QCURVE SMOOTH",
"-232 2109 OFFCURVE",
"-299 2163 QCURVE SMOOTH",
"-365 2217 OFFCURVE",
"-384 2257 QCURVE SMOOTH",
"-392 2273 OFFCURVE",
"-392 2288 QCURVE SMOOTH",
"-392 2307 OFFCURVE",
"-377 2323 QCURVE SMOOTH",
"-359 2340 OFFCURVE",
"-334 2340 QCURVE SMOOTH",
"-320 2340 OFFCURVE",
"-304 2335 QCURVE SMOOTH",
"-258 2322 OFFCURVE",
"-192 2267 QCURVE SMOOTH"
);
}
);
width = 0;
}
);
note = uni17B9;
unicode = 17B9;
},
